<svg width="86" height="74" viewBox="0 0 86 74" fill="none" xmlns="http://www.w3.org/2000/svg">
<path fill-rule="evenodd" clip-rule="evenodd" d="M14.74 53.895C14.74 55.3348 14.313 56.7424 13.5131 57.9395C12.7132 59.1367 11.5762 60.0698 10.2459 60.6208C8.91568 61.1718 7.45192 61.316 6.03974 61.0351C4.62756 60.7542 3.33039 60.0609 2.31226 59.0427C1.29413 58.0246 0.600779 56.7274 0.319879 55.3152C0.0389786 53.9031 0.183147 52.4393 0.734153 51.1091C1.28516 49.7788 2.21825 48.6418 3.41544 47.8419C4.61263 47.042 6.02015 46.615 7.45999 46.615C9.39077 46.615 11.2425 47.382 12.6077 48.7473C13.973 50.1125 14.74 51.9642 14.74 53.895Z" fill="#B389EF"/>
<path fill-rule="evenodd" clip-rule="evenodd" d="M14.42 44.2849C14.421 45.3947 14.0928 46.4798 13.477 47.403C12.8611 48.3263 11.9853 49.0461 10.9603 49.4715C9.9353 49.8968 8.80716 50.0086 7.71859 49.7927C6.63003 49.5769 5.62996 49.0429 4.84488 48.2586C4.05981 47.4742 3.52501 46.4746 3.30815 45.3862C3.09128 44.2979 3.20208 43.1696 3.62654 42.1442C4.051 41.1188 4.77005 40.2424 5.69271 39.6257C6.61538 39.0091 7.70022 38.6799 8.80998 38.6799C10.297 38.6799 11.7231 39.2703 12.7751 40.3213C13.827 41.3723 14.4187 42.7979 14.42 44.2849Z" fill="#B389EF"/>
<path fill-rule="evenodd" clip-rule="evenodd" d="M21.6 41.84C21.596 42.9904 21.2512 44.1139 20.6091 45.0685C19.967 46.023 19.0563 46.7659 17.9922 47.2032C16.9281 47.6405 15.7583 47.7526 14.6305 47.5253C13.5027 47.2981 12.4676 46.7418 11.6558 45.9265C10.8441 45.1113 10.2922 44.0738 10.0698 42.945C9.84741 41.8163 9.96454 40.6469 10.4064 39.5847C10.8482 38.5225 11.595 37.6151 12.5523 36.977C13.5096 36.339 14.6345 35.999 15.785 36C16.5507 36 17.3089 36.1512 18.0161 36.445C18.7232 36.7388 19.3654 37.1694 19.9057 37.712C20.446 38.2546 20.8738 38.8986 21.1645 39.607C21.4553 40.3154 21.6033 41.0743 21.6 41.84Z" fill="#B389EF"/>
<path fill-rule="evenodd" clip-rule="evenodd" d="M24.55 52.425C24.55 54.1598 24.0355 55.8556 23.0716 57.2979C22.1077 58.7402 20.7378 59.8643 19.135 60.5279C17.5322 61.1916 15.7686 61.365 14.0672 61.0262C12.3659 60.6874 10.8032 59.8516 9.57689 58.6246C8.35058 57.3976 7.51571 55.8345 7.17789 54.1329C6.84006 52.4314 7.01445 50.6679 7.679 49.0654C8.34354 47.463 9.46839 46.0937 10.9113 45.1306C12.3541 44.1676 14.0502 43.654 15.785 43.655C16.9364 43.655 18.0766 43.8819 19.1404 44.3227C20.2041 44.7635 21.1706 45.4096 21.9845 46.224C22.7985 47.0384 23.444 48.0053 23.8842 49.0693C24.3244 50.1333 24.5506 51.2736 24.55 52.425Z" fill="#B389EF"/>
<path d="M11.815 47.4451H11.25V73.2501H11.815V47.4451Z" fill="#29383E"/>
<path d="M6.94619 49.6032L6.54959 49.9985L11.3504 54.8144L11.747 54.4191L6.94619 49.6032Z" fill="#242D3C"/>
<path d="M13.302 49.6189L11.2832 51.6377L11.6792 52.0337L13.6979 50.0149L13.302 49.6189Z" fill="#29383E"/>
<path d="M14.7022 54.6663L11.2904 58.0781L11.6864 58.4741L15.0982 55.0623L14.7022 54.6663Z" fill="#29383E"/>
<path d="M71.82 67.0801H17.815V70.1651H71.82V67.0801Z" fill="#CCCBCA"/>
<path d="M73.75 70.165H15.89V73.25H73.75V70.165Z" fill="#E6E5E5"/>
<path d="M73.75 40.9099H15.89V43.9949H73.75V40.9099Z" fill="#E6E5E5"/>
<path d="M25.82 43.99H21.58V67.075H25.82V43.99Z" fill="#E6E5E5"/>
<path d="M26.79 43.99H20.615V47.09H26.79V43.99Z" fill="#CCCBCA"/>
<path d="M39.905 43.99H35.66V67.075H39.905V43.99Z" fill="#E6E5E5"/>
<path d="M40.865 43.99H34.695V47.09H40.865V43.99Z" fill="#CCCBCA"/>
<path d="M53.98 43.99H49.735V67.075H53.98V43.99Z" fill="#E6E5E5"/>
<path d="M54.945 43.99H48.775V47.09H54.945V43.99Z" fill="#CCCBCA"/>
<path d="M68.06 43.99H63.815V67.075H68.06V43.99Z" fill="#E6E5E5"/>
<path d="M69.025 43.99H62.855V47.09H69.025V43.99Z" fill="#CCCBCA"/>
<path fill-rule="evenodd" clip-rule="evenodd" d="M44.82 22.2749L17.815 40.9099H71.82L44.82 22.2749Z" fill="#CCCBCA"/>
<path fill-rule="evenodd" clip-rule="evenodd" d="M26.84 38.0949L44.82 25.6899L62.795 38.0949H26.84Z" fill="#E6E5E5"/>
<path d="M44.82 36.6749C44.099 36.67 43.3956 36.4519 42.7983 36.0482C42.201 35.6445 41.7364 35.0731 41.463 34.406C41.1896 33.7388 41.1196 33.0058 41.2619 32.299C41.4041 31.5922 41.7522 30.9432 42.2623 30.4338C42.7725 29.9243 43.4219 29.5771 44.1289 29.4358C44.8359 29.2946 45.5689 29.3656 46.2356 29.6399C46.9024 29.9142 47.4731 30.3795 47.876 30.9774C48.2789 31.5753 48.496 32.279 48.5 32.9999C48.502 33.4835 48.4081 33.9627 48.2238 34.4098C48.0395 34.8569 47.7684 35.263 47.4263 35.6047C47.0841 35.9465 46.6776 36.217 46.2302 36.4007C45.7829 36.5843 45.3036 36.6776 44.82 36.6749ZM44.82 31.0499C44.4301 31.0489 44.0488 31.1636 43.7241 31.3795C43.3995 31.5953 43.1462 31.9027 42.9964 32.2625C42.8465 32.6224 42.8068 33.0187 42.8822 33.4012C42.9577 33.7836 43.1449 34.1351 43.4202 34.4111C43.6955 34.6871 44.0465 34.8753 44.4288 34.9517C44.8111 35.0281 45.2074 34.9894 45.5677 34.8404C45.928 34.6915 46.2359 34.439 46.4526 34.1149C46.6693 33.7908 46.785 33.4098 46.785 33.0199C46.7837 32.4987 46.5764 31.9991 46.2083 31.6301C45.8402 31.2611 45.3412 31.0525 44.82 31.0499Z" fill="#CCCBCA"/>
<path fill-rule="evenodd" clip-rule="evenodd" d="M79.295 60.89C79.295 61.8383 79.0138 62.7654 78.4869 63.5539C77.96 64.3425 77.2111 64.957 76.335 65.32C75.4588 65.6829 74.4947 65.7778 73.5645 65.5928C72.6344 65.4078 71.78 64.9511 71.1094 64.2805C70.4388 63.61 69.9821 62.7556 69.7971 61.8254C69.6121 60.8953 69.7071 59.9312 70.07 59.055C70.4329 58.1788 71.0475 57.43 71.836 56.9031C72.6246 56.3762 73.5516 56.095 74.5 56.095C75.7717 56.095 76.9913 56.6002 77.8906 57.4994C78.7898 58.3986 79.295 59.6183 79.295 60.89Z" fill="#B389EF"/>
<path fill-rule="evenodd" clip-rule="evenodd" d="M78.75 53.8749C78.75 54.6059 78.5332 55.3205 78.1269 55.9283C77.7207 56.536 77.1433 57.0096 76.4679 57.2891C75.7924 57.5687 75.0492 57.6415 74.3323 57.4986C73.6154 57.3556 72.957 57.0032 72.4405 56.4859C71.9239 55.9687 71.5724 55.3098 71.4304 54.5927C71.2884 53.8756 71.3623 53.1325 71.6427 52.4575C71.9232 51.7824 72.3975 51.2056 73.0058 50.8002C73.6141 50.3948 74.329 50.1789 75.06 50.1799C75.545 50.1799 76.0253 50.2755 76.4733 50.4613C76.9213 50.6471 77.3283 50.9193 77.671 51.2625C78.0137 51.6057 78.2854 52.013 78.4706 52.4613C78.6557 52.9096 78.7507 53.3899 78.75 53.8749Z" fill="#B389EF"/>
<path fill-rule="evenodd" clip-rule="evenodd" d="M82.87 54.39C82.87 54.9657 82.6992 55.5285 82.3792 56.0072C82.0593 56.4859 81.6045 56.8588 81.0725 57.0789C80.5404 57.299 79.9551 57.3564 79.3905 57.2437C78.8258 57.131 78.3073 56.8534 77.9006 56.4459C77.4938 56.0384 77.217 55.5194 77.1053 54.9546C76.9936 54.3898 77.0519 53.8045 77.273 53.2729C77.494 52.7413 77.8677 52.2871 78.3469 51.968C78.8262 51.6488 79.3893 51.479 79.965 51.48C80.3469 51.48 80.7251 51.5553 81.0779 51.7016C81.4306 51.8479 81.7511 52.0623 82.0209 52.3326C82.2908 52.6029 82.5046 52.9237 82.6503 53.2768C82.796 53.6298 82.8707 54.0081 82.87 54.39Z" fill="#B389EF"/>
<path fill-rule="evenodd" clip-rule="evenodd" d="M85.82 60.9049C85.821 61.9682 85.5066 63.0079 84.9166 63.8925C84.3265 64.777 83.4874 65.4667 82.5054 65.8743C81.5233 66.2819 80.4424 66.3891 79.3994 66.1822C78.3565 65.9754 77.3983 65.4639 76.6461 64.7124C75.8938 63.9609 75.3814 63.0031 75.1736 61.9604C74.9658 60.9176 75.072 59.8366 75.4786 58.8541C75.8853 57.8717 76.5742 57.0319 77.4583 56.4411C78.3423 55.8503 79.3817 55.5349 80.445 55.5349C81.8696 55.5349 83.236 56.1005 84.2439 57.1074C85.2518 58.1144 85.8187 59.4802 85.82 60.9049Z" fill="#B389EF"/>
<path d="M77.645 56.7949H77.15V73.2499H77.645V56.7949Z" fill="#29383E"/>
<path d="M76.6649 58.5814L76.3146 58.9312L77.2509 59.8687L77.6012 59.5189L76.6649 58.5814Z" fill="#29383E"/>
<path d="M74.7468 59.2146L74.3966 59.5645L77.2453 62.4151L77.5954 62.0652L74.7468 59.2146Z" fill="#29383E"/>
<path d="M79.6242 61.2577L77.2342 63.6477L77.5842 63.9977L79.9742 61.6077L79.6242 61.2577Z" fill="#29383E"/>
<path d="M24.97 70.3149H16.815V73.2499H24.97V70.3149Z" fill="#B389EF"/>
<path fill-rule="evenodd" clip-rule="evenodd" d="M19.665 70.395C19.665 70.9599 19.4974 71.5121 19.1835 71.9817C18.8695 72.4513 18.4233 72.8173 17.9014 73.0332C17.3794 73.2491 16.8051 73.3054 16.2511 73.1948C15.6972 73.0842 15.1885 72.8118 14.7894 72.4121C14.3903 72.0123 14.1188 71.5031 14.0092 70.949C13.8996 70.3948 13.9569 69.8206 14.1737 69.299C14.3906 68.7774 14.7573 68.3319 15.2274 68.0188C15.6976 67.7057 16.2501 67.5391 16.815 67.54C17.5713 67.5414 18.2962 67.8427 18.8305 68.378C19.3649 68.9133 19.665 69.6387 19.665 70.395Z" fill="#B389EF"/>
<path fill-rule="evenodd" clip-rule="evenodd" d="M26.615 71.6C26.615 71.9263 26.5182 72.2453 26.3369 72.5166C26.1556 72.788 25.8979 72.9995 25.5964 73.1244C25.2949 73.2492 24.9632 73.2819 24.6431 73.2182C24.323 73.1546 24.029 72.9974 23.7983 72.7667C23.5675 72.5359 23.4104 72.2419 23.3467 71.9219C23.283 71.6018 23.3157 71.27 23.4406 70.9685C23.5655 70.667 23.777 70.4093 24.0483 70.228C24.3197 70.0467 24.6387 69.95 24.965 69.95C25.4026 69.95 25.8223 70.1238 26.1317 70.4332C26.4412 70.7427 26.615 71.1623 26.615 71.6Z" fill="#B389EF"/>
<path fill-rule="evenodd" clip-rule="evenodd" d="M24.715 69.5C24.716 70.2409 24.4972 70.9655 24.0863 71.582C23.6754 72.1985 23.0909 72.6793 22.4067 72.9635C21.7224 73.2477 20.9693 73.3226 20.2425 73.1787C19.5157 73.0347 18.8479 72.6784 18.3237 72.1549C17.7994 71.6313 17.4423 70.9641 17.2974 70.2375C17.1525 69.5109 17.2263 68.7576 17.5096 68.073C17.7929 67.3884 18.2729 66.8032 18.8889 66.3915C19.5049 65.9798 20.2291 65.76 20.97 65.76C21.9624 65.76 22.9142 66.1539 23.6164 66.8551C24.3186 67.5564 24.7137 68.5076 24.715 69.5Z" fill="#B389EF"/>
<path d="M67.045 8.91003H51.85V17.145C51.85 17.4519 51.9705 17.7465 52.1856 17.9654C52.4007 18.1842 52.6932 18.3098 53 18.315H67.025L62.32 13.61L67.045 8.91003Z" fill="#E42352"/>
<path d="M52.195 6.91007C52.0856 7.01884 51.9988 7.14817 51.9396 7.29062C51.8804 7.43306 51.85 7.58581 51.85 7.74007V17.1451C51.8564 16.8425 51.9798 16.5543 52.1942 16.3408C52.4087 16.1273 52.6975 16.0052 53 16.0001H59.16C59.3345 15.9997 59.5067 15.9604 59.6641 15.8852C59.8215 15.8099 59.9601 15.7006 60.07 15.5651C60.2364 15.356 60.328 15.0972 60.33 14.8301V6.57007H53C52.6977 6.57466 52.4091 6.69658 52.195 6.91007Z" fill="#C41849"/>
<path d="M60.35 5.39998V14.805C60.35 14.4947 60.2267 14.1971 60.0073 13.9777C59.7879 13.7582 59.4903 13.635 59.18 13.635H45.155V4.22998H59.18C59.4903 4.22998 59.7879 4.35325 60.0073 4.57267C60.2267 4.79208 60.35 5.08968 60.35 5.39998Z" fill="#FD4062"/>
<path d="M53.24 9.23504H52.265C51.8835 9.23373 51.518 9.08159 51.2482 8.81182C50.9784 8.54205 50.8263 8.17655 50.825 7.79504C50.8276 7.4144 50.9803 7.05018 51.25 6.78149C51.5196 6.5128 51.8843 6.36135 52.265 6.36004H54.375C54.418 6.35451 54.4616 6.35819 54.5031 6.37086C54.5445 6.38353 54.5828 6.40489 54.6154 6.43351C54.6479 6.46214 54.674 6.49737 54.6919 6.53686C54.7097 6.57635 54.719 6.6192 54.719 6.66254C54.719 6.70589 54.7097 6.74873 54.6919 6.78822C54.674 6.82772 54.6479 6.86295 54.6154 6.89158C54.5828 6.9202 54.5445 6.94156 54.5031 6.95423C54.4616 6.96689 54.418 6.97058 54.375 6.96504H52.265C52.1003 6.9648 51.9394 7.01353 51.8025 7.10502C51.6656 7.19652 51.5591 7.32666 51.4963 7.47888C51.4336 7.63111 51.4176 7.79854 51.4503 7.9599C51.483 8.12126 51.563 8.26924 51.68 8.38504C51.8349 8.54093 52.0452 8.62904 52.265 8.63004H53.24C53.283 8.62451 53.3267 8.62819 53.3681 8.64086C53.4096 8.65353 53.4478 8.67489 53.4804 8.70351C53.5129 8.73213 53.539 8.76737 53.5569 8.80686C53.5747 8.84635 53.584 8.8892 53.584 8.93254C53.584 8.97589 53.5747 9.01873 53.5569 9.05822C53.539 9.09772 53.5129 9.13295 53.4804 9.16158C53.4478 9.1902 53.4096 9.21156 53.3681 9.22422C53.3267 9.23689 53.283 9.24058 53.24 9.23504Z" fill="white"/>
<path d="M53.24 11.5H51.13C51.087 11.5055 51.0434 11.5018 51.0019 11.4891C50.9604 11.4765 50.9222 11.4551 50.8896 11.4265C50.8571 11.3979 50.831 11.3626 50.8131 11.3231C50.7953 11.2836 50.786 11.2408 50.786 11.1975C50.786 11.1541 50.7953 11.1113 50.8131 11.0718C50.831 11.0323 50.8571 10.9971 50.8896 10.9684C50.9222 10.9398 50.9604 10.9184 51.0019 10.9058C51.0434 10.8931 51.087 10.8894 51.13 10.895H53.24C53.3996 10.8906 53.5546 10.8403 53.6863 10.75C53.8181 10.6598 53.921 10.5335 53.9827 10.3863C54.0445 10.239 54.0624 10.0771 54.0345 9.91987C54.0065 9.76267 53.9338 9.61687 53.825 9.49996C53.6701 9.34407 53.4598 9.25597 53.24 9.25496H52.265C52.222 9.2605 52.1784 9.25681 52.1369 9.24414C52.0955 9.23147 52.0572 9.21011 52.0246 9.18149C51.9921 9.15287 51.966 9.11763 51.9481 9.07814C51.9303 9.03865 51.921 8.9958 51.921 8.95246C51.921 8.90911 51.9303 8.86627 51.9481 8.82678C51.966 8.78728 51.9921 8.75205 52.0246 8.72343C52.0572 8.6948 52.0955 8.67345 52.1369 8.66078C52.1784 8.64811 52.222 8.64442 52.265 8.64996H53.24C53.5237 8.65181 53.8004 8.73768 54.0353 8.89673C54.2702 9.05579 54.4526 9.28089 54.5597 9.5436C54.6667 9.8063 54.6934 10.0948 54.6365 10.3727C54.5796 10.6506 54.4416 10.9054 54.24 11.105C53.9722 11.364 53.6125 11.5061 53.24 11.5Z" fill="white"/>
<path d="M52.755 12.155C52.7152 12.1557 52.6756 12.1484 52.6386 12.1337C52.6017 12.1189 52.568 12.0969 52.5396 12.069C52.5112 12.041 52.4887 12.0077 52.4733 11.971C52.4579 11.9343 52.45 11.8949 52.45 11.855V6.00004C52.4595 5.9265 52.4954 5.85894 52.5511 5.80998C52.6067 5.76101 52.6783 5.73401 52.7525 5.73401C52.8266 5.73401 52.8982 5.76101 52.9539 5.80998C53.0096 5.85894 53.0455 5.9265 53.055 6.00004V11.855C53.055 11.8944 53.0472 11.9334 53.0322 11.9698C53.0171 12.0062 52.995 12.0393 52.9671 12.0672C52.9393 12.095 52.9062 12.1171 52.8698 12.1322C52.8334 12.1473 52.7944 12.155 52.755 12.155Z" fill="white"/>
<path d="M45.155 2.36499H44.48V22.505H45.155V2.36499Z" fill="#29383E"/>
<path d="M45.66 1.59501C45.66 1.76235 45.6103 1.92592 45.5173 2.06499C45.4242 2.20405 45.2919 2.31235 45.1372 2.37616C44.9825 2.43997 44.8124 2.45641 44.6483 2.4234C44.4843 2.39038 44.3337 2.30941 44.2158 2.19073C44.0978 2.07205 44.0177 1.92102 43.9857 1.75678C43.9536 1.59254 43.9711 1.42248 44.0358 1.26817C44.1005 1.11385 44.2096 0.982231 44.3492 0.889986C44.4888 0.79774 44.6527 0.749025 44.82 0.750015C44.9308 0.750013 45.0404 0.771905 45.1427 0.814432C45.2449 0.856958 45.3377 0.919278 45.4158 0.99781C45.4938 1.07634 45.5556 1.16953 45.5975 1.27203C45.6394 1.37452 45.6607 1.48428 45.66 1.59501Z" fill="#29383E"/>
<path d="M75.465 27.8099C75.297 27.8087 75.1294 27.8255 74.965 27.8599C74.9607 26.8762 74.5985 25.9276 73.946 25.1914C73.2935 24.4552 72.3953 23.9816 71.4192 23.8592C70.4431 23.7367 69.4558 23.9737 68.6417 24.5259C67.8275 25.0781 67.2422 25.9077 66.995 26.8599C66.5895 26.77 66.1695 26.7667 65.7626 26.85C65.3557 26.9334 64.9709 27.1016 64.6334 27.3437C64.2959 27.5858 64.0132 27.8963 63.8037 28.255C63.5943 28.6137 63.4629 29.0125 63.418 29.4255C63.3731 29.8384 63.4157 30.2562 63.5431 30.6515C63.6706 31.0469 63.8799 31.4109 64.1576 31.7199C64.4352 32.0288 64.7748 32.2758 65.1543 32.4447C65.5338 32.6136 65.9446 32.7005 66.36 32.6999H75.465C76.1095 32.6999 76.7276 32.4439 77.1833 31.9882C77.639 31.5325 77.895 30.9144 77.895 30.2699C77.895 29.6254 77.639 29.0073 77.1833 28.5516C76.7276 28.0959 76.1095 27.8399 75.465 27.8399V27.8099Z" fill="#D9D8D7"/>
<path d="M16.38 14.22C16.38 14.16 16.38 14.1 16.38 14.035C16.3789 12.5134 16.9251 11.0422 17.9188 9.88993C18.9125 8.73767 20.2874 7.9812 21.7926 7.75864C23.2978 7.53607 24.8328 7.86225 26.1175 8.67763C27.4021 9.49301 28.3507 10.7432 28.79 12.2C29.3535 11.9359 29.9744 11.8182 30.5954 11.8578C31.2164 11.8974 31.8174 12.093 32.3428 12.4265C32.8682 12.7599 33.3009 13.2205 33.6011 13.7656C33.9013 14.3107 34.0591 14.9227 34.06 15.545C34.0596 16.0016 33.9749 16.4542 33.81 16.88H33.93C34.5586 16.88 35.1614 17.1297 35.6058 17.5741C36.0503 18.0186 36.3 18.6214 36.3 19.25C36.3 19.8785 36.0503 20.4813 35.6058 20.9258C35.1614 21.3703 34.5586 21.62 33.93 21.62H16.38C15.4 21.62 14.4602 21.2307 13.7672 20.5377C13.0743 19.8448 12.685 18.9049 12.685 17.925C12.685 16.945 13.0743 16.0051 13.7672 15.3122C14.4602 14.6193 15.4 14.23 16.38 14.23V14.22Z" fill="#D9D8D7"/>
</svg>
