<svg width="18" height="16" viewBox="0 0 18 16" fill="none" xmlns="http://www.w3.org/2000/svg">
<path d="M8.56137 3.08737L8.99999 3.88896L9.43862 3.08738C9.71639 2.57979 10.1802 1.89832 10.8631 1.37017L10.5572 0.974656L10.8631 1.37017C11.5668 0.825877 12.3553 0.554688 13.2188 0.554688C15.6309 0.554688 17.5 2.5213 17.5 5.24073C17.5 6.68396 16.9275 7.9196 15.8476 9.22268C14.755 10.541 13.182 11.8837 11.2295 13.5476L11.5539 13.9281L11.2295 13.5476L11.2294 13.5477C10.57 14.1096 9.82053 14.7483 9.04111 15.43L9.04094 15.4301C9.02995 15.4397 9.01557 15.4453 9 15.4453C8.98444 15.4453 8.97009 15.4397 8.95913 15.4301L8.95888 15.4299C8.18003 14.7488 7.43098 14.1105 6.77232 13.5491L6.77088 13.5479L6.77087 13.5479C4.81826 11.8839 3.24507 10.5411 2.15245 9.22272C1.07251 7.9196 0.5 6.68396 0.5 5.24073C0.5 2.5213 2.36914 0.554688 4.78125 0.554688C5.64473 0.554688 6.43315 0.825877 7.13694 1.37017L7.43758 0.981431L7.13694 1.37017C7.81984 1.89832 8.28362 2.57976 8.56137 3.08737Z" stroke="#41414C"/>
</svg>
