<svg width="78" height="70" viewBox="0 0 78 70" fill="none" xmlns="http://www.w3.org/2000/svg">
<path d="M23.16 5.17993H22.0299L21.7 6.82493H23.49L23.16 5.17993Z" fill="#E42352"/>
<path d="M19.35 5.8949L18.37 6.4649L18.91 8.0549L20.46 7.1599L19.35 5.8949Z" fill="#E42352"/>
<path d="M16.41 8.42493L15.845 9.40493L17.11 10.5149L18.005 8.95993L16.41 8.42493Z" fill="#E42352"/>
<path d="M15.13 12.08V13.215L16.78 13.545V11.75L15.13 12.08Z" fill="#E42352"/>
<path d="M15.845 15.8899L16.41 16.8699L18.005 16.3299L17.11 14.7749L15.845 15.8899Z" fill="#E42352"/>
<path d="M18.37 18.8299L19.35 19.3949L20.46 18.1299L18.91 17.2349L18.37 18.8299Z" fill="#E42352"/>
<path d="M22.0299 20.1098H23.16L23.49 18.4648H21.7L22.0299 20.1098Z" fill="#E42352"/>
<path d="M25.835 19.3949L26.82 18.8299L26.28 17.2349L24.725 18.1299L25.835 19.3949Z" fill="#E42352"/>
<path d="M28.775 16.8699L29.345 15.8899L28.08 14.7749L27.185 16.3299L28.775 16.8699Z" fill="#E42352"/>
<path d="M30.06 13.215V12.08L28.415 11.75V13.545L30.06 13.215Z" fill="#E42352"/>
<path d="M29.345 9.40493L28.775 8.42493L27.185 8.95993L28.08 10.5149L29.345 9.40493Z" fill="#E42352"/>
<path d="M26.82 6.4649L25.835 5.8999L24.725 7.1599L26.28 8.0549L26.82 6.4649Z" fill="#E42352"/>
<path d="M22.595 6.75992C21.4319 6.76387 20.2961 7.11238 19.3309 7.76143C18.3658 8.41048 17.6146 9.33097 17.1722 10.4067C16.7299 11.4823 16.6162 12.665 16.8455 13.8052C17.0748 14.9455 17.6369 15.9922 18.4607 16.8133C19.2845 17.6343 20.3332 18.1928 21.4742 18.4183C22.6152 18.6437 23.7975 18.526 24.8717 18.08C25.9458 17.634 26.8638 16.8797 27.5096 15.9124C28.1553 14.945 28.5 13.808 28.5 12.6449C28.5 11.8704 28.3471 11.1035 28.0501 10.3882C27.7531 9.67289 27.3178 9.02325 26.7692 8.47651C26.2206 7.92978 25.5695 7.49671 24.8532 7.20214C24.1369 6.90757 23.3695 6.75729 22.595 6.75992ZM22.595 14.2599C22.2726 14.2599 21.9575 14.1643 21.6894 13.9852C21.4213 13.8061 21.2124 13.5515 21.0891 13.2537C20.9657 12.9559 20.9334 12.6281 20.9963 12.3119C21.0592 11.9957 21.2144 11.7053 21.4424 11.4773C21.6704 11.2494 21.9608 11.0941 22.277 11.0312C22.5932 10.9683 22.9209 11.0006 23.2188 11.124C23.5166 11.2474 23.7712 11.4563 23.9503 11.7243C24.1294 11.9924 24.225 12.3075 24.225 12.6299C24.227 12.8452 24.1863 13.0588 24.1052 13.2583C24.0242 13.4578 23.9045 13.6393 23.7529 13.7922C23.6013 13.9452 23.421 14.0666 23.2222 14.1494C23.0235 14.2323 22.8103 14.2749 22.595 14.2749V14.2599Z" fill="#C41849"/>
<path d="M22.595 9.81995C22.0362 9.81995 21.49 9.98563 21.0255 10.296C20.5609 10.6065 20.1988 11.0477 19.985 11.5639C19.7712 12.0801 19.7152 12.6481 19.8242 13.1961C19.9332 13.7441 20.2023 14.2474 20.5974 14.6425C20.9925 15.0376 21.4958 15.3067 22.0438 15.4157C22.5918 15.5247 23.1598 15.4687 23.676 15.2549C24.1922 15.0411 24.6334 14.679 24.9439 14.2144C25.2543 13.7499 25.42 13.2037 25.42 12.6449C25.42 11.8957 25.1223 11.1772 24.5925 10.6474C24.0627 10.1176 23.3442 9.81995 22.595 9.81995ZM22.595 14.0599C22.3147 14.0619 22.0401 13.9806 21.8061 13.8264C21.5721 13.6721 21.3892 13.4518 21.2806 13.1934C21.1719 12.935 21.1425 12.6502 21.1959 12.3751C21.2494 12.0999 21.3834 11.8469 21.5809 11.648C21.7784 11.4491 22.0305 11.3133 22.3052 11.2579C22.58 11.2025 22.865 11.2299 23.1241 11.3367C23.3833 11.4435 23.6049 11.6249 23.7608 11.8578C23.9167 12.0907 24 12.3647 24 12.6449C24 13.0185 23.8523 13.3769 23.5891 13.642C23.3259 13.9071 22.9685 14.0573 22.595 14.0599Z" fill="#131A26"/>
<path d="M35.33 32.375H2.41003V51.455H35.33V32.375Z" fill="#8E53D8"/>
<path d="M33.01 30.0549H0.0899658V49.1349H33.01V30.0549Z" fill="#B389EF"/>
<path d="M32.02 31.0449H1.08496V48.1499H32.02V31.0449Z" fill="#8E53D8"/>
<path d="M30.99 32.075H2.10999V47.125H30.99V32.075Z" fill="#B389EF"/>
<path d="M10.77 39.5998C10.77 38.4569 11.1088 37.3396 11.7437 36.3891C12.3786 35.4387 13.281 34.6979 14.3369 34.2603C15.3928 33.8227 16.5547 33.7079 17.6757 33.9305C18.7968 34.1531 19.8267 34.7031 20.6353 35.511C21.4438 36.3188 21.9947 37.3483 22.2183 38.4691C22.4419 39.59 22.3281 40.752 21.8914 41.8083C21.4547 42.8645 20.7146 43.7676 19.7648 44.4033C18.8149 45.039 17.6979 45.3788 16.555 45.3798C15.0215 45.3798 13.5509 44.771 12.4661 43.6872C11.3814 42.6034 10.7713 41.1332 10.77 39.5998Z" fill="#8E53D8"/>
<path d="M17.09 39.9999H16C15.78 39.9989 15.5624 39.9542 15.3598 39.8683C15.1572 39.7825 14.9737 39.6572 14.82 39.4999C14.662 39.3466 14.5363 39.1633 14.4504 38.9606C14.3645 38.7579 14.3202 38.54 14.32 38.3199C14.3253 37.8791 14.5051 37.4585 14.82 37.1501C15.1349 36.8418 15.5593 36.6709 16 36.6749H18.325V37.4999H16C15.7816 37.5012 15.5725 37.5885 15.4181 37.743C15.2637 37.8974 15.1763 38.1065 15.175 38.3249C15.1723 38.4351 15.1917 38.5448 15.2319 38.6475C15.2721 38.7502 15.3324 38.8438 15.4092 38.923C15.486 39.0021 15.5778 39.0651 15.6792 39.1084C15.7807 39.1516 15.8897 39.1742 16 39.1749H17.075L17.09 39.9999Z" fill="#B389EF"/>
<path d="M17.09 42.4999H14.77V41.6599H17.09C17.3092 41.6586 17.519 41.5706 17.6736 41.415C17.8282 41.2595 17.915 41.0492 17.915 40.8299C17.9164 40.6131 17.8319 40.4046 17.68 40.2499C17.6029 40.1714 17.5111 40.109 17.4099 40.0661C17.3086 40.0232 17.1999 40.0007 17.09 39.9999H16V39.1599H17.075C17.295 39.1609 17.5126 39.2056 17.7152 39.2914C17.9177 39.3773 18.1012 39.5025 18.255 39.6599C18.4882 39.8935 18.6469 40.1909 18.7112 40.5146C18.7755 40.8383 18.7425 41.1738 18.6162 41.4788C18.4899 41.7837 18.2762 42.0444 18.0019 42.2279C17.7275 42.4114 17.405 42.5096 17.075 42.5099L17.09 42.4999Z" fill="#B389EF"/>
<path d="M16.97 36.385H16.13V42.81H16.97V36.385Z" fill="#B389EF"/>
<path d="M32 35.7349V31.0449H27.31C27.5131 32.2147 28.0727 33.2932 28.9122 34.1327C29.7517 34.9723 30.8302 35.5319 32 35.7349Z" fill="#8E53D8"/>
<path d="M1.08496 43.4548V48.1498H5.77496C5.57284 46.9791 5.01366 45.8996 4.17404 45.059C3.33443 44.2185 2.25545 43.6582 1.08496 43.4548Z" fill="#8E53D8"/>
<path d="M1.08496 35.7349C2.25417 35.5305 3.33189 34.9704 4.17119 34.1312C5.01049 33.2919 5.57053 32.2141 5.77496 31.0449H1.08496V35.7349Z" fill="#8E53D8"/>
<path d="M27.33 48.1498H32V43.4548C30.8331 43.6619 29.7585 44.2239 28.9228 45.0641C28.0871 45.9044 27.5308 46.9819 27.33 48.1498Z" fill="#8E53D8"/>
<path d="M27.415 69.5749C26.1384 69.5723 24.9147 69.0643 24.0115 68.162C23.1082 67.2598 22.599 66.0366 22.595 64.7599V5.25994C22.599 3.98281 23.1081 2.75913 24.0111 1.85606C24.9142 0.952987 26.1379 0.443897 27.415 0.439941H55.415C56.6913 0.445215 57.9137 0.954886 58.8157 1.85781C59.7177 2.76074 60.2261 3.98368 60.23 5.25994V64.7599C60.2274 66.0361 59.7192 67.2593 58.8168 68.1617C57.9144 69.0642 56.6912 69.5723 55.415 69.5749H27.415Z" fill="#29383E"/>
<path d="M45.58 64.5949C45.5807 64.7461 45.5514 64.896 45.4938 65.0358C45.4362 65.1756 45.3516 65.3027 45.2446 65.4096C45.1377 65.5165 45.0107 65.6012 44.8709 65.6587C44.731 65.7163 44.5812 65.7456 44.43 65.7449H38.385C38.0804 65.7436 37.7886 65.622 37.5733 65.4067C37.3579 65.1913 37.2363 64.8995 37.235 64.5949V64.0949C37.2363 63.7899 37.3577 63.4976 37.573 63.2814C37.7882 63.0653 38.0799 62.9426 38.385 62.9399H44.43C44.7354 62.9413 45.0279 63.0635 45.2435 63.28C45.459 63.4965 45.58 63.7895 45.58 64.0949V64.5949Z" fill="#3F5E69"/>
<path d="M42.885 5.64494C42.886 5.93709 42.8002 6.22295 42.6385 6.46628C42.4768 6.70961 42.2465 6.89944 41.9768 7.01169C41.707 7.12395 41.4101 7.15358 41.1235 7.09683C40.8369 7.04008 40.5736 6.89949 40.367 6.69291C40.1604 6.48633 40.0199 6.22305 39.9631 5.93646C39.9063 5.64988 39.936 5.35289 40.0482 5.08317C40.1605 4.81344 40.3503 4.58313 40.5936 4.42143C40.837 4.25974 41.1228 4.17395 41.415 4.17494C41.6082 4.17427 41.7997 4.21185 41.9783 4.28549C42.157 4.35913 42.3193 4.46738 42.4559 4.60402C42.5925 4.74065 42.7008 4.90297 42.7744 5.08161C42.8481 5.26026 42.8857 5.45171 42.885 5.64494Z" fill="#3F5E69"/>
<path d="M42.06 5.64493C42.062 5.73088 42.0468 5.81637 42.0152 5.89636C41.9837 5.97636 41.9365 6.04925 41.8764 6.11074C41.8163 6.17223 41.7446 6.22108 41.6653 6.25443C41.5861 6.28778 41.5009 6.30495 41.415 6.30492C41.3238 6.31288 41.232 6.30179 41.1453 6.27237C41.0587 6.24294 40.9791 6.19581 40.9116 6.13398C40.8442 6.07215 40.7903 5.99697 40.7534 5.91321C40.7166 5.82945 40.6976 5.73893 40.6976 5.64742C40.6976 5.55591 40.7166 5.4654 40.7534 5.38164C40.7903 5.29788 40.8442 5.2227 40.9116 5.16087C40.9791 5.09904 41.0587 5.05191 41.1453 5.02248C41.232 4.99305 41.3238 4.98197 41.415 4.98993C41.5003 4.99058 41.5847 5.00804 41.6633 5.04131C41.7419 5.07458 41.8132 5.12301 41.8731 5.18384C41.933 5.24466 41.9803 5.31669 42.0124 5.3958C42.0445 5.47491 42.0606 5.55957 42.06 5.64493Z" fill="#29383E"/>
<path d="M57.495 10.8799H25.325V59.1299H57.495V10.8799Z" fill="#FD4062"/>
<path d="M53.41 24.8799H50.745V32.8599H53.41V24.8799Z" fill="white"/>
<path d="M42.745 24.8799V19.5649H40.08V24.8799H34.745V27.5449H48.08V24.8799H42.745Z" fill="white"/>
<path d="M37.395 22.2299V19.5649H29.415V27.5449H32.08V22.2299H37.395Z" fill="white"/>
<path d="M53.41 35.53H50.745V40.86H45.425V43.525H50.745V48.86H53.41V35.53Z" fill="white"/>
<path d="M42.745 46.19V40.875H40.08V46.19H34.745V48.86H48.08V46.19H42.745Z" fill="white"/>
<path d="M32.085 46.1899H29.415V48.8549H32.085V46.1899Z" fill="white"/>
<path d="M53.41 19.5649H45.41V22.2299H53.41V19.5649Z" fill="white"/>
<path d="M42.745 38.195H48.08V30.21H34.745V38.195H40.08V35.53H37.41V32.88H45.41V35.53H42.745V38.195Z" fill="white"/>
<path d="M32.08 40.86V30.21H29.415V43.525H37.41V40.86H32.08Z" fill="white"/>
<path d="M57.69 17.5449L58.95 24.5899L77.91 11.0549L57.69 17.5449Z" fill="#D9D8D7"/>
<path d="M59.685 18.7099L66.97 22.9799L77.91 11.0549L59.685 18.7099Z" fill="#E6E5E5"/>
<path d="M53.25 14.9449L57.69 17.5449L77.91 11.0549L53.25 14.9449Z" fill="#E6E5E5"/>
<path d="M58.95 24.59L59.685 18.71L63.81 21.125L58.95 24.59Z" fill="#CCCBCA"/>
<path d="M57.84 33.1199C57.7923 33.1178 57.7467 33.1002 57.71 33.0699C57.6754 33.0344 57.6561 32.9869 57.6561 32.9374C57.6561 32.8879 57.6754 32.8404 57.71 32.8049L58.335 32.1249C58.3696 32.0907 58.4163 32.0715 58.465 32.0715C58.5136 32.0715 58.5603 32.0907 58.595 32.1249C58.6295 32.1604 58.6488 32.2079 58.6488 32.2574C58.6488 32.3069 58.6295 32.3544 58.595 32.3899L58 33.0549C57.9806 33.0779 57.9559 33.0959 57.928 33.1072C57.9001 33.1186 57.8699 33.1229 57.84 33.1199Z" fill="#242D3C"/>
<path d="M59.825 30.9499C59.8019 30.9503 59.7789 30.946 59.7575 30.9374C59.736 30.9288 59.7165 30.9161 59.7 30.8999C59.6658 30.8653 59.6466 30.8186 59.6466 30.7699C59.6466 30.7213 59.6658 30.6746 59.7 30.6399L61.065 29.1399C61.0996 29.1057 61.1463 29.0866 61.195 29.0866C61.2437 29.0866 61.2904 29.1057 61.325 29.1399C61.3595 29.1754 61.3788 29.2229 61.3788 29.2724C61.3788 29.3219 61.3595 29.3695 61.325 29.4049L59.965 30.9049C59.926 30.9376 59.8757 30.9538 59.825 30.9499ZM62.555 27.9499C62.5188 27.9506 62.4832 27.9407 62.4525 27.9214C62.4219 27.902 62.3976 27.8741 62.3827 27.8411C62.3678 27.8081 62.3629 27.7714 62.3687 27.7357C62.3744 27.6999 62.3905 27.6666 62.415 27.6399L63.78 26.1399C63.7964 26.1219 63.8162 26.1072 63.8383 26.0968C63.8604 26.0864 63.8843 26.0805 63.9086 26.0793C63.933 26.0782 63.9574 26.0818 63.9804 26.0901C64.0033 26.0983 64.0244 26.111 64.0425 26.1274C64.0605 26.1438 64.0752 26.1637 64.0856 26.1857C64.096 26.2078 64.1019 26.2317 64.1031 26.2561C64.1043 26.2805 64.1006 26.3048 64.0924 26.3278C64.0841 26.3508 64.0714 26.3719 64.055 26.3899L62.69 27.8899C62.679 27.9185 62.6608 27.9436 62.6371 27.9629C62.6135 27.9822 62.5851 27.995 62.555 27.9999V27.9499Z" fill="#242D3C"/>
<path d="M65.285 24.9999C65.2374 24.9977 65.1917 24.9802 65.155 24.9499C65.1204 24.9144 65.1011 24.8668 65.1011 24.8174C65.1011 24.7679 65.1204 24.7203 65.155 24.6849L65.78 24.0098C65.7968 23.9923 65.8169 23.9783 65.8393 23.9688C65.8616 23.9593 65.8857 23.9543 65.91 23.9543C65.9343 23.9543 65.9583 23.9593 65.9806 23.9688C66.003 23.9783 66.0232 23.9923 66.04 24.0098C66.0745 24.0453 66.0938 24.0929 66.0938 24.1424C66.0938 24.1918 66.0745 24.2394 66.04 24.2749L65.415 24.9549C65.3793 24.9865 65.3325 25.0027 65.285 24.9999Z" fill="#242D3C"/>
<path d="M51.46 15.4149C51.4153 15.4143 51.3722 15.3979 51.3383 15.3687C51.3045 15.3394 51.2821 15.2991 51.275 15.2549C51.2678 15.2065 51.2801 15.1573 51.3092 15.1179C51.3382 15.0786 51.3817 15.0523 51.43 15.0449L52.34 14.8999C52.3644 14.8949 52.3896 14.895 52.414 14.9002C52.4383 14.9054 52.4613 14.9157 52.4815 14.9302C52.5017 14.9448 52.5187 14.9634 52.5314 14.9849C52.544 15.0063 52.5521 15.0302 52.555 15.0549C52.5623 15.1039 52.5501 15.1538 52.5212 15.1939C52.4922 15.2341 52.4488 15.2613 52.4 15.2699L51.49 15.4149H51.46Z" fill="#242D3C"/>
<path d="M43.41 16.6849C43.3652 16.6843 43.3221 16.6679 43.2883 16.6386C43.2545 16.6093 43.232 16.5691 43.225 16.5249C43.2178 16.4765 43.2301 16.4272 43.2591 16.3879C43.2882 16.3485 43.3316 16.3223 43.38 16.3149L45.38 15.9949C45.4043 15.9906 45.4292 15.9913 45.4533 15.9968C45.4774 16.0023 45.5001 16.0126 45.5202 16.027C45.5402 16.0415 45.5571 16.0598 45.57 16.0809C45.5828 16.102 45.5913 16.1255 45.595 16.1499C45.6022 16.1989 45.5901 16.2487 45.5611 16.2889C45.5322 16.329 45.4887 16.3563 45.44 16.3649L43.44 16.6799L43.41 16.6849ZM47.435 16.0499C47.3902 16.0493 47.3471 16.0329 47.3133 16.0036C47.2795 15.9743 47.257 15.9341 47.25 15.8899C47.2428 15.8415 47.2551 15.7922 47.2841 15.7529C47.3132 15.7135 47.3566 15.6873 47.405 15.6799L49.405 15.3649C49.4287 15.3599 49.4532 15.3598 49.477 15.3648C49.5008 15.3697 49.5232 15.3796 49.543 15.3937C49.5627 15.4078 49.5793 15.4258 49.5917 15.4467C49.6041 15.4676 49.612 15.4908 49.615 15.5149C49.6222 15.5639 49.6101 15.6137 49.5811 15.6539C49.5522 15.694 49.5087 15.7213 49.46 15.7299L47.46 16.0449L47.435 16.0499Z" fill="#242D3C"/>
<path d="M40.5 17.1449C40.4509 17.1489 40.4023 17.1332 40.3648 17.1013C40.3273 17.0695 40.304 17.024 40.3 16.9749C40.296 16.9258 40.3117 16.8772 40.3436 16.8397C40.3754 16.8022 40.4209 16.7789 40.47 16.7749L41.38 16.6299C41.4044 16.6249 41.4296 16.625 41.4539 16.6302C41.4783 16.6354 41.5013 16.6456 41.5215 16.6602C41.5417 16.6748 41.5587 16.6934 41.5713 16.7149C41.584 16.7363 41.592 16.7602 41.595 16.7849C41.6022 16.8339 41.5901 16.8837 41.5612 16.9239C41.5322 16.9641 41.4887 16.9913 41.44 16.9999L40.53 17.1449H40.5Z" fill="#242D3C"/>
<path d="M66.23 66.7349H52.66V69.5699H66.23V66.7349Z" fill="#FFCA40"/>
<path d="M66.23 66.4548H52.66V69.2898H66.23V66.4548Z" fill="#FFD85C"/>
<path d="M62.015 63.615H48.445V66.45H62.015V63.615Z" fill="#FFBB33"/>
<path d="M62.015 63.335H48.445V66.17H62.015V63.335Z" fill="#FFCA40"/>
<path d="M65.035 60.5H51.465V63.335H65.035V60.5Z" fill="#FFCA40"/>
<path d="M65.035 60.2148H51.465V63.0499H65.035V60.2148Z" fill="#FFD85C"/>
<path d="M65.46 57.3799H51.89V60.2149H65.46V57.3799Z" fill="#FFCA40"/>
<path d="M65.46 57.095H51.89V59.93H65.46V57.095Z" fill="#FFBB33"/>
<path d="M64.24 54.26H50.67V57.095H64.24V54.26Z" fill="#FFBB33"/>
<path d="M64.24 53.98H50.67V56.815H64.24V53.98Z" fill="#FFCA40"/>
<path d="M64.96 51.145H51.39V53.98H64.96V51.145Z" fill="#FFBB33"/>
<path d="M64.96 50.855H51.39V53.69H64.96V50.855Z" fill="#FFCA40"/>
<path d="M63.94 48.0249H50.37V50.8549H63.94V48.0249Z" fill="#FFCA40"/>
<path d="M63.94 47.74H50.37V50.575H63.94V47.74Z" fill="#FFD85C"/>
<path d="M77.305 62.4999C77.305 63.842 76.9069 65.154 76.1612 66.2699C75.4154 67.3858 74.3554 68.2555 73.1153 68.7688C71.8752 69.2822 70.5108 69.4163 69.1945 69.1541C67.8782 68.8919 66.6692 68.2452 65.7205 67.2958C64.7718 66.3464 64.126 65.137 63.8648 63.8205C63.6035 62.504 63.7386 61.1396 64.2529 59.8999C64.7672 58.6602 65.6376 57.6008 66.7541 56.8559C67.8705 56.111 69.1828 55.7139 70.525 55.7148C72.3236 55.7162 74.0481 56.4316 75.3195 57.7039C76.5908 58.9762 77.305 60.7012 77.305 62.4999Z" fill="#FFBB33"/>
<path d="M75.945 62.5C75.945 63.5731 75.6267 64.6222 75.0304 65.5144C74.4341 66.4067 73.5865 67.102 72.5949 67.5125C71.6034 67.9229 70.5123 68.0301 69.4598 67.8203C68.4073 67.6106 67.4407 67.0934 66.6822 66.3342C65.9237 65.575 65.4074 64.6079 65.1987 63.5553C64.9899 62.5026 65.0981 61.4116 65.5094 60.4204C65.9208 59.4292 66.6169 58.5823 67.5097 57.9868C68.4025 57.3913 69.4519 57.074 70.525 57.075C71.2372 57.075 71.9424 57.2153 72.6003 57.488C73.2582 57.7607 73.856 58.1604 74.3593 58.6642C74.8627 59.168 75.2618 59.7661 75.5339 60.4243C75.806 61.0824 75.9457 61.7878 75.945 62.5Z" fill="#FFD85C"/>
<path d="M71.095 62.9349H69.95C69.4792 62.9322 69.0285 62.7437 68.696 62.4103C68.3636 62.0769 68.1763 61.6257 68.175 61.1549C68.175 60.6841 68.362 60.2326 68.6949 59.8998C69.0277 59.5669 69.4792 59.3799 69.95 59.3799H72.42V60.2749H69.95C69.718 60.2758 69.4955 60.3673 69.33 60.5299C69.2473 60.6116 69.1817 60.7089 69.1371 60.8162C69.0925 60.9235 69.0696 61.0387 69.07 61.1549C69.0713 61.3883 69.1643 61.6119 69.3289 61.7775C69.4935 61.943 69.7165 62.0373 69.95 62.0399H71.095V62.9349Z" fill="#FFBB33"/>
<path d="M71.095 65.5899H68.625V64.6949H71.095C71.2109 64.6963 71.326 64.6744 71.4333 64.6307C71.5407 64.5869 71.6383 64.5222 71.7202 64.4402C71.8022 64.3582 71.867 64.2606 71.9107 64.1533C71.9545 64.0459 71.9763 63.9309 71.975 63.8149C71.9724 63.5823 71.8789 63.36 71.7144 63.1955C71.5499 63.0311 71.3276 62.9375 71.095 62.9349H69.95V62.0399H71.095C71.563 62.0341 72.0142 62.2139 72.35 62.5399C72.513 62.7051 72.6413 62.9012 72.7272 63.1168C72.813 63.3323 72.8548 63.5629 72.85 63.7949C72.85 64.028 72.8041 64.2588 72.7149 64.4742C72.6257 64.6896 72.4949 64.8852 72.3301 65.05C72.1653 65.2149 71.9696 65.3456 71.7543 65.4348C71.5389 65.524 71.3081 65.5699 71.075 65.5699L71.095 65.5899Z" fill="#FFBB33"/>
<path d="M70.97 59.0698H70.075V65.9048H70.97V59.0698Z" fill="#FFBB33"/>
</svg>
