<svg width="20" height="20" viewBox="0 0 20 20" fill="none" xmlns="http://www.w3.org/2000/svg">
<path d="M14.2071 5.52417C13.0667 5.76228 11.8449 5.90324 10.5859 5.93676V9.41399H14.7072C14.6692 8.04438 14.4984 6.72763 14.2071 5.52417Z" fill="white"/>
<path d="M4.1202 9.41382C4.15884 7.95201 4.34175 6.54126 4.65522 5.24639C3.62866 4.95823 2.68941 4.58569 1.87486 4.13794C0.759228 5.67741 0.109974 7.49458 0 9.41382H4.1202Z" fill="white"/>
<path d="M4.1202 10.5859H0C0.109974 12.5052 0.759228 14.3223 1.87483 15.8618C2.68937 15.4141 3.62866 15.0415 4.65522 14.7534C4.34175 13.4585 4.1588 12.0477 4.1202 10.5859Z" fill="white"/>
<path d="M11.6852 0.677248C11.3269 0.374127 10.959 0.169924 10.5861 0.0651855V4.76463C11.7368 4.7326 12.85 4.60641 13.8878 4.39545C13.6973 3.81335 13.476 3.26661 13.2248 2.76432C12.7736 1.86196 12.2556 1.15973 11.6852 0.677248Z" fill="white"/>
<path d="M4.97013 15.8801C4.11226 16.1211 3.32389 16.4248 2.63135 16.7857C2.72433 16.8865 2.81903 16.986 2.91654 17.0836C4.04311 18.2102 5.39077 19.0352 6.86168 19.5185C6.44964 19.0315 6.06858 18.4433 5.7269 17.76C5.43777 17.1817 5.18488 16.5514 4.97013 15.8801Z" fill="white"/>
<path d="M6.77527 2.76432C6.52415 3.26661 6.30276 3.81335 6.1123 4.39545C7.15008 4.60641 8.2633 4.7326 9.41402 4.76463V0.0651855C9.04105 0.169963 8.67315 0.374127 8.31483 0.677248C7.74445 1.15973 7.2265 1.86196 6.77527 2.76432Z" fill="white"/>
<path d="M15.8798 10.5859C15.8411 12.0477 15.6582 13.4585 15.3447 14.7534C16.3713 15.0415 17.3106 15.4141 18.1251 15.8618C19.2407 14.3223 19.89 12.5052 20 10.5859H15.8798Z" fill="white"/>
<path d="M15.0298 4.12004C15.8876 3.87911 16.676 3.57533 17.3685 3.21447C17.2755 3.11371 17.1809 3.01413 17.0833 2.91662C15.9568 1.79008 14.6091 0.965026 13.1382 0.481689C13.5502 0.968699 13.9313 1.55685 14.273 2.24017C14.5621 2.81844 14.815 3.44883 15.0298 4.12004Z" fill="white"/>
<path d="M13.2247 17.2357C13.4758 16.7334 13.6972 16.1866 13.8877 15.6045C12.8499 15.3936 11.7367 15.2674 10.5859 15.2354V19.9348C10.9589 19.8301 11.3268 19.6259 11.6851 19.3227C12.2555 18.8403 12.7735 18.1381 13.2247 17.2357Z" fill="white"/>
<path d="M15.3447 5.24659C15.6582 6.54147 15.8411 7.95222 15.8798 9.41403H20C19.89 7.49478 19.2407 5.67762 18.1251 4.13818C17.3106 4.58589 16.3713 4.95843 15.3447 5.24659Z" fill="white"/>
<path d="M10.5859 10.5859V14.0632C11.8449 14.0967 13.0667 14.2376 14.2071 14.4758C14.4984 13.2723 14.6692 11.9555 14.7072 10.5859H10.5859Z" fill="white"/>
<path d="M9.4139 9.41399V5.93676C8.15489 5.90324 6.93314 5.76228 5.7927 5.52417C5.50145 6.72767 5.33058 8.04438 5.2926 9.41399H9.4139Z" fill="white"/>
<path d="M4.97013 4.12004C5.18485 3.44879 5.43777 2.81844 5.7269 2.24017C6.06858 1.55685 6.44964 0.96866 6.86168 0.481689C5.39081 0.965026 4.04311 1.79008 2.91654 2.91666C2.81903 3.01417 2.72433 3.11375 2.63135 3.2145C3.32389 3.57533 4.11226 3.87911 4.97013 4.12004Z" fill="white"/>
<path d="M15.0299 15.8801C14.8151 16.5514 14.5622 17.1817 14.2731 17.76C13.9314 18.4433 13.5503 19.0315 13.1383 19.5185C14.6092 19.0352 15.9569 18.2102 17.0834 17.0836C17.181 16.9861 17.2757 16.8865 17.3686 16.7857C16.6761 16.4248 15.8877 16.1211 15.0299 15.8801Z" fill="white"/>
<path d="M9.4139 10.5859H5.2926C5.33058 11.9556 5.50145 13.2723 5.7927 14.4758C6.9331 14.2376 8.15489 14.0967 9.4139 14.0632V10.5859Z" fill="white"/>
<path d="M8.31483 19.323C8.67315 19.6261 9.04109 19.8303 9.41402 19.935V15.2356C8.2633 15.2676 7.15008 15.3938 6.1123 15.6048C6.30276 16.1869 6.52411 16.7337 6.77527 17.2359C7.2265 18.1383 7.74445 18.8405 8.31483 19.323Z" fill="white"/>
</svg>
