<svg width="79" height="79" viewBox="0 0 79 79" fill="none" xmlns="http://www.w3.org/2000/svg">
<path d="M1.8282 22.064L4.30688 22.923C3.22564 26.1006 2.65721 29.4302 2.62295 32.7866H0C0.0343093 29.1378 0.65149 25.518 1.8282 22.064Z" fill="white"/>
<path d="M1.8033 28.871C1.07899 28.871 0.491821 28.2838 0.491821 27.5595C0.491821 26.8352 1.07899 26.248 1.8033 26.248C2.5276 26.248 3.11477 26.8352 3.11477 27.5595C3.11477 28.2838 2.5276 28.871 1.8033 28.871Z" fill="#FC003D"/>
<path d="M0 32.7867C0 59.5473 30.4393 74.9178 51.9502 59.365L69.7298 77.1421C71.038 78.5391 73.0033 79.1128 74.8576 78.639C76.7119 78.1652 78.1611 76.7191 78.6388 74.8658C79.1165 73.0125 78.547 71.046 77.1528 69.7349L59.3652 51.9499C67.657 40.4768 67.643 24.9759 59.3303 13.5178C51.0177 2.05979 36.2865 -2.76407 22.8066 1.55782C12.9929 4.74035 5.23044 12.3262 1.82295 22.064C1.68969 22.3944 1.70354 22.7658 1.86103 23.0853C2.01852 23.4048 2.30471 23.642 2.64787 23.7375C3.32698 23.9296 4.04187 23.5798 4.30689 22.9257C9.46853 8.14995 25.0924 -0.204783 40.247 3.70696C55.4016 7.6187 65.0299 22.4915 62.3953 37.9196C59.7607 53.3476 45.7424 64.1824 30.1484 62.8433C14.5545 61.5041 2.58864 48.438 2.62295 32.7867C2.62295 32.0624 2.03578 31.4752 1.31148 31.4752C0.587168 31.4752 0 32.0624 0 32.7867ZM66.0026 62.2949L62.2951 66.0011L58.5902 62.2949L62.2951 58.5886L66.0026 62.2949ZM75.2944 75.3008C74.2598 76.2932 72.6267 76.2932 71.5921 75.3008L64.1508 67.8555L67.857 64.1493L75.2984 71.5893C76.3158 72.6179 76.314 74.2743 75.2944 75.3008ZM57.7338 54.0326L60.442 56.7395L56.7344 60.4404L54.0328 57.7336C55.362 56.5992 56.5995 55.3617 57.7338 54.0326Z" fill="#FC003D"/>
<path d="M57.7049 32.7867C57.7049 33.511 58.2921 34.0982 59.0164 34.0982C59.7407 34.0982 60.3278 33.511 60.3278 32.7867C60.3222 18.2571 49.0262 6.23311 34.5252 5.32119C20.0243 4.40926 7.31093 14.9234 5.4851 29.3379C3.65927 43.7523 13.3496 57.1042 27.62 59.8367C41.8903 62.5691 55.8275 53.7413 59.4557 39.672C59.6189 38.9778 59.1975 38.2803 58.507 38.102C57.8165 37.9237 57.11 38.3298 56.9167 39.0162C53.6344 51.7572 41.0156 59.7537 28.093 57.2819C15.1703 54.81 6.39349 42.7209 8.04502 29.6681C9.69655 16.6152 21.2078 7.0931 34.3388 7.91773C47.4699 8.74237 57.6993 19.6298 57.7049 32.7867Z" fill="#FC003D"/>
<path d="M36.7212 37.4333C43.1389 35.415 46.9886 28.8679 45.6322 22.2785C44.2758 15.689 38.1533 11.1946 31.4602 11.8751C24.7671 12.5556 19.6744 18.1903 19.672 24.9179C19.672 27.0908 21.4335 28.8523 23.6064 28.8523C25.7793 28.8523 27.5408 27.0908 27.5408 24.9179C27.5386 23.5124 28.1012 22.165 29.1022 21.1785C30.1033 20.192 31.4588 19.6491 32.8641 19.672C35.6799 19.7645 37.9409 22.026 38.0327 24.8418C38.0767 27.5195 36.0928 29.7988 33.4346 30.1245C30.8152 30.4526 28.8504 32.6806 28.8523 35.3205V39.3441C28.8523 41.517 30.6138 43.2785 32.7868 43.2785C34.9597 43.2785 36.7212 41.517 36.7212 39.3441V37.4333ZM35.1212 35.1474C34.5233 35.2822 34.0985 35.8132 34.0982 36.4261V39.3441C34.0982 40.0684 33.5111 40.6556 32.7868 40.6556C32.0624 40.6556 31.4753 40.0684 31.4753 39.3441V35.3205C31.4721 34.0057 32.4489 32.8945 33.7533 32.729C37.7418 32.2413 40.7195 28.8228 40.6556 24.8051C40.5213 20.5855 37.1372 17.1933 32.9179 17.049C30.8083 17.0139 28.773 17.8274 27.2688 19.3069C25.7646 20.7864 24.9176 22.808 24.9179 24.9179C24.9179 25.6422 24.3307 26.2294 23.6064 26.2294C22.8821 26.2294 22.2949 25.6422 22.2949 24.9179C22.2537 19.1234 26.9175 14.3926 32.712 14.3513C38.5065 14.3101 43.2373 18.9739 43.2786 24.7684C43.3353 29.7148 39.9409 34.0337 35.1212 35.1474Z" fill="#FC003D"/>
<path d="M32.7868 45.9014C30.6139 45.9014 28.8524 47.6629 28.8524 49.8358C28.8524 52.0087 30.6139 53.7702 32.7868 53.7702C34.9598 53.7702 36.7213 52.0087 36.7213 49.8358C36.7213 47.6629 34.9598 45.9014 32.7868 45.9014ZM32.7868 51.1473C32.0625 51.1473 31.4754 50.5601 31.4754 49.8358C31.4754 49.1115 32.0625 48.5243 32.7868 48.5243C33.5111 48.5243 34.0983 49.1115 34.0983 49.8358C34.0983 50.5601 33.5111 51.1473 32.7868 51.1473Z" fill="#FC003D"/>
</svg>
