<svg width="84" height="69" viewBox="0 0 84 69" fill="none" xmlns="http://www.w3.org/2000/svg">
<path d="M63.96 24.7151H0.5V56.4451H63.96V24.7151Z" fill="#3F5E69"/>
<path d="M60.7901 26.405H3.67505V29.79H60.7901V26.405Z" fill="#CCCBCA"/>
<path d="M60.7901 28.1001H3.67505V29.7901H60.7901V28.1001Z" fill="white"/>
<path d="M30.6451 0H3.67505V46.535H30.6451V0Z" fill="#B389EF"/>
<path d="M29.255 1.40002H5.07495V45.13H29.255V1.40002Z" fill="#8E53D8"/>
<path d="M27.8 2.85498H6.52502V43.68H27.8V2.85498Z" fill="#B389EF"/>
<path d="M17.16 31.4401C15.5431 31.4401 13.9626 30.9606 12.6182 30.0624C11.2738 29.1641 10.226 27.8873 9.60727 26.3935C8.98853 24.8997 8.82664 23.256 9.14207 21.6702C9.4575 20.0844 10.2361 18.6278 11.3794 17.4845C12.5227 16.3412 13.9793 15.5626 15.5651 15.2472C17.1509 14.9317 18.7946 15.0936 20.2884 15.7124C21.7822 16.3311 23.059 17.3789 23.9573 18.7233C24.8555 20.0677 25.335 21.6482 25.335 23.2651C25.335 25.4332 24.4737 27.5126 22.9406 29.0457C21.4075 30.5788 19.3281 31.4401 17.16 31.4401Z" fill="#8E53D8"/>
<path d="M16.645 24.115V22.47C16.645 21.8256 16.901 21.2075 17.3568 20.7518C17.8125 20.2961 18.4305 20.04 19.075 20.04C19.7195 20.04 20.3376 20.2961 20.7933 20.7518C21.249 21.2075 21.505 21.8256 21.505 22.47V25.52C21.505 25.656 21.451 25.7863 21.3549 25.8824C21.2588 25.9785 21.1284 26.0325 20.9925 26.0325C20.8566 26.0325 20.7262 25.9785 20.6301 25.8824C20.534 25.7863 20.48 25.656 20.48 25.52V22.47C20.4808 22.2846 20.445 22.1008 20.3746 21.9292C20.3043 21.7576 20.2008 21.6016 20.07 21.47C19.873 21.2743 19.6223 21.1414 19.3498 21.0881C19.0772 21.0348 18.795 21.0635 18.5387 21.1705C18.2824 21.2775 18.0636 21.458 17.9099 21.6893C17.7561 21.9206 17.6744 22.1923 17.675 22.47V24.115C17.675 24.2516 17.6208 24.3826 17.5242 24.4792C17.4276 24.5758 17.2966 24.63 17.16 24.63C17.0234 24.63 16.8924 24.5758 16.7959 24.4792C16.6993 24.3826 16.645 24.2516 16.645 24.115Z" fill="#B389EF"/>
<path d="M12.8051 24.115V21.065C12.8051 20.9285 12.8593 20.7975 12.9559 20.7009C13.0525 20.6043 13.1835 20.55 13.3201 20.55C13.4566 20.55 13.5876 20.6043 13.6842 20.7009C13.7808 20.7975 13.8351 20.9285 13.8351 21.065V24.115C13.8335 24.3938 13.9148 24.6667 14.0688 24.8991C14.2227 25.1315 14.4423 25.3128 14.6996 25.42C14.957 25.5272 15.2403 25.5555 15.5138 25.5012C15.7872 25.4469 16.0382 25.3125 16.2351 25.115C16.3662 24.9838 16.4701 24.8279 16.5404 24.6562C16.6108 24.4845 16.6464 24.3006 16.6451 24.115V22.47C16.6451 22.3335 16.6993 22.2025 16.7959 22.1059C16.8925 22.0093 17.0235 21.955 17.1601 21.955C17.2966 21.955 17.4276 22.0093 17.5242 22.1059C17.6208 22.2025 17.6751 22.3335 17.6751 22.47V24.115C17.6751 24.7608 17.4185 25.3802 16.9619 25.8369C16.5052 26.2935 15.8859 26.55 15.2401 26.55C14.5943 26.55 13.9749 26.2935 13.5182 25.8369C13.0616 25.3802 12.8051 24.7608 12.8051 24.115Z" fill="#B389EF"/>
<path d="M11.71 23.2649C11.71 23.1323 11.7626 23.0051 11.8564 22.9113C11.9502 22.8176 12.0774 22.7649 12.21 22.7649H22.095C22.2276 22.7649 22.3548 22.8176 22.4485 22.9113C22.5423 23.0051 22.595 23.1323 22.595 23.2649C22.595 23.3975 22.5423 23.5247 22.4485 23.6184C22.3548 23.7122 22.2276 23.7649 22.095 23.7649H12.25C12.181 23.7704 12.1117 23.7616 12.0463 23.739C11.981 23.7163 11.921 23.6804 11.8703 23.6334C11.8195 23.5864 11.7791 23.5294 11.7515 23.4659C11.7239 23.4025 11.7097 23.3341 11.71 23.2649Z" fill="#B389EF"/>
<path d="M11.7 1.40002H5.07495V8.03003C6.72846 7.74376 8.25287 6.95285 9.43902 5.7658C10.6252 4.57876 11.4149 3.05375 11.7 1.40002Z" fill="#8E53D8"/>
<path d="M22.615 45.1151H29.25V38.5051C27.5986 38.791 26.0755 39.5791 24.8882 40.7619C23.7009 41.9447 22.9071 43.4648 22.615 45.1151Z" fill="#06B2B8"/>
<path d="M11.7 45.1151C11.4129 43.4623 10.6224 41.9384 9.43665 40.7517C8.25086 39.565 6.72758 38.7734 5.07495 38.4851V45.1151H11.7Z" fill="#06B2B8"/>
<path d="M29.25 8.03003V1.40002H22.615C22.9027 3.05426 23.6946 4.57915 24.8823 5.76598C26.07 6.95281 27.5955 7.74358 29.25 8.03003Z" fill="#8E53D8"/>
<path d="M63.96 29.79H0.5V56.445H63.96V29.79Z" fill="#29383E"/>
<path d="M12.32 37.4051C12.321 38.0333 12.1356 38.6476 11.7873 39.1704C11.439 39.6932 10.9435 40.1009 10.3635 40.342C9.78339 40.5831 9.14485 40.6467 8.52863 40.5247C7.91241 40.4028 7.34621 40.1008 6.90168 39.6569C6.45715 39.2131 6.15426 38.6474 6.03135 38.0314C5.90843 37.4153 5.97101 36.7767 6.21117 36.1962C6.45134 35.6158 6.85828 35.1196 7.38052 34.7705C7.90275 34.4214 8.5168 34.2351 9.14497 34.2351C9.98617 34.2351 10.793 34.5689 11.3883 35.1633C11.9836 35.7576 12.3186 36.5639 12.32 37.4051Z" fill="#FFD85C"/>
<path d="M11.685 37.4051C11.686 37.9077 11.5378 38.3993 11.2593 38.8176C10.9808 39.236 10.5845 39.5623 10.1205 39.7553C9.65642 39.9483 9.14556 39.9994 8.65252 39.9019C8.15948 39.8045 7.70643 39.563 7.3507 39.2079C6.99497 38.8529 6.75257 38.4003 6.65415 37.9075C6.55574 37.4146 6.60575 36.9037 6.79785 36.4393C6.98995 35.9748 7.3155 35.5779 7.73331 35.2985C8.15112 35.0192 8.6424 34.8701 9.14498 34.8701C9.81776 34.8701 10.4631 35.137 10.9393 35.6123C11.4155 36.0876 11.6837 36.7323 11.685 37.4051Z" fill="#FFBB33"/>
<path d="M30.6451 37.405H3.67505V53.27H30.6451V37.405Z" fill="#3F5E69"/>
<path d="M60.785 37.405H33.8149V53.27H60.785V37.405Z" fill="#3F5E69"/>
<path fill-rule="evenodd" clip-rule="evenodd" d="M59.4649 32.3301H35.1349C34.7844 32.3314 34.4487 32.4716 34.2013 32.7199C33.9539 32.9683 33.8149 33.3045 33.8149 33.6551V36.1901H60.8149V33.6501C60.8136 33.2995 60.6734 32.9638 60.4251 32.7164C60.1768 32.469 59.8405 32.3301 59.4899 32.3301H59.4649Z" fill="#FD4062"/>
<path fill-rule="evenodd" clip-rule="evenodd" d="M59.4649 34.8701H35.1349C34.9621 34.869 34.7907 34.9025 34.631 34.9686C34.4713 35.0347 34.3264 35.1321 34.2049 35.2551C34.0813 35.3774 33.9832 35.5231 33.9163 35.6836C33.8493 35.8441 33.8149 36.0162 33.8149 36.1901V37.4051H60.8149V36.1901C60.815 36.0162 60.7805 35.8441 60.7136 35.6836C60.6467 35.5231 60.5485 35.3774 60.4249 35.2551C60.2998 35.1287 60.15 35.0293 59.9849 34.963C59.8198 34.8968 59.6428 34.8652 59.4649 34.8701Z" fill="white"/>
<path fill-rule="evenodd" clip-rule="evenodd" d="M14.6201 36.19V40.6151C14.6048 40.9578 14.6592 41.3 14.7799 41.6211C14.9005 41.9422 15.085 42.2356 15.3221 42.4835C15.5592 42.7314 15.8441 42.9287 16.1596 43.0634C16.475 43.1982 16.8145 43.2677 17.1576 43.2677C17.5006 43.2677 17.8401 43.1982 18.1555 43.0634C18.471 42.9287 18.7559 42.7314 18.993 42.4835C19.2301 42.2356 19.4146 41.9422 19.5352 41.6211C19.6559 41.3 19.7103 40.9578 19.6951 40.6151V36.175L14.6201 36.19Z" fill="white"/>
<path d="M17.16 41.5799C17.6846 41.5799 18.11 41.1546 18.11 40.6299C18.11 40.1053 17.6846 39.6799 17.16 39.6799C16.6353 39.6799 16.21 40.1053 16.21 40.6299C16.21 41.1546 16.6353 41.5799 17.16 41.5799Z" fill="#29383E"/>
<path d="M14.62 56.4451H3.67505V59.6201H14.62V56.4451Z" fill="#FD4062"/>
<path d="M12.955 57.7151H5.33997V58.3501H12.955V57.7151Z" fill="white"/>
<path fill-rule="evenodd" clip-rule="evenodd" d="M81.135 42.845C81.3805 42.8443 81.6237 42.8923 81.8506 42.9861C82.0775 43.0799 82.2836 43.2177 82.457 43.3915C82.6303 43.5654 82.7676 43.7718 82.8608 43.999C82.954 44.2261 83.0013 44.4695 83 44.715V66.365C83.0006 66.6101 82.9528 66.8529 82.8593 67.0795C82.7658 67.306 82.6285 67.5119 82.4552 67.6852C82.2819 67.8585 82.076 67.9959 81.8494 68.0894C81.6229 68.1828 81.3801 68.2306 81.135 68.23H46.79C46.5448 68.2308 46.302 68.1831 46.0754 68.0896C45.8488 67.996 45.6431 67.8585 45.47 67.685C45.1213 67.3341 44.9254 66.8596 44.925 66.365V44.715C44.9236 44.4695 44.9709 44.2261 45.0641 43.999C45.1573 43.7718 45.2946 43.5654 45.4679 43.3915C45.6413 43.2177 45.8474 43.0799 46.0743 42.9861C46.3012 42.8923 46.5444 42.8443 46.79 42.845H81.135Z" fill="#FFCA40"/>
<path d="M55.615 62.605H49.665V63.415H55.615V62.605Z" fill="#242D3C"/>
<path d="M63.165 62.605H57.21V63.415H63.165V62.605Z" fill="#242D3C"/>
<path d="M70.715 62.605H64.76V63.415H70.715V62.605Z" fill="#242D3C"/>
<path d="M78.2551 62.605H72.3051V63.415H78.2551V62.605Z" fill="#242D3C"/>
<path d="M78.255 55.5349H49.665V58.7999H78.255V55.5349Z" fill="white"/>
<path d="M65.375 56.855H63.74V57.465H65.375V56.855Z" fill="#242D3C"/>
<path d="M71.195 56.855H66.29V57.465H71.195V56.855Z" fill="#242D3C"/>
<path d="M77.02 56.855H72.115V57.465H77.02V56.855Z" fill="#242D3C"/>
<path d="M83 47.4651H44.925V53.2751H83V47.4651Z" fill="#242D3C"/>
<path d="M70.25 6.375C70.249 7.63706 70.6224 8.87106 71.3228 9.9209C72.0232 10.9707 73.0193 11.7893 74.185 12.2729C75.3507 12.7566 76.6337 12.8836 77.8716 12.638C79.1095 12.3924 80.2468 11.7852 81.1396 10.8931C82.0323 10.0011 82.6405 8.86425 82.887 7.62652C83.1336 6.38878 83.0076 5.10572 82.5248 3.93963C82.0421 2.77355 81.2244 1.77684 80.1751 1.07557C79.1258 0.374306 77.8921 3.87568e-07 76.63 0C74.9388 -5.19359e-07 73.3168 0.671489 72.1204 1.86689C70.9241 3.06229 70.2513 4.68378 70.25 6.375Z" fill="#FFBB33"/>
<path d="M69.6751 6.375C69.6741 7.63727 70.0475 8.87147 70.7482 9.92142C71.4488 10.9714 72.4452 11.7899 73.6112 12.2734C74.7772 12.7569 76.0604 12.8837 77.2985 12.6377C78.5366 12.3916 79.6738 11.7839 80.5664 10.8913C81.4589 9.99878 82.0667 8.86152 82.3127 7.62345C82.5587 6.38539 82.432 5.10217 81.9484 3.93617C81.4649 2.77018 80.6464 1.7738 79.5965 1.07314C78.5465 0.372478 77.3123 -0.000986894 76.0501 1.95862e-06C74.3597 0.00132617 72.739 0.673401 71.5437 1.86866C70.3484 3.06392 69.6764 4.68465 69.6751 6.375Z" fill="#FFD85C"/>
<path d="M71.375 6.37495C71.374 7.30099 71.6478 8.20652 72.1616 8.9769C72.6755 9.74729 73.4064 10.3479 74.2617 10.7028C75.1171 11.0576 76.0585 11.1507 76.9668 10.9703C77.8751 10.7899 78.7095 10.344 79.3643 9.68921C80.0191 9.0344 80.4649 8.20005 80.6453 7.29175C80.8257 6.38345 80.7326 5.44205 80.3778 4.58668C80.023 3.73132 79.4223 3.00046 78.652 2.48659C77.8816 1.97273 76.9761 1.69897 76.05 1.69995C74.8105 1.70128 73.6222 2.19425 72.7457 3.07069C71.8693 3.94714 71.3763 5.13547 71.375 6.37495Z" fill="#FFCA40"/>
<path d="M71.94 6.37496C71.9405 5.18434 72.3957 4.03885 73.2126 3.17269C74.0295 2.30652 75.1464 1.78508 76.335 1.71497H76.05C74.8088 1.71497 73.6184 2.20803 72.7407 3.0857C71.8631 3.96338 71.37 5.15375 71.37 6.39496C71.37 7.63618 71.8631 8.82656 72.7407 9.70423C73.6184 10.5819 74.8088 11.075 76.05 11.075C76.145 11.075 76.24 11.075 76.335 11.075C75.1399 11.0033 74.0179 10.4759 73.2002 9.60142C72.3825 8.72697 71.9314 7.57214 71.94 6.37496Z" fill="#FFBB33"/>
<path d="M44.0601 6.375C44.0591 7.63706 44.4324 8.87106 45.1329 9.9209C45.8333 10.9707 46.8294 11.7893 47.9951 12.2729C49.1608 12.7566 50.4437 12.8836 51.6817 12.638C52.9196 12.3924 54.0569 11.7852 54.9496 10.8931C55.8424 10.0011 56.4505 8.86425 56.6971 7.62652C56.9437 6.38878 56.8176 5.10572 56.3349 3.93963C55.8522 2.77355 55.0344 1.77684 53.9851 1.07557C52.9358 0.374306 51.7021 3.87568e-07 50.4401 0C48.7493 0.00132198 47.128 0.673236 45.9319 1.86835C44.7359 3.06347 44.0627 4.68419 44.0601 6.375Z" fill="#FFBB33"/>
<path d="M43.495 6.375C43.493 7.63869 43.8661 8.87454 44.5669 9.92608C45.2677 10.9776 46.2648 11.7976 47.4319 12.2821C48.5991 12.7666 49.8837 12.8938 51.1232 12.6478C52.3627 12.4018 53.5013 11.7934 54.3949 10.8999C55.2884 10.0063 55.8968 8.8677 56.1428 7.6282C56.3888 6.3887 56.2616 5.10407 55.7771 3.93695C55.2926 2.76984 54.4726 1.77274 53.4211 1.07191C52.3695 0.371075 51.1337 -0.00196978 49.87 7.82218e-06C48.1797 0.00133203 46.5589 0.673406 45.3637 1.86866C44.1684 3.06392 43.4963 4.68466 43.495 6.375Z" fill="#FFD85C"/>
<path d="M45.1949 6.37495C45.194 7.30099 45.4677 8.20652 45.9816 8.9769C46.4955 9.74729 47.2263 10.3479 48.0817 10.7028C48.937 11.0576 49.8785 11.1507 50.7867 10.9703C51.695 10.7899 52.5294 10.344 53.1842 9.68921C53.839 9.0344 54.2849 8.20005 54.4653 7.29175C54.6457 6.38345 54.5526 5.44205 54.1978 4.58668C53.8429 3.73132 53.2423 3.00046 52.4719 2.48659C51.7015 1.97273 50.796 1.69897 49.87 1.69995C48.6305 1.70128 47.4421 2.19425 46.5657 3.07069C45.6892 3.94714 45.1963 5.13547 45.1949 6.37495Z" fill="#FFCA40"/>
<path d="M45.75 6.37496C45.7505 5.18434 46.2058 4.03885 47.0227 3.17269C47.8396 2.30652 48.9565 1.78508 50.145 1.71497C50.05 1.71497 49.9551 1.71497 49.8551 1.71497C48.6138 1.71497 47.4235 2.20803 46.5458 3.0857C45.6681 3.96338 45.175 5.15375 45.175 6.39496C45.175 7.63618 45.6681 8.82656 46.5458 9.70423C47.4235 10.5819 48.6138 11.075 49.8551 11.075C49.9551 11.075 50.05 11.075 50.145 11.075C48.9496 11.0045 47.8268 10.4774 47.0089 9.60272C46.1909 8.728 45.7403 7.57249 45.75 6.37496Z" fill="#FFBB33"/>
</svg>
