<svg width="99" height="90" viewBox="0 0 99 90" fill="none" xmlns="http://www.w3.org/2000/svg">
<path d="M29.4449 59.925C29.4449 61.5648 28.9585 63.1678 28.0474 64.5312C27.1363 65.8946 25.8413 66.9572 24.3262 67.5845C22.8111 68.2118 21.144 68.3756 19.5357 68.0554C17.9275 67.7351 16.4504 66.945 15.2912 65.7852C14.132 64.6253 13.3429 63.1477 13.0236 61.5392C12.7042 59.9308 12.8691 58.2638 13.4973 56.7491C14.1256 55.2344 15.1889 53.94 16.5528 53.0297C17.9168 52.1194 19.5201 51.634 21.1599 51.635C22.2483 51.635 23.326 51.8495 24.3316 52.2661C25.3371 52.6828 26.2506 53.2935 27.02 54.0634C27.7894 54.8333 28.3996 55.7472 28.8156 56.7529C29.2317 57.7587 29.4455 58.8366 29.4449 59.925Z" fill="#242D3C"/>
<path d="M28 59.925C27.999 61.2746 27.5979 62.5937 26.8473 63.7154C26.0968 64.8371 25.0305 65.7111 23.7833 66.2269C22.5361 66.7427 21.164 66.8771 19.8404 66.6132C18.5168 66.3493 17.3012 65.6989 16.3472 64.7442C15.3932 63.7895 14.7437 62.5734 14.4808 61.2496C14.2178 59.9258 14.3533 58.5538 14.87 57.307C15.3867 56.0602 16.2615 54.9946 17.3837 54.2448C18.506 53.4951 19.8253 53.095 21.175 53.095C22.0719 53.0943 22.9601 53.2706 23.7887 53.6136C24.6174 53.9567 25.3703 54.4599 26.0042 55.0943C26.6382 55.7287 27.1408 56.4819 27.4832 57.3108C27.8257 58.1398 28.0013 59.0281 28 59.925Z" fill="#E6E5E5"/>
<path d="M27.6699 59.9248C27.6699 61.2104 27.2887 62.4671 26.5745 63.536C25.8602 64.6049 24.8451 65.438 23.6574 65.93C22.4696 66.422 21.1627 66.5507 19.9018 66.2999C18.641 66.0491 17.4828 65.43 16.5737 64.521C15.6647 63.6119 15.0456 62.4538 14.7948 61.1929C14.544 59.932 14.6727 58.6251 15.1647 57.4374C15.6567 56.2496 16.4898 55.2345 17.5587 54.5202C18.6276 53.806 19.8843 53.4248 21.1699 53.4248C22.8938 53.4248 24.5471 54.1096 25.7661 55.3286C26.9851 56.5476 27.6699 58.2009 27.6699 59.9248Z" fill="white"/>
<path d="M21.3299 53.9599C21.3309 53.9937 21.3218 54.0271 21.3037 54.0557C21.2857 54.0843 21.2595 54.1069 21.2285 54.1205C21.1976 54.1341 21.1632 54.1382 21.1299 54.1322C21.0966 54.1263 21.0659 54.1105 21.0416 54.0869C21.0173 54.0633 21.0006 54.0331 20.9936 54C20.9867 53.9669 20.9897 53.9324 21.0024 53.9011C21.0151 53.8697 21.0369 53.8429 21.065 53.824C21.093 53.805 21.1261 53.7949 21.1599 53.7949C21.2042 53.7949 21.2466 53.8121 21.2784 53.8429C21.3101 53.8737 21.3286 53.9157 21.3299 53.9599Z" fill="#242D3C"/>
<path d="M18.325 54.6749C18.3473 54.7142 18.3535 54.7606 18.3423 54.8044C18.3311 54.8483 18.3034 54.886 18.265 54.9099C18.2258 54.9315 18.1797 54.9368 18.1366 54.9246C18.0936 54.9124 18.057 54.8838 18.035 54.8449C18.0196 54.8258 18.0084 54.8037 18.0024 54.78C17.9963 54.7563 17.9954 54.7315 17.9998 54.7075C18.0042 54.6834 18.0137 54.6605 18.0278 54.6405C18.0418 54.6204 18.06 54.6036 18.0811 54.5912C18.1022 54.5788 18.1258 54.5712 18.1501 54.5687C18.1745 54.5663 18.1991 54.5691 18.2222 54.5771C18.2454 54.585 18.2666 54.5979 18.2843 54.6147C18.302 54.6316 18.3159 54.6521 18.325 54.6749Z" fill="#242D3C"/>
<path d="M16.0799 56.7948C16.1094 56.8111 16.1334 56.8358 16.1488 56.8658C16.1643 56.8957 16.1705 56.9296 16.1666 56.9631C16.1628 56.9966 16.1491 57.0282 16.1272 57.0538C16.1054 57.0795 16.0764 57.0981 16.044 57.1073C16.0116 57.1164 15.9771 57.1158 15.9451 57.1053C15.913 57.0949 15.8848 57.0751 15.864 57.0486C15.8432 57.0221 15.8307 56.99 15.8282 56.9564C15.8257 56.9228 15.8333 56.8892 15.8499 56.8598C15.8719 56.8209 15.9085 56.7923 15.9515 56.7801C15.9946 56.7679 16.0407 56.7732 16.0799 56.7948Z" fill="#242D3C"/>
<path d="M15.2 59.755C15.2225 59.7543 15.2449 59.7582 15.2659 59.7665C15.2868 59.7748 15.3058 59.7873 15.3217 59.8032C15.3377 59.8191 15.3502 59.8382 15.3585 59.8591C15.3668 59.88 15.3707 59.9025 15.37 59.925C15.37 59.9701 15.3521 60.0133 15.3202 60.0452C15.2883 60.0771 15.2451 60.095 15.2 60.095C15.1549 60.095 15.1117 60.0771 15.0798 60.0452C15.0479 60.0133 15.03 59.9701 15.03 59.925C15.0293 59.9025 15.0332 59.88 15.0415 59.8591C15.0498 59.8382 15.0623 59.8191 15.0782 59.8032C15.0942 59.7873 15.1132 59.7748 15.1341 59.7665C15.1551 59.7582 15.1775 59.7543 15.2 59.755Z" fill="#242D3C"/>
<path d="M15.915 62.755C15.9339 62.7434 15.955 62.7357 15.9769 62.7325C15.9989 62.7292 16.0213 62.7305 16.0427 62.7361C16.0642 62.7417 16.0843 62.7515 16.1019 62.7651C16.1195 62.7786 16.1341 62.7956 16.145 62.815C16.1565 62.8346 16.1639 62.8563 16.1668 62.8788C16.1698 62.9014 16.1682 62.9243 16.1621 62.9462C16.1561 62.9681 16.1457 62.9886 16.1316 63.0064C16.1175 63.0242 16.0999 63.039 16.08 63.05C16.0414 63.0663 15.9981 63.0679 15.9585 63.0543C15.9188 63.0408 15.8856 63.013 15.8651 62.9765C15.8447 62.9399 15.8385 62.8971 15.8477 62.8562C15.8568 62.8153 15.8808 62.7792 15.915 62.755Z" fill="#242D3C"/>
<path d="M18.0349 64.9999C18.0453 64.9801 18.0597 64.9627 18.077 64.9486C18.0944 64.9345 18.1144 64.9242 18.136 64.9181C18.1575 64.912 18.18 64.9104 18.2021 64.9132C18.2243 64.9161 18.2457 64.9235 18.2649 64.9349C18.303 64.9578 18.3306 64.9947 18.3418 65.0377C18.353 65.0806 18.3469 65.1263 18.3249 65.1649C18.3141 65.1839 18.2996 65.2006 18.2823 65.2141C18.265 65.2275 18.2452 65.2374 18.2241 65.2433C18.203 65.2491 18.1809 65.2506 18.1592 65.2479C18.1374 65.2452 18.1164 65.2382 18.0974 65.2274C18.0783 65.2165 18.0616 65.2021 18.0482 65.1848C18.0347 65.1675 18.0248 65.1477 18.019 65.1266C18.0132 65.1054 18.0116 65.0834 18.0144 65.0616C18.0171 65.0399 18.0241 65.0189 18.0349 64.9999Z" fill="#242D3C"/>
<path d="M20.9999 65.88C20.9999 65.8463 21.0098 65.8135 21.0285 65.7855C21.0472 65.7576 21.0738 65.7358 21.1048 65.7229C21.1359 65.71 21.1701 65.7067 21.203 65.7132C21.236 65.7198 21.2663 65.736 21.2901 65.7598C21.3139 65.7835 21.3301 65.8138 21.3366 65.8468C21.3432 65.8798 21.3398 65.914 21.3269 65.945C21.3141 65.9761 21.2923 66.0026 21.2643 66.0213C21.2364 66.04 21.2035 66.05 21.1699 66.05C21.1248 66.05 21.0816 66.032 21.0497 66.0002C21.0178 65.9683 20.9999 65.925 20.9999 65.88Z" fill="#242D3C"/>
<path d="M23.9999 65.1648C23.9848 65.1363 23.9785 65.1039 23.9816 65.0718C23.9848 65.0397 23.9973 65.0091 24.0176 64.984C24.0379 64.9589 24.0651 64.9404 24.0959 64.9306C24.1267 64.9208 24.1596 64.9203 24.1907 64.9291C24.2218 64.9379 24.2496 64.9556 24.2707 64.98C24.2918 65.0044 24.3053 65.0345 24.3095 65.0665C24.3136 65.0985 24.3083 65.1311 24.2942 65.1601C24.28 65.1891 24.2577 65.2134 24.2299 65.2298C24.2107 65.2412 24.1893 65.2486 24.1672 65.2515C24.145 65.2544 24.1225 65.2527 24.101 65.2466C24.0795 65.2405 24.0594 65.2302 24.042 65.2161C24.0247 65.202 24.0103 65.1846 23.9999 65.1648Z" fill="#242D3C"/>
<path d="M26.235 63.05C26.2154 63.0386 26.1984 63.0235 26.1848 63.0055C26.1711 62.9875 26.1613 62.9669 26.1557 62.945C26.1501 62.9232 26.1489 62.9004 26.1522 62.8781C26.1555 62.8557 26.1633 62.8343 26.175 62.815C26.1858 62.7956 26.2005 62.7786 26.218 62.7651C26.2356 62.7515 26.2557 62.7417 26.2772 62.7361C26.2987 62.7305 26.3211 62.7292 26.343 62.7325C26.365 62.7357 26.386 62.7434 26.405 62.755C26.4439 62.777 26.4725 62.8136 26.4847 62.8566C26.4969 62.8997 26.4916 62.9458 26.47 62.985C26.4461 63.0233 26.4087 63.0513 26.3651 63.0633C26.3216 63.0753 26.2751 63.0706 26.235 63.05Z" fill="#242D3C"/>
<path d="M27.1199 60.09C27.0749 60.09 27.0316 60.072 26.9997 60.0402C26.9679 60.0083 26.95 59.965 26.95 59.92C26.9499 59.8979 26.9544 59.876 26.963 59.8556C26.9716 59.8353 26.9842 59.8169 27 59.8015C27.0159 59.7861 27.0347 59.7741 27.0553 59.7661C27.0759 59.7581 27.0979 59.7543 27.1199 59.755C27.1642 59.7549 27.2067 59.7722 27.2384 59.803C27.2702 59.8338 27.2887 59.8757 27.29 59.92C27.29 59.965 27.272 60.0083 27.2402 60.0402C27.2083 60.072 27.165 60.09 27.1199 60.09Z" fill="#242D3C"/>
<path d="M26.4049 57.09C26.3657 57.1116 26.3196 57.1169 26.2765 57.1047C26.2335 57.0925 26.197 57.0639 26.1749 57.025C26.1633 57.006 26.1557 56.985 26.1524 56.963C26.1492 56.9411 26.1504 56.9187 26.156 56.8972C26.1616 56.8757 26.1715 56.8556 26.185 56.838C26.1986 56.8205 26.2155 56.8058 26.2349 56.795C26.274 56.7724 26.3205 56.7663 26.3641 56.7781C26.4077 56.7898 26.4448 56.8183 26.4674 56.8575C26.4899 56.8966 26.496 56.9431 26.4843 56.9867C26.4726 57.0303 26.444 57.0674 26.4049 57.09Z" fill="#242D3C"/>
<path d="M24.2849 54.8449C24.2681 54.8742 24.243 54.8979 24.2127 54.9129C24.1825 54.9279 24.1484 54.9335 24.1149 54.9291C24.0814 54.9247 24.05 54.9103 24.0247 54.888C23.9994 54.8656 23.9813 54.8362 23.9728 54.8035C23.9643 54.7708 23.9657 54.7363 23.9768 54.7044C23.988 54.6725 24.0084 54.6447 24.0355 54.6245C24.0625 54.6042 24.095 54.5925 24.1287 54.5908C24.1625 54.5891 24.1959 54.5975 24.2249 54.6149C24.263 54.6378 24.2906 54.6747 24.3018 54.7177C24.313 54.7607 24.3069 54.8063 24.2849 54.8449Z" fill="#242D3C"/>
<path d="M21.365 59.9199H20.955V63.2299H21.365V59.9199Z" fill="#242D3C"/>
<path d="M25.5949 59.7849H21.4999V60.0549H25.5949V59.7849Z" fill="#242D3C"/>
<path d="M21.9199 59.9199C21.9199 60.0702 21.8753 60.2172 21.7918 60.3421C21.7083 60.4671 21.5896 60.5645 21.4507 60.6221C21.3119 60.6796 21.1591 60.6946 21.0116 60.6653C20.8642 60.636 20.7288 60.5636 20.6225 60.4573C20.5162 60.351 20.4438 60.2156 20.4145 60.0682C20.3852 59.9208 20.4002 59.7679 20.4578 59.6291C20.5153 59.4902 20.6127 59.3715 20.7377 59.288C20.8626 59.2045 21.0096 59.1599 21.1599 59.1599C21.3611 59.1612 21.5536 59.2417 21.6959 59.384C21.8381 59.5262 21.9186 59.7187 21.9199 59.9199Z" fill="#242D3C"/>
<path d="M21.94 60.59L21.825 60.705L17.965 56.845L18.08 56.73L21.94 60.59Z" fill="#F15424"/>
<path d="M21.6649 59.9199C21.6649 60.0188 21.6356 60.1155 21.5807 60.1977C21.5257 60.2799 21.4476 60.344 21.3563 60.3819C21.2649 60.4197 21.1644 60.4296 21.0674 60.4103C20.9704 60.391 20.8813 60.3434 20.8114 60.2735C20.7414 60.2036 20.6938 60.1145 20.6745 60.0175C20.6552 59.9205 20.6651 59.8199 20.703 59.7286C20.7408 59.6372 20.8049 59.5591 20.8871 59.5042C20.9694 59.4492 21.066 59.4199 21.1649 59.4199C21.2975 59.4199 21.4247 59.4726 21.5185 59.5664C21.6122 59.6601 21.6649 59.7873 21.6649 59.9199Z" fill="#F15424"/>
<path d="M21.4149 59.9249C21.4149 59.9754 21.4 60.0247 21.3719 60.0666C21.3439 60.1085 21.3041 60.1412 21.2575 60.1605C21.2109 60.1798 21.1596 60.1849 21.1102 60.175C21.0607 60.1652 21.0153 60.1409 20.9796 60.1052C20.9439 60.0696 20.9196 60.0241 20.9098 59.9747C20.9 59.9252 20.905 59.8739 20.9243 59.8273C20.9436 59.7807 20.9763 59.7409 21.0182 59.7129C21.0602 59.6849 21.1095 59.6699 21.1599 59.6699C21.2275 59.6699 21.2924 59.6968 21.3402 59.7446C21.388 59.7924 21.4149 59.8573 21.4149 59.9249Z" fill="#242D3C"/>
<path d="M85.13 39.0449H60.955V53.0549H85.13V39.0449Z" fill="#8E53D8"/>
<path d="M83.89 37.8049H59.715V51.8149H83.89V37.8049Z" fill="#B389EF"/>
<path d="M83.16 38.5349H60.4449V51.0949H83.16V38.5349Z" fill="#8E53D8"/>
<path d="M82.405 39.2898H61.2V50.3398H82.405V39.2898Z" fill="#B389EF"/>
<path d="M67.5599 44.8098C67.5609 43.9705 67.8107 43.1502 68.2778 42.4528C68.7448 41.7554 69.4082 41.2121 70.1839 40.8915C70.9597 40.571 71.813 40.4876 72.6362 40.652C73.4593 40.8164 74.2152 41.2211 74.8084 41.8149C75.4016 42.4088 75.8053 43.1652 75.9687 43.9885C76.1321 44.8118 76.0478 45.6651 75.7263 46.4405C75.4049 47.2159 74.8608 47.8785 74.1628 48.3448C73.4648 48.811 72.6443 49.0598 71.8049 49.0598C71.2471 49.0598 70.6946 48.9499 70.1793 48.7362C69.6639 48.5226 69.1958 48.2094 68.8015 47.8147C68.4073 47.42 68.0947 46.9515 67.8816 46.4359C67.6686 45.9203 67.5593 45.3677 67.5599 44.8098Z" fill="#8E53D8"/>
<path d="M72.195 45.1199H71.41C71.0838 45.1195 70.7711 44.9901 70.54 44.7599C70.4262 44.6456 70.3363 44.5098 70.2754 44.3605C70.2144 44.2111 70.1837 44.0512 70.185 43.8899C70.185 43.7293 70.2167 43.5702 70.2783 43.4219C70.3399 43.2736 70.4303 43.1388 70.5441 43.0255C70.6579 42.9121 70.793 42.8224 70.9416 42.7614C71.0902 42.7003 71.2493 42.6693 71.41 42.6699H73.115V43.2849H71.41C71.3301 43.2843 71.2509 43.2994 71.1769 43.3295C71.1029 43.3596 71.0357 43.4041 70.9789 43.4604C70.9222 43.5166 70.8772 43.5835 70.8465 43.6572C70.8158 43.731 70.8 43.8101 70.8 43.8899C70.8025 44.0514 70.8674 44.2056 70.9812 44.3202C71.0949 44.4349 71.2485 44.5011 71.41 44.5049H72.195V45.1199Z" fill="#B389EF"/>
<path d="M72.1949 46.955H70.4999V46.335H72.1999C72.2797 46.3357 72.359 46.3205 72.4329 46.2904C72.5069 46.2603 72.5742 46.2158 72.6309 46.1596C72.6876 46.1033 72.7326 46.0364 72.7634 45.9627C72.7941 45.889 72.8099 45.8099 72.8099 45.73C72.8105 45.6497 72.7952 45.5701 72.7648 45.4958C72.7344 45.4215 72.6895 45.354 72.6327 45.2972C72.5759 45.2404 72.5084 45.1955 72.4341 45.1651C72.3598 45.1347 72.2802 45.1194 72.1999 45.12H71.4149V44.5H72.1999C72.3616 44.4991 72.5218 44.5305 72.6712 44.5923C72.8206 44.6541 72.9561 44.7451 73.0699 44.86C73.1839 44.9731 73.2741 45.1079 73.3351 45.2565C73.3961 45.4051 73.4266 45.5644 73.4249 45.725C73.4268 45.8861 73.3959 46.0459 73.334 46.1946C73.2721 46.3433 73.1805 46.4779 73.0649 46.59C72.9521 46.7065 72.8168 46.7989 72.6673 46.8616C72.5177 46.9243 72.357 46.9561 72.1949 46.955Z" fill="#B389EF"/>
<path d="M72.1099 42.4548H71.4949V47.1698H72.1099V42.4548Z" fill="#B389EF"/>
<path d="M83.16 41.9998V38.5598H79.715C79.8656 39.4179 80.2773 40.2087 80.8938 40.8243C81.5103 41.4399 82.3016 41.8504 83.16 41.9998Z" fill="#8E53D8"/>
<path d="M60.4449 47.6448V51.0948H63.8899C63.7419 50.2345 63.3313 49.4412 62.7145 48.8235C62.0977 48.2059 61.305 47.7941 60.4449 47.6448Z" fill="#8E53D8"/>
<path d="M60.4449 41.9998C61.3033 41.8504 62.0947 41.4399 62.7112 40.8243C63.3277 40.2087 63.7393 39.4179 63.8899 38.5598H60.4449V41.9998Z" fill="#8E53D8"/>
<path d="M79.715 51.0948H83.16V47.6448C82.3003 47.7948 81.5079 48.2068 80.8912 48.8243C80.2746 49.4419 79.8637 50.2348 79.715 51.0948Z" fill="#8E53D8"/>
<path d="M54.325 12.6848C54.324 13.3023 54.5062 13.9062 54.8487 14.4201C55.1911 14.9339 55.6784 15.3346 56.2487 15.5714C56.819 15.8081 57.4467 15.8703 58.0524 15.7501C58.6581 15.6299 59.2145 15.3326 59.6511 14.896C60.0878 14.4594 60.385 13.903 60.5053 13.2973C60.6255 12.6916 60.5633 12.0639 60.3265 11.4935C60.0897 10.9232 59.6891 10.436 59.1752 10.0936C58.6614 9.75111 58.0575 9.56884 57.44 9.56983C56.6142 9.57115 55.8227 9.89976 55.2388 10.4837C54.6549 11.0675 54.3263 11.8591 54.325 12.6848Z" fill="#FFBB33"/>
<path d="M54.0499 12.6848C54.0499 13.3009 54.2326 13.9032 54.5749 14.4154C54.9172 14.9277 55.4037 15.3269 55.9729 15.5627C56.5421 15.7985 57.1684 15.8602 57.7726 15.74C58.3769 15.6198 58.9319 15.3231 59.3676 14.8875C59.8032 14.4518 60.0999 13.8968 60.2201 13.2925C60.3403 12.6883 60.2786 12.062 60.0428 11.4928C59.807 10.9236 59.4078 10.4371 58.8955 10.0948C58.3833 9.75252 57.781 9.56982 57.1649 9.56982C56.3388 9.56982 55.5465 9.89801 54.9623 10.4822C54.3781 11.0664 54.0499 11.8587 54.0499 12.6848Z" fill="#FFD85C"/>
<path d="M54.8799 12.6849C54.8799 13.1368 55.0139 13.5786 55.265 13.9544C55.5161 14.3302 55.8729 14.623 56.2905 14.796C56.708 14.9689 57.1674 15.0142 57.6107 14.926C58.0539 14.8378 58.4611 14.6202 58.7806 14.3006C59.1002 13.9811 59.3178 13.5739 59.406 13.1307C59.4942 12.6874 59.4489 12.228 59.276 11.8105C59.103 11.3929 58.8101 11.0361 58.4344 10.785C58.0586 10.5339 57.6168 10.3999 57.1649 10.3999C56.8646 10.3992 56.5672 10.4579 56.2897 10.5725C56.0122 10.6871 55.76 10.8554 55.5477 11.0677C55.3354 11.28 55.1671 11.5322 55.0525 11.8097C54.9379 12.0872 54.8792 12.3847 54.8799 12.6849Z" fill="#FFCA40"/>
<path d="M55.1549 12.6848C55.1563 12.1035 55.3787 11.5444 55.777 11.121C56.1753 10.6977 56.7197 10.4416 57.2999 10.4048H57.1649C56.5589 10.4048 55.9777 10.6455 55.5491 11.074C55.1206 11.5026 54.8799 12.0838 54.8799 12.6898C54.8799 13.2958 55.1206 13.877 55.5491 14.3055C55.9777 14.734 56.5589 14.9748 57.1649 14.9748H57.2999C56.7176 14.939 56.171 14.6819 55.7722 14.2562C55.3734 13.8304 55.1525 13.2682 55.1549 12.6848Z" fill="#FFBB33"/>
<path d="M18.45 27.5C18.449 28.323 18.6921 29.1277 19.1486 29.8125C19.6051 30.4973 20.2545 31.0312 21.0145 31.3469C21.7746 31.6625 22.6112 31.7456 23.4185 31.5856C24.2258 31.4257 24.9675 31.0299 25.5497 30.4483C26.132 29.8667 26.5287 29.1255 26.6897 28.3184C26.8506 27.5113 26.7685 26.6746 26.4538 25.9142C26.1391 25.1537 25.6059 24.5037 24.9216 24.0464C24.2374 23.5891 23.4329 23.345 22.61 23.345C21.5079 23.3463 20.4513 23.7843 19.6716 24.5631C18.8919 25.3419 18.4526 26.3979 18.45 27.5Z" fill="#FFBB33"/>
<path d="M18.085 27.5C18.084 28.3232 18.3272 29.1282 18.784 29.813C19.2407 30.4979 19.8903 31.0319 20.6507 31.3474C21.411 31.6628 22.2479 31.7456 23.0553 31.5853C23.8627 31.4249 24.6044 31.0286 25.1865 30.4465C25.7686 29.8644 26.1649 29.1227 26.3253 28.3153C26.4856 27.5079 26.4028 26.671 26.0873 25.9107C25.7719 25.1504 25.2379 24.5007 24.553 24.044C23.8681 23.5872 23.0632 23.344 22.24 23.345C21.1384 23.3463 20.0823 23.7845 19.3034 24.5634C18.5245 25.3423 18.0863 26.3984 18.085 27.5Z" fill="#FFD85C"/>
<path d="M19.195 27.4998C19.194 28.1035 19.3721 28.6939 19.7069 29.1962C20.0416 29.6985 20.5179 30.0902 21.0755 30.3217C21.633 30.5532 22.2466 30.614 22.8387 30.4965C23.4309 30.3789 23.9748 30.0884 24.4016 29.6615C24.8285 29.2347 25.1191 28.6907 25.2366 28.0986C25.3541 27.5065 25.2933 26.8929 25.0618 26.3353C24.8304 25.7778 24.4387 25.3015 23.9363 24.9668C23.434 24.632 22.8436 24.4538 22.24 24.4548C21.4328 24.4562 20.659 24.7774 20.0883 25.3482C19.5175 25.9189 19.1963 26.6927 19.195 27.4998Z" fill="#FFCA40"/>
<path d="M19.5649 27.4998C19.5648 26.7247 19.8608 25.9788 20.3924 25.4146C20.9241 24.8505 21.6511 24.5107 22.4249 24.4648H22.2399C21.453 24.4967 20.7089 24.8317 20.1635 25.3998C19.618 25.9678 19.3134 26.7248 19.3134 27.5123C19.3134 28.2999 19.618 29.0569 20.1635 29.6249C20.7089 30.1929 21.453 30.528 22.2399 30.5598H22.4249C21.6468 30.5137 20.9161 30.1705 20.3838 29.601C19.8516 29.0315 19.5584 28.2793 19.5649 27.4998Z" fill="#FFBB33"/>
<path d="M58.8449 57.3049H33.6649V77.8299H58.8449V57.3049Z" fill="#D9D8D7"/>
<path d="M53.8099 48.6349C53.8099 49.298 53.5465 49.9339 53.0777 50.4027C52.6088 50.8715 51.973 51.1349 51.3099 51.1349C50.9794 51.1362 50.6518 51.0719 50.3463 50.9457C50.0408 50.8196 49.7633 50.6341 49.5299 50.3999C49.0573 49.926 48.7912 49.2843 48.7899 48.6149V41.0649C48.7964 40.4039 49.0619 39.7718 49.5294 39.3044C49.9968 38.8369 50.6289 38.5715 51.2899 38.5649C51.9509 38.5715 52.583 38.8369 53.0505 39.3044C53.5179 39.7718 53.7834 40.4039 53.7899 41.0649L53.8099 48.6349Z" fill="#CCCBCA"/>
<path d="M38.7 48.635C38.7 49.298 38.4366 49.9339 37.9677 50.4027C37.4989 50.8716 36.863 51.135 36.2 51.135C35.5369 51.135 34.901 50.8716 34.4322 50.4027C33.9633 49.9339 33.7 49.298 33.7 48.635V41.085C33.7 40.4219 33.9633 39.786 34.4322 39.3172C34.901 38.8484 35.5369 38.585 36.2 38.585C36.861 38.5915 37.4931 38.857 37.9605 39.3244C38.428 39.7918 38.6934 40.4239 38.7 41.085V48.635Z" fill="#CCCBCA"/>
<path d="M43.735 48.635C43.735 49.298 43.4716 49.9339 43.0028 50.4027C42.5339 50.8716 41.898 51.135 41.235 51.135C40.5719 51.135 39.9361 50.8716 39.4672 50.4027C38.9984 49.9339 38.735 49.298 38.735 48.635V41.085C38.735 40.4219 38.9984 39.786 39.4672 39.3172C39.9361 38.8484 40.5719 38.585 41.235 38.585C41.898 38.585 42.5339 38.8484 43.0028 39.3172C43.4716 39.786 43.735 40.4219 43.735 41.085V48.635Z" fill="#CCCBCA"/>
<path d="M48.7699 48.635C48.7699 49.298 48.5065 49.9339 48.0377 50.4027C47.5688 50.8716 46.9329 51.135 46.2699 51.135C45.6069 51.135 44.971 50.8716 44.5021 50.4027C44.0333 49.9339 43.7699 49.298 43.7699 48.635V41.085C43.7764 40.4239 44.0419 39.7918 44.5093 39.3244C44.9768 38.857 45.6089 38.5915 46.2699 38.585C46.9329 38.585 47.5688 38.8484 48.0377 39.3172C48.5065 39.786 48.7699 40.4219 48.7699 41.085V48.635Z" fill="#CCCBCA"/>
<path fill-rule="evenodd" clip-rule="evenodd" d="M66.7449 27.4998C67.0448 27.4977 67.3421 27.5554 67.6194 27.6696C67.8967 27.7838 68.1484 27.9521 68.3599 28.1648C68.5729 28.3773 68.7418 28.6298 68.8568 28.9078C68.9718 29.1859 69.0306 29.4839 69.0299 29.7848V56.2848C69.0272 56.8896 68.7855 57.4687 68.3574 57.8959C67.9293 58.323 67.3496 58.5635 66.7449 58.5648H24.7099C24.41 58.5655 24.113 58.507 23.8358 58.3927C23.5586 58.2784 23.3067 58.1106 23.0944 57.8988C22.8822 57.687 22.7138 57.4354 22.5989 57.1585C22.484 56.8815 22.4249 56.5846 22.4249 56.2848V29.7848C22.4226 29.4842 22.4803 29.1861 22.5945 28.9079C22.7086 28.6298 22.8771 28.3772 23.0899 28.1648C23.5204 27.7373 24.1031 27.4981 24.7099 27.4998H66.7449Z" fill="#FD4062"/>
<path d="M35.515 51.6799H28.23V52.6749H35.515V51.6799Z" fill="#29383E"/>
<path d="M44.75 51.6799H37.465V52.6699H44.75V51.6799Z" fill="#29383E"/>
<path d="M53.99 51.6799H46.705V52.6699H53.99V51.6799Z" fill="#29383E"/>
<path d="M63.2249 51.6799H55.9399V52.6699H63.2249V51.6799Z" fill="#29383E"/>
<path d="M63.22 43.0249H28.23V47.0199H63.22V43.0249Z" fill="white"/>
<path d="M47.455 44.6448H45.455V45.3948H47.455V44.6448Z" fill="#29383E"/>
<path d="M54.58 44.6448H48.58V45.3948H54.58V44.6448Z" fill="#29383E"/>
<path d="M61.705 44.6448H55.705V45.3948H61.705V44.6448Z" fill="#29383E"/>
<path d="M69.0299 32.8899H22.4249V39.9999H69.0299V32.8899Z" fill="#29383E"/>
<g style="mix-blend-mode:screen" opacity="0.27">
<g style="mix-blend-mode:screen" opacity="0.27">
<path d="M13.9205 13.6652L0.0859375 27.4998L62.2548 89.6686L76.0893 75.834L13.9205 13.6652Z" fill="#FF3E71"/>
</g>
<g style="mix-blend-mode:screen" opacity="0.27">
<path d="M19.4106 15.5598L18.1886 16.7844L80.4225 78.8881L81.6445 77.6635L19.4106 15.5598Z" fill="#FF3E71"/>
</g>
<g style="mix-blend-mode:screen" opacity="0.27">
<path d="M29.1744 7.07606L22.7539 13.4966L84.9227 75.6654L91.3432 69.2449L29.1744 7.07606Z" fill="#FF3E71"/>
</g>
<g style="mix-blend-mode:screen" opacity="0.27">
<path d="M42.1099 1.44843L37.938 5.62036L100.107 67.7892L104.279 63.6173L42.1099 1.44843Z" fill="#FF3E71"/>
</g>
</g>
<path d="M58.8449 53.5299L49.7349 44.4199L49.1999 44.9549C48.4197 45.735 47.9717 46.7868 47.9499 47.8899C47.9474 47.9199 47.9474 47.95 47.9499 47.9799C47.9551 48.8793 48.2438 49.7541 48.7749 50.4799C48.9033 50.6588 49.0472 50.8261 49.2049 50.9799L53.8099 55.5899V61.0599C51.8075 61.0599 49.8871 61.8554 48.4712 63.2713C47.0553 64.6872 46.2599 66.6075 46.2599 68.6099V77.8049H58.8499V53.5049L58.8449 53.5299Z" fill="#E6E5E5"/>
<path d="M60.9799 72.2549H31.5199V83.6099H60.9799V72.2549Z" fill="#FFCA40"/>
<path d="M37.6349 77.83C37.6359 78.1743 37.5347 78.5112 37.3441 78.798C37.1535 79.0848 36.8821 79.3086 36.5642 79.4411C36.2464 79.5736 35.8964 79.6087 35.5585 79.5422C35.2207 79.4756 34.9102 79.3103 34.6663 79.0671C34.4225 78.824 34.2563 78.5139 34.1887 78.1763C34.1212 77.8386 34.1553 77.4885 34.2869 77.1703C34.4184 76.852 34.6414 76.58 34.9277 76.3886C35.2139 76.1972 35.5505 76.095 35.8949 76.095C36.1232 76.0943 36.3493 76.1387 36.5604 76.2256C36.7715 76.3125 36.9633 76.4402 37.125 76.6014C37.2866 76.7626 37.4148 76.954 37.5024 77.1649C37.5899 77.3757 37.6349 77.6017 37.6349 77.83Z" fill="#242D3C"/>
<path d="M52.53 19.0598C52.529 20.3995 52.1308 21.7089 51.3858 22.8224C50.6407 23.9359 49.5823 24.8035 48.3442 25.3155C47.1061 25.8275 45.7441 25.961 44.4302 25.699C43.1163 25.437 41.9096 24.7914 40.9626 23.8437C40.0156 22.896 39.3708 21.6888 39.1098 20.3747C38.8488 19.0606 38.9832 17.6986 39.4962 16.461C40.0091 15.2233 40.8775 14.1655 41.9915 13.4212C43.1055 12.677 44.4152 12.2798 45.755 12.2798C46.6451 12.2798 47.5265 12.4552 48.3488 12.796C49.1711 13.1368 49.9182 13.6363 50.5474 14.2659C51.1766 14.8955 51.6755 15.643 52.0157 16.4656C52.3559 17.2881 52.5306 18.1697 52.53 19.0598Z" fill="#FFBB33"/>
<path d="M51.17 19.0599C51.17 20.1321 50.852 21.1802 50.2562 22.0716C49.6604 22.963 48.8136 23.6577 47.8229 24.0678C46.8323 24.4779 45.7422 24.5849 44.6907 24.3754C43.6392 24.1658 42.6735 23.6491 41.9157 22.8906C41.1579 22.1321 40.6421 21.1659 40.4335 20.1142C40.2249 19.0625 40.333 17.9726 40.744 16.9823C41.155 15.992 41.8504 15.1459 42.7424 14.5509C43.6344 13.9559 44.6828 13.6389 45.755 13.6399C46.4665 13.6399 47.171 13.7801 47.8283 14.0526C48.4856 14.325 49.0828 14.7243 49.5857 15.2277C50.0886 15.731 50.4874 16.3286 50.7592 16.9861C51.031 17.6437 51.1706 18.3484 51.17 19.0599Z" fill="#FFD85C"/>
<path d="M46.32 19.4999H45.185C44.9443 19.5127 44.7035 19.4763 44.4773 19.393C44.2512 19.3097 44.0443 19.1812 43.8694 19.0154C43.6945 18.8495 43.5553 18.6498 43.4601 18.4284C43.3649 18.2069 43.3158 17.9684 43.3158 17.7274C43.3158 17.4864 43.3649 17.2479 43.4601 17.0264C43.5553 16.805 43.6945 16.6053 43.8694 16.4394C44.0443 16.2736 44.2512 16.1451 44.4773 16.0618C44.7035 15.9785 44.9443 15.9421 45.185 15.9549H47.65V16.8499H45.185C45.0695 16.8486 44.9548 16.8702 44.8478 16.9137C44.7408 16.9571 44.6434 17.0214 44.5615 17.1029C44.4796 17.1844 44.4147 17.2813 44.3707 17.3881C44.3266 17.4949 44.3043 17.6094 44.305 17.7249C44.3035 17.8401 44.3254 17.9544 44.3692 18.0609C44.413 18.1675 44.4779 18.2641 44.56 18.3449C44.6414 18.4282 44.7386 18.4946 44.8459 18.5401C44.9532 18.5856 45.0684 18.6093 45.185 18.6099H46.32V19.4999Z" fill="#FFBB33"/>
<path d="M46.32 22.1649H43.855V21.2699H46.32C46.5545 21.2694 46.7793 21.1759 46.945 21.0099C47.0651 20.8856 47.1462 20.7289 47.1783 20.5592C47.2103 20.3894 47.192 20.2139 47.1256 20.0544C47.0591 19.8949 46.9474 19.7584 46.8043 19.6616C46.6611 19.5648 46.4928 19.5121 46.32 19.5099H45.185V18.6149H46.32C46.7894 18.6094 47.2421 18.789 47.58 19.1149C47.9085 19.448 48.0927 19.897 48.0927 20.3649C48.0927 20.8327 47.9085 21.2818 47.58 21.6149C47.4173 21.786 47.222 21.9227 47.0056 22.0172C46.7892 22.1117 46.5561 22.1619 46.32 22.1649Z" fill="#FFBB33"/>
<path d="M46.1949 15.6499H45.3049V22.4749H46.1949V15.6499Z" fill="#FFBB33"/>
<path d="M37 4.28489C37 5.05525 36.7715 5.80831 36.3435 6.44884C35.9156 7.08937 35.3072 7.5886 34.5955 7.8834C33.8838 8.17821 33.1006 8.25534 32.3451 8.10505C31.5895 7.95476 30.8955 7.5838 30.3508 7.03907C29.8061 6.49435 29.4351 5.80033 29.2848 5.04477C29.1345 4.28921 29.2116 3.50606 29.5065 2.79434C29.8013 2.08262 30.3005 1.47431 30.941 1.04632C31.5815 0.618332 32.3346 0.389893 33.105 0.389893C34.138 0.389893 35.1287 0.800258 35.8591 1.53071C36.5896 2.26117 37 3.25188 37 4.28489Z" fill="#FFBB33"/>
<path d="M36.2149 4.28492C36.2149 4.90101 36.0322 5.50327 35.6899 6.01552C35.3476 6.52778 34.8611 6.92704 34.2919 7.16281C33.7227 7.39858 33.0964 7.46026 32.4922 7.34007C31.8879 7.21988 31.3329 6.9232 30.8972 6.48756C30.4616 6.05192 30.1649 5.49688 30.0447 4.89263C29.9245 4.28838 29.9862 3.66206 30.222 3.09286C30.4577 2.52367 30.857 2.03718 31.3693 1.69489C31.8815 1.35261 32.4838 1.16992 33.0999 1.16992C33.926 1.16992 34.7183 1.49811 35.3025 2.08229C35.8867 2.66646 36.2149 3.45877 36.2149 4.28492Z" fill="#FFD85C"/>
<path d="M33.4249 4.53997H32.7699C32.6359 4.54075 32.5031 4.5146 32.3794 4.46306C32.2558 4.41153 32.1437 4.33566 32.0499 4.23997C31.8971 4.10158 31.7908 3.91935 31.7456 3.71823C31.7003 3.5171 31.7184 3.30691 31.7972 3.11643C31.876 2.92594 32.0118 2.76447 32.1859 2.65412C32.36 2.54377 32.564 2.48993 32.7699 2.49997H34.1899V2.99997H32.7699C32.7041 2.99959 32.6389 3.0122 32.5779 3.03708C32.517 3.06196 32.4616 3.09863 32.4149 3.14497C32.3673 3.19153 32.3294 3.24714 32.3036 3.30854C32.2778 3.36993 32.2645 3.43586 32.2645 3.50247C32.2645 3.56907 32.2778 3.63501 32.3036 3.6964C32.3294 3.75779 32.3673 3.8134 32.4149 3.85997C32.4614 3.90872 32.5172 3.94758 32.5791 3.97421C32.6409 4.00085 32.7075 4.01471 32.7749 4.01497H33.4299L33.4249 4.53997Z" fill="#FFBB33"/>
<path d="M33.4249 6.06993H31.9999V5.56993H33.4149C33.4819 5.57032 33.5483 5.55725 33.6101 5.53148C33.672 5.50571 33.728 5.46778 33.7749 5.41993C33.8212 5.37321 33.8579 5.3178 33.8828 5.25689C33.9076 5.19597 33.9203 5.13074 33.9199 5.06493C33.9203 4.99913 33.9076 4.9339 33.8828 4.87298C33.8579 4.81206 33.8212 4.75665 33.7749 4.70993C33.7284 4.66118 33.6726 4.62232 33.6107 4.59569C33.5488 4.56905 33.4822 4.55519 33.4149 4.55493H32.7699V4.05493H33.4249C33.6901 4.05493 33.9444 4.16029 34.132 4.34782C34.3195 4.53536 34.4249 4.78972 34.4249 5.05493C34.4257 5.18892 34.3995 5.3217 34.348 5.44539C34.2964 5.56907 34.2206 5.68114 34.1249 5.77493C33.9394 5.96151 33.6879 6.0675 33.4249 6.06993Z" fill="#FFBB33"/>
<path d="M33.35 2.32495H32.84V6.24995H33.35V2.32495Z" fill="#FFBB33"/>
<path d="M49.2749 7.36987C49.4075 7.36987 49.5347 7.42255 49.6285 7.51632C49.7222 7.61009 49.7749 7.73726 49.7749 7.86987V10.9999C49.7749 11.1325 49.7222 11.2597 49.6285 11.3534C49.5347 11.4472 49.4075 11.4999 49.2749 11.4999C49.1423 11.4999 49.0151 11.4472 48.9213 11.3534C48.8276 11.2597 48.7749 11.1325 48.7749 10.9999V7.88987C48.7749 7.75726 48.8276 7.63009 48.9213 7.53632C49.0151 7.44255 49.1423 7.38987 49.2749 7.38987V7.36987Z" fill="#D9D8D7"/>
<path d="M46.275 6.94481C46.275 6.65762 46.0422 6.4248 45.755 6.4248C45.4678 6.4248 45.235 6.65762 45.235 6.94481V10.0498C45.235 10.337 45.4678 10.5698 45.755 10.5698C46.0422 10.5698 46.275 10.337 46.275 10.0498V6.94481Z" fill="#D9D8D7"/>
<path d="M42.75 7.88987C42.75 7.60268 42.5183 7.36987 42.2325 7.36987C41.9467 7.36987 41.715 7.60268 41.715 7.88987V10.9949C41.715 11.2821 41.9467 11.5149 42.2325 11.5149C42.5183 11.5149 42.75 11.2821 42.75 10.9949V7.88987Z" fill="#D9D8D7"/>
</svg>
