<svg width="84" height="74" viewBox="0 0 84 74" fill="none" xmlns="http://www.w3.org/2000/svg">
<path d="M21.1351 13.51H20.6201V47.08H21.1351V13.51Z" fill="#3F5E69"/>
<path d="M21.1651 11.255C21.127 11.217 21.0818 11.1868 21.032 11.1662C20.9823 11.1456 20.9289 11.135 20.8751 11.135C20.8219 11.1345 20.7692 11.1449 20.7202 11.1656C20.6712 11.1862 20.6269 11.2167 20.5901 11.255C20.5504 11.2922 20.5189 11.3371 20.4973 11.387C20.4758 11.4369 20.4649 11.4907 20.4651 11.545V13.5H21.2851V11.545C21.2851 11.4912 21.2745 11.4378 21.2539 11.3881C21.2333 11.3383 21.2032 11.2931 21.1651 11.255Z" fill="#29383E"/>
<path d="M17.46 54.1398C18.4727 54.1385 19.4436 53.7356 20.1597 53.0195C20.8758 52.3034 21.2787 51.3326 21.28 50.3198V47.0798H20.46V50.3198C20.46 51.1155 20.1439 51.8785 19.5813 52.4412C19.0187 53.0038 18.2557 53.3198 17.46 53.3198C16.6644 53.3198 15.9013 53.0038 15.3387 52.4412C14.7761 51.8785 14.46 51.1155 14.46 50.3198C14.46 50.212 14.4175 50.1084 14.3417 50.0317C14.2659 49.9549 14.1629 49.9112 14.055 49.9098C13.9463 49.9098 13.842 49.953 13.7651 50.0299C13.6882 50.1068 13.645 50.2111 13.645 50.3198C13.6463 51.3317 14.0485 52.3018 14.7636 53.0178C15.4786 53.7337 16.4482 54.1372 17.46 54.1398Z" fill="#29383E"/>
<path d="M20.76 14.8049C15.76 14.9399 10.76 23.4099 10.76 31.4699C9.36259 30.2558 7.56058 29.6099 5.71003 29.6599C3.91548 29.6137 2.16467 30.2174 0.780029 31.3599C1.68994 26.7194 4.1762 22.5362 7.81752 19.5191C11.4588 16.502 16.0313 14.8365 20.76 14.8049Z" fill="#E6E5E5"/>
<path d="M40.9701 31.3599C39.5846 30.219 37.8344 29.6155 36.0401 29.6599C34.1894 29.6089 32.3871 30.2549 30.9901 31.4699C30.9901 23.4099 25.9901 14.9399 20.9901 14.8049C25.7189 14.8365 30.2913 16.502 33.9326 19.5191C37.5739 22.5362 40.0602 26.7194 40.9701 31.3599Z" fill="#29383E"/>
<path d="M20.875 14.8049V31.4999C19.4798 30.2814 17.6767 29.6333 15.825 29.6849C13.9719 29.634 12.1675 30.2819 10.77 31.4999C10.77 23.4399 15.77 14.9699 20.77 14.8349L20.875 14.8049Z" fill="#3F5E69"/>
<path d="M31 31.4699C29.5769 30.2963 27.7897 29.6544 25.945 29.6544C24.1003 29.6544 22.3132 30.2963 20.89 31.4699V14.8049H21C26 14.9399 31 23.4099 31 31.4699Z" fill="#E6E5E5"/>
<path d="M27.76 65.2849V5.59991C27.7613 4.19069 28.3217 2.83957 29.3182 1.8431C30.3147 0.846632 31.6658 0.286236 33.075 0.284912H72.575V65.2849H27.76Z" fill="#F2F2F2"/>
<path d="M77.9001 0.284912C79.3097 0.284912 80.6616 0.844885 81.6583 1.84164C82.6551 2.8384 83.2151 4.19029 83.2151 5.59991H38.3901C38.3901 4.19029 37.8301 2.8384 36.8333 1.84164C35.8366 0.844885 34.4847 0.284912 33.0751 0.284912H77.9001Z" fill="#29383E"/>
<path d="M63.3151 39.7249L61.7601 40.1699L60.2151 42.2199L58.6651 42.3999L57.1101 43.7549L55.5651 42.9849L53.7601 41.4099L52.4601 43.3349L50.9101 44.0099L49.3601 43.1749L47.8101 43.9049L46.2651 44.2349L44.7101 46.2449L43.1651 47.1599L41.6151 45.8849L40.0651 45.4449L38.5101 47.2999L36.9601 46.8999L35.4151 47.9549L33.8151 48.2549V50.5749L66.5301 50.5849V37.3799L64.8651 38.1349L63.3151 39.7249Z" fill="#FD4062"/>
<path d="M63.3151 42.5498L61.7601 42.8798L60.2151 44.3948L58.6651 44.5298L57.1101 45.5298L55.5651 44.9648L53.7601 43.7948L52.4601 45.2198L50.9101 45.7248L49.3601 45.0948L47.8101 45.6398L46.2651 45.8848L44.7101 47.3748L43.1651 48.0548L41.6151 47.1048L40.0651 46.7798L38.5101 48.1548L36.9601 47.8548L35.4151 48.6348L33.8151 48.8598V50.5748L66.5301 50.5848V40.8098L64.8651 41.3698L63.3151 42.5498Z" fill="white"/>
<path d="M63.3151 47.4848L61.7601 47.6098L60.2151 48.1948L58.6651 48.2448L57.1101 48.6348L55.5651 48.4148L53.7601 47.9648L52.4601 48.5148L50.9101 48.7098L49.3601 48.4698L47.8101 48.6798L46.2651 48.7748L44.7101 49.3448L43.1651 49.6098L41.6151 49.2448L40.0651 49.1148L38.5101 49.6448L36.9601 49.5298L35.4151 49.8348L33.8151 49.9198V50.5798L66.5301 50.5848V46.8098L64.8651 47.0248L63.3151 47.4848Z" fill="#B389EF"/>
<path d="M43.1401 52.4749H33.8151V55.8949H43.1401V52.4749Z" fill="#CCCBCA"/>
<path d="M66.5301 52.4749H44.8401V55.8949H66.5301V52.4749Z" fill="#CCCBCA"/>
<path d="M61.1551 16.25H39.1951V17.31H61.1551V16.25Z" fill="#CCCBCA"/>
<path d="M66.5301 19.0349H33.8151V20.0949H66.5301V19.0349Z" fill="#CCCBCA"/>
<path d="M66.5301 21.8198H33.8151V22.8798H66.5301V21.8198Z" fill="#CCCBCA"/>
<path d="M66.5301 24.605H33.8151V25.665H66.5301V24.605Z" fill="#CCCBCA"/>
<path d="M66.5301 27.385H33.8151V28.445H66.5301V27.385Z" fill="#CCCBCA"/>
<path d="M66.5301 30.1699H33.8151V31.2299H66.5301V30.1699Z" fill="#CCCBCA"/>
<path d="M64.67 10.3799H35.67V12.4099H64.67V10.3799Z" fill="#FD4062"/>
<path d="M43.6701 36.405H33.8151V37.465H43.6701V36.405Z" fill="#CCCBCA"/>
<path d="M80.2901 23.865H77.5851V51.68H80.2901V23.865Z" fill="#29383E"/>
<path d="M80.2901 52.5798H77.5851V55.2848H80.2901V52.5798Z" fill="#29383E"/>
<path d="M79.2601 20.2949H78.6151L77.5851 23.8649H80.2901L79.2601 20.2949Z" fill="#3F5E69"/>
<path d="M79.0001 19.5898H78.8801L78.6851 20.2948H79.1951L79.0001 19.5898Z" fill="#CCCBCA"/>
<path d="M80.0301 51.6799H77.8451V52.5799H80.0301V51.6799Z" fill="#CCCBCA"/>
<path d="M80.935 49.215L80.29 48.835V51.41H80.935V49.215Z" fill="#3F5E69"/>
<path d="M81.2551 40.095H80.9351V51.68H81.2551V40.095Z" fill="#29383E"/>
<path d="M80.9351 41.7949V40.7549C80.8243 40.7896 80.7276 40.8588 80.6589 40.9523C80.5903 41.0459 80.5532 41.1589 80.5532 41.2749C80.5532 41.3909 80.5903 41.5039 80.6589 41.5975C80.7276 41.691 80.8243 41.7601 80.9351 41.7949Z" fill="#3E4959"/>
<path d="M80.2901 35.3049H77.5851V35.6399H80.2901V35.3049Z" fill="#E6E5E5"/>
<path d="M70.37 70.8799H56.8V73.7149H70.37V70.8799Z" fill="#FFCA40"/>
<path d="M70.37 70.595H56.8V73.43H70.37V70.595Z" fill="#FFD85C"/>
<path d="M66.1501 67.76H52.5801V70.595H66.1501V67.76Z" fill="#FFBB33"/>
<path d="M66.1501 67.48H52.5801V70.315H66.1501V67.48Z" fill="#FFCA40"/>
<path d="M69.1701 64.645H55.6001V67.48H69.1701V64.645Z" fill="#FFCA40"/>
<path d="M69.1701 64.3599H55.6001V67.1949H69.1701V64.3599Z" fill="#FFD85C"/>
<path d="M69.595 61.5249H56.025V64.3599H69.595V61.5249Z" fill="#FFCA40"/>
<path d="M69.595 61.24H56.025V64.075H69.595V61.24Z" fill="#FFBB33"/>
<path d="M68.3799 58.405H54.8099V61.24H68.3799V58.405Z" fill="#FFBB33"/>
<path d="M68.3799 58.1199H54.8099V60.9549H68.3799V58.1199Z" fill="#FFCA40"/>
<path d="M69.1 55.2849H55.53V58.1199H69.1V55.2849Z" fill="#FFBB33"/>
<path d="M69.1 55H55.53V57.835H69.1V55Z" fill="#FFCA40"/>
<path d="M68.075 52.1648H54.505V54.9948H68.075V52.1648Z" fill="#FFCA40"/>
<path d="M68.075 51.8799H54.505V54.7149H68.075V51.8799Z" fill="#FFD85C"/>
<path d="M81.445 66.6298C81.444 67.9716 81.0452 69.2829 80.2991 70.398C79.5529 71.5132 78.4929 72.382 77.253 72.8948C76.0132 73.4076 74.6491 73.5412 73.3333 73.2789C72.0174 73.0165 70.8089 72.3699 69.8605 71.4208C68.9121 70.4717 68.2664 69.2627 68.005 67.9467C67.7436 66.6307 67.8783 65.2667 68.392 64.0272C68.9057 62.7877 69.7753 61.7283 70.891 60.983C72.0067 60.2377 73.3183 59.8398 74.66 59.8398C75.5514 59.8398 76.4341 60.0155 77.2577 60.3568C78.0812 60.6981 78.8294 61.1983 79.4595 61.8289C80.0896 62.4595 80.5893 63.208 80.93 64.0318C81.2706 64.8556 81.4457 65.7384 81.445 66.6298Z" fill="#FFBB33"/>
<path d="M80.0851 66.63C80.0851 67.7041 79.7665 68.7542 79.1696 69.6472C78.5728 70.5403 77.7244 71.2363 76.7319 71.6471C75.7394 72.0579 74.6474 72.1652 73.5939 71.9552C72.5405 71.7453 71.5729 71.2277 70.8137 70.4678C70.0545 69.7079 69.5378 68.7399 69.3288 67.6862C69.1199 66.6326 69.2281 65.5406 69.6399 64.5485C70.0516 63.5564 70.7484 62.7087 71.642 62.1126C72.5356 61.5166 73.5859 61.199 74.6601 61.2C75.3731 61.1993 76.0793 61.3393 76.7381 61.612C77.3969 61.8848 77.9954 62.2848 78.4994 62.7892C79.0033 63.2936 79.4028 63.8925 79.6749 64.5516C79.947 65.2106 80.0864 65.9169 80.0851 66.63Z" fill="#FFD85C"/>
<path d="M75.2301 67.0749H74.0901C73.6192 67.071 73.1687 66.8822 72.8357 66.5492C72.5028 66.2163 72.314 65.7658 72.3101 65.2949C72.3107 65.0618 72.3573 64.8311 72.4471 64.616C72.5369 64.4009 72.6682 64.2056 72.8335 64.0413C72.9988 63.8769 73.1948 63.7467 73.4104 63.6581C73.626 63.5695 73.857 63.5243 74.0901 63.5249H76.5601V64.4199H74.0901C73.9744 64.4179 73.8594 64.4391 73.7521 64.4823C73.6447 64.5255 73.5472 64.5898 73.4651 64.6714C73.383 64.753 73.3182 64.8502 73.2744 64.9573C73.2306 65.0644 73.2087 65.1792 73.2101 65.2949C73.2094 65.4109 73.2317 65.5259 73.2756 65.6332C73.3195 65.7406 73.3843 65.8381 73.466 65.9204C73.5478 66.0026 73.6451 66.0679 73.7521 66.1124C73.8592 66.157 73.9741 66.1799 74.0901 66.1799H75.2301V67.0749Z" fill="#FFBB33"/>
<path d="M75.23 69.7349H72.76V68.8399H75.23C75.4641 68.8374 75.6882 68.7442 75.855 68.5799C76.0176 68.4144 76.1091 68.1919 76.11 67.9599C76.1103 67.8449 76.088 67.7309 76.0442 67.6245C76.0005 67.5182 75.9362 67.4214 75.855 67.3399C75.7734 67.2568 75.6762 67.1906 75.5689 67.1451C75.4617 67.0996 75.3465 67.0758 75.23 67.0749H74.09V66.1799H75.23C75.6851 66.2041 76.1136 66.4019 76.4273 66.7326C76.7409 67.0633 76.9157 67.5017 76.9157 67.9574C76.9157 68.4132 76.7409 68.8516 76.4273 69.1823C76.1136 69.513 75.6851 69.7108 75.23 69.7349Z" fill="#FFBB33"/>
<path d="M75.1051 63.21H74.2101V70.045H75.1051V63.21Z" fill="#FFBB33"/>
<path d="M45.7701 54.635H12.8501V73.715H45.7701V54.635Z" fill="#8E53D8"/>
<path d="M43.45 52.3198H10.53V71.3998H43.45V52.3198Z" fill="#B389EF"/>
<path d="M42.46 53.3098H11.525V70.4148H42.46V53.3098Z" fill="#8E53D8"/>
<path d="M41.43 54.335H12.55V69.385H41.43V54.335Z" fill="#B389EF"/>
<path d="M21.2151 61.86C21.2161 60.7172 21.5558 59.6004 22.1913 58.6507C22.8268 57.7009 23.7295 56.9608 24.7855 56.524C25.8414 56.0871 27.0032 55.9731 28.1239 56.1963C29.2447 56.4194 30.2741 56.9698 31.0822 57.7779C31.8902 58.5859 32.4406 59.6154 32.6638 60.7361C32.887 61.8569 32.7729 63.0186 32.3361 64.0746C31.8992 65.1305 31.1592 66.0333 30.2094 66.6688C29.2597 67.3043 28.1428 67.644 27.0001 67.645C26.24 67.6463 25.4872 67.4975 24.7847 67.2073C24.0823 66.917 23.444 66.491 22.9065 65.9535C22.3691 65.4161 21.943 64.7778 21.6528 64.0753C21.3625 63.3729 21.2138 62.62 21.2151 61.86Z" fill="#8E53D8"/>
<path d="M27.5301 62.2798H26.4551C26.235 62.2797 26.0171 62.2354 25.8144 62.1495C25.6117 62.0636 25.4283 61.9379 25.2751 61.7798C25.117 61.6277 24.9912 61.4453 24.9052 61.2433C24.8193 61.0414 24.7751 60.8243 24.7751 60.6049C24.7731 60.3854 24.8148 60.1678 24.8977 59.9646C24.9806 59.7614 25.1031 59.5767 25.258 59.4213C25.4129 59.2659 25.5973 59.1429 25.8002 59.0593C26.0031 58.9758 26.2206 58.9335 26.4401 58.9348H28.7651V59.7748H26.4551C26.2377 59.7753 26.0293 59.8616 25.8751 60.0148C25.798 60.0915 25.7368 60.1827 25.6951 60.2831C25.6533 60.3835 25.6318 60.4911 25.6318 60.5998C25.6318 60.7086 25.6533 60.8162 25.6951 60.9166C25.7368 61.017 25.798 61.1082 25.8751 61.1848C25.951 61.2634 26.0419 61.326 26.1424 61.3689C26.2428 61.4118 26.3508 61.4342 26.4601 61.4348H27.5351L27.5301 62.2798Z" fill="#B389EF"/>
<path d="M27.5301 64.7799H25.2101V63.9349H27.5301C27.6386 63.9354 27.7461 63.9144 27.8465 63.8732C27.9469 63.832 28.0381 63.7714 28.1151 63.6949C28.2304 63.5789 28.3088 63.4313 28.3406 63.2708C28.3723 63.1103 28.3558 62.944 28.2933 62.7928C28.2308 62.6416 28.125 62.5123 27.9892 62.421C27.8534 62.3298 27.6937 62.2807 27.5301 62.2799H26.4551V61.4399H27.5301C27.7501 61.4409 27.9677 61.4856 28.1703 61.5715C28.3729 61.6573 28.5563 61.7826 28.7101 61.9399C28.8661 62.0943 28.9899 62.2781 29.0745 62.4806C29.159 62.6832 29.2025 62.9005 29.2025 63.1199C29.2025 63.3394 29.159 63.5567 29.0745 63.7593C28.9899 63.9618 28.8661 64.1456 28.7101 64.2999C28.5547 64.4537 28.3705 64.5753 28.168 64.6576C27.9655 64.74 27.7487 64.7816 27.5301 64.7799Z" fill="#B389EF"/>
<path d="M27.4101 58.6499H26.5701V65.0749H27.4101V58.6499Z" fill="#B389EF"/>
<path d="M42.46 57.9998V53.3098H37.77C37.9731 54.4796 38.5327 55.5581 39.3722 56.3976C40.2118 57.2372 41.2902 57.7968 42.46 57.9998Z" fill="#8E53D8"/>
<path d="M11.525 65.72V70.415H16.215C16.0129 69.2443 15.4537 68.1647 14.6141 67.3242C13.7745 66.4837 12.6955 65.9233 11.525 65.72Z" fill="#8E53D8"/>
<path d="M11.525 57.9998C12.6942 57.7954 13.772 57.2353 14.6113 56.396C15.4506 55.5567 16.0106 54.479 16.215 53.3098H11.525V57.9998Z" fill="#8E53D8"/>
<path d="M37.77 70.415H42.46V65.72C41.2895 65.9233 40.2106 66.4837 39.3709 67.3242C38.5313 68.1647 37.9721 69.2443 37.77 70.415Z" fill="#8E53D8"/>
</svg>
