<svg width="100" height="100" viewBox="0 0 100 100" fill="none" xmlns="http://www.w3.org/2000/svg">
<path d="M86.3104 89H13.6896C12.2041 89 11 87.779 11 86.2728V61.7272C11 60.221 12.2041 59 13.6896 59H86.3104C87.7959 59 89 60.221 89 61.7272V86.2728C89 87.779 87.7959 89 86.3104 89Z" fill="#E4EAF8"/>
<path d="M76.8962 67.4828H52.6891C51.9458 67.4828 51.3442 66.8805 51.3442 66.1379C51.3442 65.3952 51.9457 64.793 52.6891 64.793H76.8962C77.6394 64.793 78.241 65.3952 78.241 66.1379C78.241 66.8805 77.6394 67.4828 76.8962 67.4828Z" fill="#707487"/>
<path d="M82.2754 78.2413H52.6891C51.9458 78.2413 51.3442 77.6391 51.3442 76.8964C51.3442 76.1537 51.9457 75.5515 52.6891 75.5515H82.2754C83.0187 75.5515 83.6203 76.1537 83.6203 76.8964C83.6203 77.6391 83.0189 78.2413 82.2754 78.2413Z" fill="#707487"/>
<path d="M82.2754 83.6206H52.6891C51.9458 83.6206 51.3442 83.0191 51.3442 82.2757C51.3442 81.5324 51.9457 80.9308 52.6891 80.9308H82.2754C83.0187 80.9308 83.6203 81.5322 83.6203 82.2757C83.6203 83.0191 83.0189 83.6206 82.2754 83.6206Z" fill="#7F8499"/>
<path d="M58.0694 72.862H52.6901C51.9468 72.862 51.3452 72.2598 51.3452 71.5171C51.3452 70.7745 51.9467 70.1722 52.6901 70.1722H58.0694C58.8127 70.1722 59.4143 70.7745 59.4143 71.5171C59.4141 72.2598 58.8127 72.862 58.0694 72.862Z" fill="#7F8499"/>
<path d="M82.275 72.862H63.4474C62.7041 72.862 62.1025 72.2598 62.1025 71.5171C62.1025 70.7745 62.704 70.1722 63.4474 70.1722H82.275C83.0183 70.1722 83.6199 70.7745 83.6199 71.5171C83.6199 72.2598 83.0185 72.862 82.275 72.862Z" fill="#7F8499"/>
<path d="M86.3104 46H13.6896C12.2041 46 11 44.779 11 43.2728V18.7274C11 17.221 12.2041 16 13.6896 16H86.3104C87.7959 16 89 17.221 89 18.7272V43.2728C89 44.779 87.7959 46 86.3104 46Z" fill="#E4EAF8"/>
<path d="M43.2756 43.2758H19.0687C16.0979 43.2758 13.6895 40.8674 13.6895 37.8965V16.3792H48.655V37.8964C48.6549 40.8674 46.2464 43.2758 43.2756 43.2758Z" fill="#D5DCED"/>
<path d="M43.2756 86.3104H19.0687C16.0979 86.3104 13.6895 83.9019 13.6895 80.9311V59.4137H48.655V80.9309C48.6549 83.9019 46.2464 86.3104 43.2756 86.3104Z" fill="#D5DCED"/>
<path d="M76.8962 24.4482H52.6891C51.9458 24.4482 51.3442 23.846 51.3442 23.1033C51.3442 22.3606 51.9457 21.7584 52.6891 21.7584H76.8962C77.6394 21.7584 78.241 22.3606 78.241 23.1033C78.2409 23.846 77.6394 24.4482 76.8962 24.4482Z" fill="#707487"/>
<path d="M82.2754 35.2068H52.6891C51.9458 35.2068 51.3442 34.6045 51.3442 33.8619C51.3442 33.1192 51.9457 32.517 52.6891 32.517H82.2754C83.0187 32.517 83.6203 33.1192 83.6203 33.8619C83.6203 34.6045 83.0189 35.2068 82.2754 35.2068Z" fill="#707487"/>
<path d="M82.2754 40.586H52.6891C51.9458 40.586 51.3442 39.9846 51.3442 39.2411C51.3442 38.4978 51.9457 37.8962 52.6891 37.8962H82.2754C83.0187 37.8962 83.6203 38.4977 83.6203 39.2411C83.6203 39.9846 83.0189 40.586 82.2754 40.586Z" fill="#7F8499"/>
<path d="M58.0694 29.8275H52.6901C51.9468 29.8275 51.3452 29.2253 51.3452 28.4826C51.3452 27.7399 51.9467 27.1377 52.6901 27.1377H58.0694C58.8127 27.1377 59.4143 27.7399 59.4143 28.4826C59.4141 29.2254 58.8127 29.8275 58.0694 29.8275Z" fill="#7F8499"/>
<path d="M82.275 29.8275H63.4474C62.7041 29.8275 62.1025 29.2253 62.1025 28.4826C62.1025 27.7399 62.704 27.1377 63.4474 27.1377H82.275C83.0183 27.1377 83.6199 27.7399 83.6199 28.4826C83.6199 29.2254 83.0185 29.8275 82.275 29.8275Z" fill="#7F8499"/>
<path d="M33 39H30V55H33V39Z" fill="#AFB9D2"/>
<path d="M33 39H30V43H33V39Z" fill="#959CB5"/>
<path d="M43.2726 41H18.7272C17.221 41 16 39.779 16 38.2728V13.7272C15.9998 12.221 17.2208 11 18.7272 11H43.2728C44.779 11 46 12.221 46 13.7272V38.2728C45.9998 39.779 44.7789 41 43.2726 41Z" fill="#FF5050"/>
<path d="M40 24.6206C40 19.8672 36.1869 16 31.5 16C26.8131 16 23 19.8672 23 24.6206V27.3792C23 32.1327 26.8131 35.9998 31.5 35.9998C33.23 35.9998 34.8389 35.4702 36.1829 34.5666L37.0982 35.4948C37.4302 35.8316 37.8645 36 38.3001 36C38.7356 36 39.1699 35.8316 39.5019 35.4948C40.1659 34.8214 40.1659 33.7303 39.5019 33.0567L38.5866 32.1284C39.4777 30.7653 40 29.1336 40 27.3791V24.6206ZM35.4218 28.9189C34.7578 28.2455 33.682 28.2455 33.0178 28.9189C32.3537 29.5923 32.3538 30.6834 33.0178 31.357L33.6848 32.0334C33.0198 32.3561 32.2848 32.5517 31.4998 32.5517C28.6882 32.5517 26.3999 30.2316 26.3999 27.3794V24.6206C26.3999 21.7684 28.6883 19.4483 31.4998 19.4483C34.3114 19.4483 36.5998 21.7684 36.5998 24.6206V27.3792C36.5998 28.1753 36.4069 28.9209 36.0888 29.5953L35.4218 28.9189Z" fill="white"/>
<path d="M43.2726 84H18.7272C17.221 84 16 82.779 16 81.2728V56.7272C16 55.221 17.221 54 18.7272 54H43.2728C44.779 54 46 55.221 46 56.7272V81.2728C45.9998 82.779 44.7789 84 43.2726 84Z" fill="#B389EF"/>
<path d="M39.949 76.8575L36.2556 61.8716C35.8375 60.1814 34.346 59 32.6276 59H30.3725C28.6541 59 27.1627 60.1814 26.7443 61.873L23.0509 76.8575C22.8238 77.7802 23.3777 78.7161 24.2886 78.9478C25.1956 79.1795 26.1212 78.6178 26.3496 77.6926L27.0478 74.8613H35.9523L36.6502 77.6926C36.8441 78.4764 37.536 78.9991 38.2982 78.9991C38.435 78.9991 38.573 78.9828 38.7112 78.9478C39.6224 78.7161 40.1763 77.7802 39.949 76.8575ZM27.898 71.4132L30.0435 62.7095C30.0808 62.5559 30.2162 62.4481 30.3728 62.4481H32.6279C32.7845 62.4481 32.9201 62.5559 32.9572 62.7081L35.1026 71.4132H27.898Z" fill="white"/>
</svg>
