<svg width="74" height="70" viewBox="0 0 74 70" fill="none" xmlns="http://www.w3.org/2000/svg">
<path fill-rule="evenodd" clip-rule="evenodd" d="M71.6251 15.8799C72.1144 15.8799 72.5837 16.0743 72.9297 16.4203C73.2757 16.7663 73.4701 17.2356 73.4701 17.7249V39.0949C73.4687 39.5833 73.2738 40.0513 72.9279 40.3963C72.582 40.7412 72.1135 40.9349 71.6251 40.9349H37.7301C37.2416 40.9349 36.7731 40.7412 36.4272 40.3963C36.0813 40.0513 35.8864 39.5833 35.885 39.0949V17.7249C35.8835 17.4828 35.9299 17.2428 36.0218 17.0188C36.1136 16.7948 36.249 16.5912 36.42 16.4199C36.7668 16.0748 37.2359 15.8808 37.725 15.8799H71.6251Z" fill="#FD4062"/>
<path d="M46.4451 35.3799H40.5701V36.1799H46.4451V35.3799Z" fill="#29383E"/>
<path d="M53.89 35.3799H48.015V36.1799H53.89V35.3799Z" fill="#29383E"/>
<path d="M61.3401 35.3799H55.4651V36.1799H61.3401V35.3799Z" fill="#29383E"/>
<path d="M68.79 35.3799H62.915V36.1799H68.79V35.3799Z" fill="#29383E"/>
<path d="M68.7901 28.3999H40.5701V31.6199H68.7901V28.3999Z" fill="white"/>
<path d="M56.0751 29.71H54.4601V30.315H56.0751V29.71Z" fill="#29383E"/>
<path d="M61.8201 29.71H56.9801V30.315H61.8201V29.71Z" fill="#29383E"/>
<path d="M67.5651 29.71H62.7251V30.315H67.5651V29.71Z" fill="#29383E"/>
<path d="M73.465 20.23H35.885V25.965H73.465V20.23Z" fill="#29383E"/>
<path d="M41.53 34.3198H3.03003V56.6298H41.53V34.3198Z" fill="#8E53D8"/>
<path d="M21.87 69.5749C20.5934 69.5723 19.3697 69.0643 18.4665 68.162C17.5633 67.2598 17.054 66.0366 17.05 64.7599V5.25994C17.054 3.98281 17.5631 2.75913 18.4662 1.85606C19.3692 0.952987 20.5929 0.443897 21.87 0.439941H49.8701C51.1472 0.443897 52.3709 0.952987 53.2739 1.85606C54.177 2.75913 54.6861 3.98281 54.6901 5.25994V64.7599C54.6861 66.0366 54.1768 67.2598 53.2736 68.162C52.3704 69.0643 51.1467 69.5723 49.8701 69.5749H21.87Z" fill="#29383E"/>
<path d="M40.0351 64.5949C40.0357 64.7461 40.0064 64.896 39.9489 65.0358C39.8913 65.1756 39.8066 65.3027 39.6997 65.4096C39.5928 65.5165 39.4658 65.6012 39.3259 65.6587C39.1861 65.7163 39.0363 65.7456 38.8851 65.7449H32.8401C32.5355 65.7436 32.2437 65.622 32.0283 65.4067C31.813 65.1913 31.6914 64.8995 31.6901 64.5949V64.0949C31.6927 63.7903 31.8145 63.4988 32.0295 63.2829C32.2444 63.067 32.5354 62.9439 32.8401 62.9399H38.8851C39.1905 62.9413 39.483 63.0635 39.6985 63.28C39.9141 63.4965 40.0351 63.7895 40.0351 64.0949V64.5949Z" fill="#3F5E69"/>
<path d="M37.34 5.64496C37.341 5.93732 37.2551 6.22338 37.0932 6.46682C36.9312 6.71025 36.7006 6.90007 36.4306 7.01218C36.1606 7.12429 35.8633 7.15362 35.5766 7.09646C35.2899 7.0393 35.0266 6.89822 34.8203 6.69113C34.6139 6.48405 34.4737 6.2203 34.4175 5.93339C34.3613 5.64647 34.3917 5.34933 34.5047 5.0797C34.6177 4.81007 34.8083 4.5801 35.0523 4.41902C35.2963 4.25793 35.5826 4.17298 35.875 4.17496C36.068 4.1743 36.2592 4.2119 36.4376 4.2856C36.616 4.3593 36.7779 4.46763 36.9142 4.60434C37.0504 4.74104 37.1582 4.90339 37.2313 5.08201C37.3044 5.26063 37.3413 5.45197 37.34 5.64496Z" fill="#3F5E69"/>
<path d="M36.5001 5.64493C36.5021 5.73046 36.487 5.81554 36.4558 5.89521C36.4246 5.97487 36.3779 6.04753 36.3183 6.10896C36.2588 6.17038 36.1876 6.21934 36.1089 6.25298C36.0302 6.28663 35.9457 6.30428 35.8601 6.30492C35.7689 6.31288 35.6771 6.30179 35.5905 6.27237C35.5038 6.24294 35.4242 6.19581 35.3568 6.13398C35.2893 6.07215 35.2354 5.99697 35.1986 5.91321C35.1617 5.82945 35.1427 5.73893 35.1427 5.64742C35.1427 5.55591 35.1617 5.4654 35.1986 5.38164C35.2354 5.29788 35.2893 5.2227 35.3568 5.16087C35.4242 5.09904 35.5038 5.05191 35.5905 5.02248C35.6771 4.99305 35.7689 4.98197 35.8601 4.98993C36.0316 4.99256 36.1951 5.06289 36.315 5.18558C36.4349 5.30828 36.5014 5.47339 36.5001 5.64493Z" fill="#29383E"/>
<path d="M51.95 10.8799H19.78V59.1299H51.95V10.8799Z" fill="#F2F2F2"/>
<path d="M39.03 31.8198H0.530029V54.1298H39.03V31.8198Z" fill="#B389EF"/>
<path d="M37.8701 32.98H1.69006V52.985H37.8701V32.98Z" fill="#8E53D8"/>
<path d="M36.665 34.1799H2.89001V51.7799H36.665V34.1799Z" fill="#B389EF"/>
<path d="M13 43C13 41.6632 13.3963 40.3564 14.1389 39.2449C14.8815 38.1333 15.937 37.2668 17.1719 36.755C18.4068 36.2432 19.7658 36.1091 21.077 36.3695C22.3881 36.63 23.5927 37.2733 24.5383 38.2182C25.4839 39.1631 26.1281 40.3671 26.3895 41.6781C26.6509 42.9891 26.5177 44.3482 26.0069 45.5835C25.496 46.8188 24.6303 47.8749 23.5193 48.6183C22.4083 49.3617 21.1018 49.759 19.765 49.76C18.8768 49.7606 17.9973 49.5863 17.1765 49.2469C16.3558 48.9074 15.61 48.4096 14.9817 47.7818C14.3535 47.154 13.8551 46.4086 13.5151 45.5881C13.175 44.7676 13 43.8881 13 43Z" fill="#8E53D8"/>
<path d="M20.41 43.47H19.155C18.8903 43.4834 18.6256 43.4428 18.3771 43.3508C18.1285 43.2587 17.9013 43.117 17.7092 42.9344C17.5171 42.7518 17.3641 42.532 17.2596 42.2884C17.1551 42.0448 17.1012 41.7826 17.1012 41.5175C17.1012 41.2524 17.1551 40.9902 17.2596 40.7466C17.3641 40.503 17.5171 40.2832 17.7092 40.1006C17.9013 39.918 18.1285 39.7763 18.3771 39.6842C18.6256 39.5922 18.8903 39.5516 19.155 39.565H21.87V40.565H19.155C18.9033 40.5636 18.6611 40.6605 18.4799 40.8352C18.2986 41.0099 18.1929 41.2484 18.185 41.5C18.1849 41.7601 18.2861 42.01 18.4672 42.1967C18.6483 42.3834 18.8951 42.4922 19.155 42.5H20.41V43.47Z" fill="#B389EF"/>
<path d="M20.4101 46.3898H17.6951V45.3898H20.4101C20.5374 45.3899 20.6635 45.3647 20.7811 45.3158C20.8986 45.2669 21.0053 45.1952 21.0951 45.1048C21.2287 44.9689 21.3193 44.7967 21.3556 44.6096C21.3919 44.4225 21.3723 44.2289 21.2992 44.0529C21.2262 43.8769 21.1029 43.7263 20.9447 43.6199C20.7866 43.5136 20.6006 43.4562 20.4101 43.4548H19.1551V42.4548H20.4101C20.9108 42.4802 21.3827 42.6969 21.7281 43.0603C22.0736 43.4237 22.2662 43.9059 22.2662 44.4073C22.2662 44.9087 22.0736 45.3909 21.7281 45.7543C21.3827 46.1177 20.9108 46.3345 20.4101 46.3598V46.3898Z" fill="#B389EF"/>
<path d="M20.275 39.22H19.29V46.73H20.275V39.22Z" fill="#B389EF"/>
<path d="M37.8701 38.46V33H32.3701C32.613 34.3657 33.2717 35.6231 34.2561 36.6003C35.2405 37.5776 36.5027 38.2271 37.8701 38.46Z" fill="#8E53D8"/>
<path d="M1.69006 47.5V53H7.19006C6.95466 51.627 6.29931 50.3608 5.31429 49.3758C4.32927 48.3908 3.06305 47.7354 1.69006 47.5Z" fill="#8E53D8"/>
<path d="M1.69006 38.46C3.06276 38.2239 4.3286 37.5683 5.3135 36.5834C6.29839 35.5985 6.95397 34.3327 7.19006 32.96H1.69006V38.46Z" fill="#8E53D8"/>
<path d="M32.385 53H37.885V47.5C36.5123 47.7361 35.2465 48.3917 34.2616 49.3766C33.2767 50.3615 32.6211 51.6273 32.385 53Z" fill="#8E53D8"/>
<path d="M65.74 62.4999C65.74 63.842 65.342 65.154 64.5962 66.2699C63.8505 67.3858 62.7905 68.2555 61.5504 68.7688C60.3103 69.2822 58.9458 69.4163 57.6295 69.1541C56.3132 68.8919 55.1043 68.2452 54.1556 67.2958C53.2069 66.3464 52.561 65.137 52.2998 63.8205C52.0386 62.504 52.1736 61.1396 52.688 59.8999C53.2023 58.6602 54.0727 57.6008 55.1891 56.8559C56.3056 56.111 57.6179 55.7139 58.96 55.7148C60.7587 55.7162 62.4832 56.4316 63.7545 57.7039C65.0259 58.9762 65.74 60.7012 65.74 62.4999Z" fill="#FFBB33"/>
<path d="M64.38 62.5C64.38 63.5731 64.0617 64.6222 63.4654 65.5144C62.8691 66.4067 62.0215 67.102 61.0299 67.5125C60.0384 67.9229 58.9473 68.0301 57.8948 67.8203C56.8423 67.6106 55.8757 67.0934 55.1172 66.3342C54.3587 65.575 53.8424 64.6079 53.6337 63.5553C53.4249 62.5026 53.5331 61.4116 53.9444 60.4204C54.3558 59.4292 55.0519 58.5823 55.9447 57.9868C56.8375 57.3913 57.8869 57.074 58.96 57.075C59.6722 57.075 60.3774 57.2153 61.0353 57.488C61.6932 57.7607 62.291 58.1604 62.7943 58.6642C63.2977 59.168 63.6968 59.7661 63.9689 60.4243C64.241 61.0824 64.3807 61.7878 64.38 62.5Z" fill="#FFD85C"/>
<path d="M59.5301 62.9349H58.3851C57.9143 62.9322 57.4636 62.7437 57.1311 62.4103C56.7987 62.0769 56.6114 61.6257 56.6101 61.1549C56.6101 60.6841 56.7971 60.2326 57.13 59.8998C57.4629 59.5669 57.9143 59.3799 58.3851 59.3799H60.8551V60.2749H58.3851C58.1531 60.2758 57.9306 60.3673 57.7651 60.5299C57.6824 60.6116 57.6169 60.7089 57.5722 60.8162C57.5276 60.9235 57.5048 61.0387 57.5051 61.1549C57.5064 61.3883 57.5994 61.6119 57.764 61.7775C57.9286 61.943 58.1517 62.0373 58.3851 62.0399H59.5301V62.9349Z" fill="#FFBB33"/>
<path d="M59.5299 65.5899H57.0599V64.6949H59.5299C59.6459 64.6962 59.7609 64.6744 59.8683 64.6306C59.9757 64.5869 60.0732 64.5221 60.1552 64.4401C60.2372 64.3581 60.3019 64.2606 60.3457 64.1532C60.3894 64.0459 60.4113 63.9308 60.4099 63.8149C60.4073 63.5823 60.3138 63.36 60.1493 63.1955C59.9849 63.031 59.7625 62.9375 59.5299 62.9349H58.3849V62.0399H59.5299C59.9977 62.0352 60.4486 62.2148 60.7849 62.5399C60.948 62.705 61.0762 62.9012 61.1621 63.1167C61.248 63.3323 61.2898 63.5629 61.2849 63.7949C61.2849 64.2656 61.0979 64.7171 60.7651 65.05C60.4322 65.3829 59.9807 65.5699 59.5099 65.5699L59.5299 65.5899Z" fill="#FFBB33"/>
<path d="M59.405 59.0698H58.51V65.9048H59.405V59.0698Z" fill="#FFBB33"/>
<path d="M4.5 10.56C4.5 11.2888 4.71612 12.0013 5.12103 12.6073C5.52595 13.2133 6.10147 13.6856 6.77481 13.9645C7.44816 14.2434 8.18909 14.3164 8.90391 14.1742C9.61873 14.032 10.2753 13.681 10.7907 13.1657C11.306 12.6503 11.657 11.9937 11.7992 11.2789C11.9414 10.5641 11.8684 9.82316 11.5895 9.14981C11.3106 8.47647 10.8383 7.90095 10.2323 7.49603C9.62628 7.09112 8.91383 6.875 8.185 6.875C7.70108 6.875 7.2219 6.97031 6.77481 7.1555C6.32773 7.34069 5.9215 7.61213 5.57931 7.95431C5.23713 8.2965 4.96569 8.70273 4.7805 9.14981C4.59532 9.5969 4.5 10.0761 4.5 10.56Z" fill="#FFBB33"/>
<path d="M4.17005 10.5599C4.16906 11.2901 4.38476 12.0042 4.78984 12.6118C5.19492 13.2194 5.77117 13.6931 6.44563 13.973C7.1201 14.2529 7.86245 14.3264 8.5787 14.1842C9.29496 14.042 9.95291 13.6905 10.4693 13.1741C10.9856 12.6577 11.3372 11.9998 11.4794 11.2835C11.6216 10.5673 11.5481 9.82493 11.2682 9.15047C10.9883 8.476 10.5146 7.89976 9.90698 7.49467C9.2994 7.08959 8.58528 6.87389 7.85505 6.87488C7.37112 6.87488 6.89194 6.9702 6.44486 7.15538C5.99777 7.34057 5.59154 7.61201 5.24936 7.95419C4.90717 8.29638 4.63574 8.70261 4.45055 9.14969C4.26536 9.59678 4.17005 10.076 4.17005 10.5599Z" fill="#FFD85C"/>
<path d="M5.15503 10.56C5.15405 11.0954 5.31198 11.6191 5.60882 12.0647C5.90567 12.5103 6.32808 12.8578 6.82256 13.0631C7.31704 13.2685 7.86134 13.3225 8.38652 13.2183C8.91171 13.114 9.39415 12.8563 9.77275 12.4777C10.1514 12.0991 10.4091 11.6167 10.5133 11.0915C10.6175 10.5663 10.5635 10.022 10.3582 9.52752C10.1528 9.03304 9.80533 8.61063 9.35973 8.31378C8.91413 8.01693 8.39046 7.859 7.85503 7.85999C7.13935 7.86131 6.45337 8.1462 5.9473 8.65226C5.44124 9.15832 5.15636 9.84431 5.15503 10.56Z" fill="#FFCA40"/>
<path d="M5.50007 10.56C5.50063 9.87845 5.75844 9.22224 6.22194 8.72258C6.68545 8.22292 7.32049 7.91664 8.00007 7.86499H7.83507C7.13843 7.89496 6.48028 8.19279 5.99794 8.69632C5.5156 9.19986 5.24634 9.87021 5.24634 10.5675C5.24634 11.2648 5.5156 11.9351 5.99794 12.4387C6.48028 12.9422 7.13843 13.24 7.83507 13.27H8.00007C7.3179 13.2182 6.68071 12.9098 6.21683 12.4069C5.75295 11.9041 5.49684 11.2441 5.50007 10.56Z" fill="#FFBB33"/>
<path d="M4.5 22.935C4.5 23.6638 4.71612 24.3763 5.12103 24.9823C5.52595 25.5883 6.10147 26.0606 6.77481 26.3395C7.44816 26.6184 8.18909 26.6914 8.90391 26.5492C9.61873 26.407 10.2753 26.056 10.7907 25.5407C11.306 25.0253 11.657 24.3687 11.7992 23.6539C11.9414 22.9391 11.8684 22.1982 11.5895 21.5248C11.3106 20.8515 10.8383 20.2759 10.2323 19.871C9.62628 19.4661 8.91383 19.25 8.185 19.25C7.20809 19.2513 6.27156 19.64 5.58077 20.3308C4.88999 21.0216 4.50132 21.9581 4.5 22.935Z" fill="#FFBB33"/>
<path d="M4.17005 22.935C4.16906 23.6652 4.38476 24.3794 4.78984 24.9869C5.19492 25.5945 5.77117 26.0683 6.44563 26.3482C7.1201 26.6281 7.86245 26.7016 8.5787 26.5593C9.29496 26.4171 9.95291 26.0656 10.4693 25.5492C10.9856 25.0329 11.3372 24.3749 11.4794 23.6587C11.6216 22.9424 11.5481 22.2001 11.2682 21.5256C10.9883 20.8511 10.5146 20.2749 9.90698 19.8698C9.2994 19.4647 8.58528 19.249 7.85505 19.25C6.87813 19.2513 5.9416 19.64 5.25082 20.3308C4.56003 21.0216 4.17137 21.9581 4.17005 22.935Z" fill="#FFD85C"/>
<path d="M5.15503 22.935C5.15503 23.4702 5.3138 23.9934 5.61125 24.4383C5.9087 24.8833 6.33146 25.23 6.82603 25.4346C7.32059 25.6391 7.86473 25.6924 8.38959 25.5876C8.91444 25.4829 9.39642 25.2247 9.77452 24.8459C10.1526 24.4671 10.4099 23.9847 10.5137 23.4596C10.6175 22.9346 10.5632 22.3905 10.3577 21.8964C10.1522 21.4022 9.8047 20.9801 9.3592 20.6834C8.91371 20.3868 8.39024 20.229 7.85503 20.23C7.13848 20.2313 6.45174 20.5169 5.94554 21.024C5.43933 21.5312 5.15503 22.2184 5.15503 22.935Z" fill="#FFCA40"/>
<path d="M5.50001 22.935C5.4994 22.2531 5.75681 21.5962 6.22055 21.0963C6.68428 20.5964 7.32 20.2905 8.00001 20.24H7.835C7.11759 20.24 6.42957 20.525 5.92228 21.0323C5.415 21.5396 5.13 22.2276 5.13 22.945C5.13 23.6624 5.415 24.3504 5.92228 24.8577C6.42957 25.365 7.11759 25.65 7.835 25.65H8.00001C7.31654 25.5992 6.67794 25.2905 6.2137 24.7863C5.74946 24.2822 5.49432 23.6203 5.50001 22.935Z" fill="#FFBB33"/>
<path d="M43.2 21.7399C43.0375 21.9064 42.8185 22.006 42.5861 22.019C42.3538 22.0319 42.125 21.9573 41.945 21.8099C40.2376 20.3867 38.0852 19.6073 35.8625 19.6073C33.6398 19.6073 31.4874 20.3867 29.78 21.8099C29.6008 21.957 29.3729 22.0314 29.1414 22.0185C28.9099 22.0055 28.6917 21.9061 28.53 21.7399C28.4367 21.6468 28.3638 21.5353 28.3159 21.4125C28.268 21.2897 28.2462 21.1583 28.2518 21.0266C28.2575 20.895 28.2905 20.7659 28.3487 20.6477C28.4069 20.5294 28.4891 20.4246 28.59 20.3398C30.6344 18.6405 33.2091 17.7102 35.8675 17.7102C38.526 17.7102 41.1006 18.6405 43.145 20.3398C43.2456 20.425 43.3274 20.5301 43.3851 20.6485C43.4429 20.7669 43.4754 20.8961 43.4806 21.0277C43.4858 21.1594 43.4635 21.2907 43.4152 21.4133C43.3669 21.5359 43.2936 21.6471 43.2 21.7399Z" fill="#242D3C"/>
<path d="M40.5 24.4449C40.3382 24.6046 40.1243 24.7005 39.8974 24.7152C39.6706 24.7299 39.4461 24.6624 39.265 24.5249C38.2828 23.7902 37.0892 23.3931 35.8625 23.3931C34.6359 23.3931 33.4422 23.7902 32.46 24.5249C32.2796 24.6624 32.0553 24.7295 31.829 24.7139C31.6027 24.6983 31.3899 24.6009 31.23 24.4399C31.1341 24.3453 31.0595 24.2313 31.0113 24.1056C30.963 23.9798 30.9422 23.8451 30.9503 23.7107C30.9583 23.5762 30.9951 23.445 31.058 23.3258C31.1209 23.2067 31.2085 23.1024 31.315 23.0199C32.6269 22.0359 34.2252 21.5091 35.865 21.5199C37.5041 21.5142 39.1008 22.0405 40.415 23.0199C40.5217 23.1029 40.6094 23.2076 40.6723 23.3272C40.7353 23.4467 40.772 23.5783 40.78 23.7132C40.7881 23.8481 40.7673 23.9831 40.719 24.1093C40.6707 24.2355 40.5961 24.3499 40.5 24.4449Z" fill="#242D3C"/>
<path d="M37.5451 25.6899C37.0205 25.4299 36.443 25.2947 35.8576 25.2947C35.2721 25.2947 34.6946 25.4299 34.1701 25.6899C34.0189 25.7655 33.892 25.882 33.8036 26.026C33.7153 26.17 33.669 26.3359 33.6701 26.5049C33.6697 26.6323 33.6948 26.7585 33.7437 26.8761C33.7926 26.9937 33.8645 27.1004 33.9551 27.1899C34.085 27.3289 34.2557 27.4232 34.4425 27.4591C34.6294 27.495 34.8228 27.4708 34.9951 27.3899C35.26 27.2582 35.5517 27.1897 35.8476 27.1897C36.1434 27.1897 36.4352 27.2582 36.7001 27.3899C36.8732 27.4704 37.0673 27.4945 37.2548 27.4586C37.4424 27.4227 37.6139 27.3287 37.7451 27.1899C37.835 27.1001 37.906 26.9933 37.9541 26.8757C38.0022 26.758 38.0263 26.632 38.0251 26.5049C38.028 26.338 37.9847 26.1736 37.9 26.0297C37.8153 25.8859 37.6925 25.7683 37.5451 25.6899Z" fill="#242D3C"/>
</svg>
