<svg width="72" height="80" viewBox="0 0 72 80" fill="none" xmlns="http://www.w3.org/2000/svg">
<path d="M24.5 26.835C24.499 27.5037 24.6964 28.1577 25.0672 28.7141C25.438 29.2706 25.9655 29.7046 26.5831 29.9612C27.2006 30.2178 27.8804 30.2855 28.5363 30.1556C29.1923 30.0258 29.795 29.7043 30.2682 29.2318C30.7415 28.7592 31.0639 28.157 31.1947 27.5012C31.3255 26.8454 31.2589 26.1656 31.0032 25.5476C30.7475 24.9297 30.3143 24.4016 29.7584 24.0299C29.2024 23.6583 28.5487 23.46 27.88 23.46C26.9844 23.46 26.1255 23.8154 25.4917 24.4482C24.858 25.081 24.5013 25.9394 24.5 26.835Z" fill="#B389EF"/>
<path d="M26.33 23.0649C26.329 23.3687 26.4182 23.666 26.5862 23.9191C26.7543 24.1722 26.9937 24.3697 27.2741 24.4866C27.5545 24.6036 27.8633 24.6347 28.1613 24.576C28.4594 24.5174 28.7334 24.3716 28.9486 24.1571C29.1638 23.9426 29.3105 23.6691 29.3701 23.3712C29.4297 23.0733 29.3996 22.7644 29.2836 22.4837C29.1676 22.2029 28.9708 21.9629 28.7183 21.794C28.4657 21.6251 28.1688 21.5349 27.865 21.5349C27.6636 21.5343 27.4641 21.5733 27.2779 21.6499C27.0917 21.7265 26.9225 21.8391 26.7799 21.9813C26.6373 22.1234 26.5241 22.2923 26.4469 22.4783C26.3697 22.6642 26.33 22.8636 26.33 23.0649Z" fill="#B389EF"/>
<path d="M10.765 26.16C10.765 26.962 11.0028 27.746 11.4483 28.4128C11.8939 29.0797 12.5272 29.5994 13.2682 29.9063C14.0091 30.2132 14.8245 30.2935 15.611 30.1371C16.3976 29.9806 17.1202 29.5944 17.6873 29.0273C18.2544 28.4602 18.6406 27.7377 18.797 26.9511C18.9535 26.1645 18.8732 25.3492 18.5663 24.6082C18.2594 23.8672 17.7396 23.2339 17.0728 22.7884C16.406 22.3428 15.622 22.105 14.82 22.105C13.7445 22.105 12.7131 22.5322 11.9526 23.2927C11.1922 24.0531 10.765 25.0845 10.765 26.16Z" fill="#B389EF"/>
<path d="M14.65 24.1851C14.649 25.4928 15.0359 26.7715 15.7619 27.8593C16.4878 28.9471 17.5201 29.795 18.7281 30.296C19.9361 30.7969 21.2656 30.9282 22.5483 30.6733C23.831 30.4184 25.0092 29.7888 25.9339 28.8641C26.8587 27.9393 27.4883 26.7611 27.7432 25.4784C27.9981 24.1957 27.8668 22.8663 27.3658 21.6582C26.8649 20.4502 26.0169 19.4179 24.9292 18.692C23.8414 17.966 22.5627 17.5791 21.255 17.5801C19.5032 17.5801 17.8232 18.276 16.5845 19.5146C15.3458 20.7533 14.65 22.4333 14.65 24.1851Z" fill="#B389EF"/>
<path d="M28.55 21.7C28.6545 21.9114 28.7093 22.144 28.71 22.38C28.7107 22.5813 28.6716 22.7808 28.595 22.967C28.5184 23.1532 28.4058 23.3225 28.2636 23.4651C28.1215 23.6077 27.9526 23.7208 27.7667 23.798C27.5807 23.8752 27.3813 23.915 27.18 23.9149C26.9435 23.9143 26.7105 23.8578 26.5 23.7499C26.6081 23.967 26.7662 24.1552 26.9614 24.2991C27.1565 24.4431 27.3831 24.5385 27.6224 24.5777C27.8616 24.6169 28.1068 24.5986 28.3377 24.5244C28.5685 24.4502 28.7784 24.3222 28.9501 24.151C29.1217 23.9797 29.2502 23.7702 29.325 23.5395C29.3997 23.3088 29.4186 23.0637 29.38 22.8243C29.3414 22.5849 29.2465 22.3582 29.1031 22.1627C28.9596 21.9672 28.7718 21.8086 28.555 21.7H28.55Z" fill="#8E53D8"/>
<path d="M18.28 22.6599C18.4715 23.0147 18.5712 23.4117 18.57 23.8149C18.569 24.2377 18.4586 24.6531 18.2496 25.0206C18.0405 25.3881 17.74 25.6952 17.3771 25.9122C17.0142 26.1291 16.6013 26.2484 16.1786 26.2585C15.7559 26.2687 15.3378 26.1692 14.965 25.9699C15.1456 26.3054 15.4021 26.5941 15.714 26.8129C16.026 27.0317 16.3848 27.1745 16.7617 27.23C17.1387 27.2855 17.5235 27.2522 17.8852 27.1326C18.247 27.013 18.5759 26.8105 18.8455 26.5413C19.1151 26.2721 19.3181 25.9435 19.4382 25.5819C19.5584 25.2203 19.5923 24.8357 19.5374 24.4586C19.4824 24.0815 19.3401 23.7225 19.1218 23.4102C18.9035 23.098 18.6152 22.841 18.28 22.6599Z" fill="#8E53D8"/>
<path d="M51.8 55.1551C50.6401 55.1538 49.528 54.6924 48.7079 53.8722C47.8877 53.052 47.4263 51.94 47.425 50.7801H48.565C48.565 51.642 48.9074 52.4687 49.5169 53.0782C50.1264 53.6877 50.953 54.0301 51.815 54.0301C52.6769 54.0301 53.5036 53.6877 54.1131 53.0782C54.7226 52.4687 55.065 51.642 55.065 50.7801V47.7051H56.205V50.7801C56.2043 51.357 56.0897 51.928 55.8678 52.4605C55.6458 52.993 55.3208 53.4763 54.9115 53.8828C54.5022 54.2894 54.0166 54.611 53.4827 54.8293C52.9487 55.0477 52.3769 55.1584 51.8 55.1551Z" fill="#29383E"/>
<path d="M51.8 54.5801C52.8079 54.5788 53.7742 54.1781 54.4873 53.4659C55.2005 52.7537 55.6024 51.788 55.605 50.7801V47.7051H55.04V50.7801C55.04 51.642 54.6976 52.4687 54.0881 53.0782C53.4786 53.6877 52.652 54.0301 51.79 54.0301C50.928 54.0301 50.1014 53.6877 49.4919 53.0782C48.8824 52.4687 48.54 51.642 48.54 50.7801H48C48.0013 51.7875 48.4021 52.7533 49.1145 53.4656C49.8268 54.178 50.7926 54.5788 51.8 54.5801Z" fill="#3F5E69"/>
<path d="M24.265 20.4151C23.7522 20.4145 23.2446 20.3126 22.7713 20.1153C22.298 19.918 21.8684 19.6292 21.507 19.2655C21.1455 18.9017 20.8595 18.4702 20.6652 17.9957C20.471 17.5211 20.3724 17.0129 20.375 16.5001V13.7451H21.285V16.5001C21.285 17.2958 21.6011 18.0588 22.1637 18.6214C22.7263 19.184 23.4893 19.5001 24.285 19.5001L24.265 20.4151Z" fill="#242D3C"/>
<path d="M20.825 16.5001V13.7451H20.375V16.5001C20.375 17.5323 20.7847 18.5222 21.514 19.2525C22.2434 19.9828 23.2328 20.3938 24.265 20.3951V19.9451C23.8128 19.9451 23.3651 19.856 22.9474 19.6828C22.5297 19.5096 22.1503 19.2558 21.8308 18.9358C21.5113 18.6158 21.258 18.236 21.0854 17.8181C20.9128 17.4001 20.8243 16.9523 20.825 16.5001Z" fill="#3F5E69"/>
<path d="M42.36 35.2251V34.3151C42.7578 34.3151 43.1393 34.1571 43.4206 33.8758C43.702 33.5945 43.86 33.2129 43.86 32.8151V31.2451H44.77V32.8151C44.7713 33.132 44.7099 33.446 44.5892 33.739C44.4686 34.0319 44.2911 34.2981 44.0671 34.5222C43.843 34.7462 43.5768 34.9237 43.2838 35.0444C42.9908 35.165 42.6768 35.2264 42.36 35.2251Z" fill="#29383E"/>
<path d="M44.3 32.8249V31.2549H43.85V32.8249C43.85 33.2227 43.692 33.6042 43.4107 33.8855C43.1294 34.1669 42.7479 34.3249 42.35 34.3249V34.7749C42.6065 34.7762 42.8607 34.7267 43.0978 34.6292C43.335 34.5316 43.5505 34.388 43.7319 34.2067C43.9132 34.0254 44.0568 33.8099 44.1543 33.5727C44.2518 33.3355 44.3014 33.0813 44.3 32.8249Z" fill="#3F5E69"/>
<path d="M42.535 15.7801V14.8701C43.1269 14.8688 43.6941 14.6327 44.1121 14.2137C44.5302 13.7947 44.765 13.227 44.765 12.6351V10.4651H45.675V12.6351C45.675 13.4683 45.3443 14.2675 44.7556 14.8572C44.1669 15.4468 43.3682 15.7788 42.535 15.7801Z" fill="#29383E"/>
<path d="M45.215 12.6351V10.4651H44.765V12.6351C44.765 13.227 44.5302 13.7947 44.1121 14.2137C43.6941 14.6327 43.1269 14.8688 42.535 14.8701V15.3201C43.2458 15.3174 43.9267 15.0336 44.4289 14.5304C44.931 14.0273 45.2136 13.3459 45.215 12.6351Z" fill="#3F5E69"/>
<path d="M36.265 36.855H32.03C29.0463 36.855 26.1848 35.6697 24.075 33.5599C21.9652 31.4501 20.78 28.5887 20.78 25.605C20.78 22.6213 21.9652 19.7598 24.075 17.65C26.1848 15.5402 29.0463 14.355 32.03 14.355H40.5C43.481 14.355 46.3399 15.5392 48.4479 17.6471C50.5558 19.755 51.74 22.6139 51.74 25.595H49C49 24.4787 48.7801 23.3734 48.3529 22.3422C47.9258 21.3109 47.2997 20.3739 46.5104 19.5846C45.7211 18.7953 44.784 18.1692 43.7528 17.742C42.7215 17.3148 41.6162 17.095 40.5 17.095H32.03C29.7756 17.095 27.6136 17.9905 26.0196 19.5846C24.4255 21.1786 23.53 23.3406 23.53 25.595C23.53 27.8493 24.4255 30.0113 26.0196 31.6054C27.6136 33.1994 29.7756 34.095 32.03 34.095H36.265V36.855Z" fill="#29383E"/>
<path d="M48.445 17.66C47.4033 16.6148 46.1649 15.7864 44.8012 15.2225C43.4375 14.6587 41.9756 14.3707 40.5 14.375H32.03C29.0463 14.375 26.1848 15.5603 24.075 17.6701C21.9652 19.7799 20.78 22.6414 20.78 25.625C20.78 28.6087 21.9652 31.4702 24.075 33.58C26.1848 35.6898 29.0463 36.875 32.03 36.875H36.265V35.5H32.03C30.7319 35.5 29.4464 35.2444 28.2471 34.7476C27.0478 34.2508 25.9581 33.5227 25.0402 32.6048C24.1223 31.6869 23.3942 30.5972 22.8974 29.3979C22.4007 28.1986 22.145 26.9132 22.145 25.6151C22.145 24.3169 22.4007 23.0315 22.8974 21.8322C23.3942 20.6329 24.1223 19.5432 25.0402 18.6253C25.9581 17.7074 27.0478 16.9793 28.2471 16.4825C29.4464 15.9857 30.7319 15.73 32.03 15.73H40.5C41.7998 15.7253 43.0878 15.9782 44.2893 16.4743C45.4908 16.9703 46.5821 17.6996 47.5 18.62C48.4231 19.5365 49.1548 20.6272 49.6527 21.8289C50.1505 23.0306 50.4045 24.3193 50.4 25.62H51.76C51.7627 24.1397 51.471 22.6737 50.9019 21.3071C50.3328 19.9406 49.4976 18.7008 48.445 17.66Z" fill="#3F5E69"/>
<path d="M40.5 56.6H32.03C29.049 56.6 26.1901 55.4158 24.0822 53.3079C21.9742 51.2 20.79 48.341 20.79 45.36H23.525C23.525 47.6143 24.4206 49.7763 26.0146 51.3704C27.6087 52.9645 29.7707 53.86 32.025 53.86H40.5C42.7544 53.86 44.9164 52.9645 46.5104 51.3704C48.1045 49.7763 49 47.6143 49 45.36C49 43.1057 48.1045 40.9437 46.5104 39.3496C44.9164 37.7555 42.7544 36.86 40.5 36.86H36.26V34.125H40.5C43.4837 34.125 46.3452 35.3103 48.455 37.42C50.5648 39.5298 51.75 42.3913 51.75 45.375C51.75 48.3587 50.5648 51.2202 48.455 53.3299C46.3452 55.4397 43.4837 56.625 40.5 56.625V56.6Z" fill="#3F5E69"/>
<path d="M48.445 37.4099C47.4036 36.364 46.1653 35.5348 44.8017 34.9701C43.438 34.4054 41.976 34.1164 40.5 34.1199H36.26V35.4999H40.5C42.4592 35.492 44.3764 36.0671 46.0079 37.1519C47.6393 38.2368 48.9111 39.7824 49.6616 41.5921C50.4121 43.4018 50.6073 45.3939 50.2224 47.3149C49.8375 49.2359 48.8898 50.999 47.5 52.3799C46.5686 53.3176 45.456 54.0559 44.23 54.5499C43.0509 55.0254 41.7914 55.2699 40.52 55.2699H32.03C30.7304 55.2733 29.4428 55.0197 28.2415 54.5237C27.0402 54.0278 25.9488 53.2992 25.03 52.3799C24.0914 51.4482 23.3515 50.3358 22.855 49.1099C22.3751 47.9267 22.1289 46.6617 22.13 45.3849H20.79C20.79 48.3659 21.9742 51.2249 24.0822 53.3328C26.1901 55.4407 29.049 56.6249 32.03 56.6249H40.5C42.7239 56.6262 44.8982 55.9674 46.7474 54.732C48.5966 53.4966 50.0376 51.7402 50.8878 49.6853C51.7381 47.6304 51.9593 45.3693 51.5236 43.1885C51.0878 41.0077 50.0147 39.0053 48.44 37.4349L48.445 37.4099Z" fill="#29383E"/>
<path d="M38.43 9.18994H34.1V60.8799H38.43V9.18994Z" fill="#29383E"/>
<path d="M36.27 9.18994H34.1V60.8799H36.27V9.18994Z" fill="#3F5E69"/>
<path d="M13.375 46.27C13.375 47.5357 12.9994 48.7729 12.2958 49.825C11.5922 50.8771 10.5923 51.6967 9.42258 52.1801C8.25288 52.6636 6.96604 52.789 5.72499 52.5406C4.48393 52.2923 3.34449 51.6812 2.45094 50.7849C1.55738 49.8885 0.949903 48.7471 0.705414 47.5053C0.460924 46.2635 0.590422 44.9771 1.07751 43.8089C1.5646 42.6407 2.38738 41.6433 3.44166 40.943C4.49594 40.2428 5.73431 39.8711 6.99996 39.875C8.69296 39.879 10.3152 40.5547 11.5105 41.7537C12.7057 42.9527 13.3763 44.577 13.375 46.27Z" fill="#B389EF"/>
<path d="M30.28 40.725C30.281 41.4421 30.0692 42.1435 29.6715 42.7403C29.2738 43.3371 28.708 43.8025 28.0457 44.0776C27.3834 44.3527 26.6543 44.4252 25.9508 44.2859C25.2473 44.1466 24.6009 43.8018 24.0935 43.295C23.586 42.7882 23.2403 42.1423 23.1 41.439C22.9597 40.7357 23.0312 40.0066 23.3054 39.3439C23.5796 38.6812 24.0443 38.1148 24.6405 37.7163C25.2367 37.3177 25.9378 37.105 26.655 37.105C27.6155 37.105 28.5368 37.4862 29.2165 38.165C29.8961 38.8437 30.2786 39.7644 30.28 40.725Z" fill="#B389EF"/>
<path d="M31.78 47.2349C31.78 48.1912 31.4964 49.126 30.9651 49.9211C30.4339 50.7162 29.6787 51.3359 28.7953 51.7019C27.9118 52.0678 26.9396 52.1636 26.0017 51.977C25.0638 51.7904 24.2023 51.3299 23.5261 50.6538C22.8499 49.9776 22.3895 49.1161 22.2029 48.1782C22.0163 47.2403 22.1121 46.2681 22.478 45.3846C22.844 44.5011 23.4637 43.746 24.2588 43.2147C25.0539 42.6835 25.9887 42.3999 26.945 42.3999C28.2273 42.3999 29.4571 42.9093 30.3638 43.816C31.2706 44.7228 31.78 45.9526 31.78 47.2349Z" fill="#B389EF"/>
<path d="M25.195 40.7249C25.195 42.4209 24.6921 44.0788 23.7498 45.4889C22.8076 46.8991 21.4684 47.9981 19.9015 48.6472C18.3346 49.2962 16.6105 49.466 14.9471 49.1351C13.2837 48.8043 11.7558 47.9876 10.5565 46.7883C9.35731 45.5891 8.54062 44.0612 8.20975 42.3978C7.87888 40.7344 8.0487 39.0103 8.69772 37.4434C9.34674 35.8765 10.4458 34.5373 11.856 33.595C13.2661 32.6528 14.924 32.1499 16.62 32.1499C17.7461 32.1499 18.8611 32.3717 19.9015 32.8026C20.9419 33.2336 21.8872 33.8652 22.6834 34.6615C23.4797 35.4577 24.1113 36.403 24.5423 37.4434C24.9732 38.4838 25.195 39.5988 25.195 40.7249Z" fill="#B389EF"/>
<path d="M24.8699 47.805C24.8699 49.2498 24.4415 50.6621 23.6388 51.8634C22.8362 53.0647 21.6953 54.001 20.3605 54.5539C19.0256 55.1068 17.5568 55.2515 16.1398 54.9696C14.7228 54.6878 13.4212 53.992 12.3995 52.9704C11.3779 51.9488 10.6822 50.6472 10.4003 49.2301C10.1185 47.8131 10.2631 46.3443 10.816 45.0095C11.3689 43.6747 12.3052 42.5338 13.5065 41.7311C14.7078 40.9284 16.1202 40.5 17.5649 40.5C18.5243 40.5 19.4742 40.689 20.3605 41.0561C21.2467 41.4232 22.052 41.9613 22.7304 42.6396C23.4087 43.3179 23.9468 44.1232 24.3139 45.0095C24.681 45.8958 24.8699 46.8457 24.8699 47.805Z" fill="#B389EF"/>
<path d="M29.64 43.2151C30.1279 43.9418 30.4093 44.7872 30.4544 45.6613C30.4994 46.5354 30.3063 47.4054 29.8957 48.1783C29.4851 48.9513 28.8724 49.5983 28.1229 50.0504C27.3734 50.5024 26.5153 50.7425 25.64 50.7451C24.6798 50.7481 23.7408 50.4624 22.945 49.9251C23.3432 50.5175 23.8676 51.0144 24.4806 51.3801C25.0936 51.7458 25.78 51.9712 26.4905 52.0402C27.2009 52.1092 27.9178 52.02 28.5897 51.779C29.2616 51.5381 29.8719 51.1514 30.3766 50.6467C30.8813 50.1419 31.268 49.5317 31.509 48.8598C31.7499 48.1879 31.8391 47.471 31.7701 46.7605C31.7011 46.0501 31.4757 45.3637 31.11 44.7507C30.7443 44.1377 30.2474 43.6133 29.655 43.2151H29.64Z" fill="#8E53D8"/>
<path d="M20.235 37.585C20.8549 38.7081 21.0928 40.0024 20.9129 41.2726C20.733 42.5428 20.145 43.7201 19.2376 44.6269C18.3302 45.5338 17.1525 46.1211 15.8822 46.3002C14.6119 46.4793 13.3178 46.2406 12.195 45.62C12.6393 46.4193 13.263 47.1047 14.017 47.6221C14.7711 48.1395 15.635 48.4749 16.5407 48.6018C17.4463 48.7287 18.3691 48.6437 19.2363 48.3535C20.1036 48.0633 20.8917 47.5757 21.5385 46.9293C22.1854 46.2828 22.6734 45.4951 22.9642 44.628C23.2549 43.7609 23.3405 42.8382 23.2141 41.9325C23.0878 41.0267 22.753 40.1626 22.236 39.4082C21.7191 38.6539 21.0341 38.0297 20.235 37.585Z" fill="#8E53D8"/>
<path d="M12.195 45.6201C12.3853 45.9591 12.4851 46.3414 12.485 46.7301C12.4834 47.1286 12.3782 47.5198 12.1796 47.8652C11.981 48.2107 11.6959 48.4985 11.3523 48.7003C11.0087 48.9021 10.6185 49.011 10.2201 49.0162C9.82165 49.0214 9.42872 48.9228 9.07996 48.7301C9.2532 49.0384 9.49551 49.3024 9.78789 49.5014C10.0803 49.7004 10.4148 49.829 10.7651 49.8771C11.1155 49.9252 11.4723 49.8914 11.8075 49.7785C12.1426 49.6656 12.4471 49.4766 12.697 49.2263C12.9468 48.976 13.1353 48.6713 13.2477 48.3359C13.3601 48.0006 13.3933 47.6438 13.3446 47.2935C13.296 46.9431 13.1669 46.6089 12.9674 46.3168C12.768 46.0247 12.5036 45.7829 12.195 45.6101V45.6201Z" fill="#8E53D8"/>
<path d="M27.46 40.7351C27.5966 40.9833 27.6688 41.2618 27.67 41.5451C27.6713 41.8385 27.5954 42.1271 27.4501 42.382C27.3048 42.6369 27.095 42.8492 26.8419 42.9975C26.5887 43.1459 26.301 43.2251 26.0076 43.2273C25.7142 43.2295 25.4253 43.1546 25.17 43.0101C25.2956 43.2369 25.4722 43.4315 25.6858 43.5785C25.8994 43.7255 26.1442 43.8209 26.4009 43.8572C26.6577 43.8934 26.9193 43.8696 27.1653 43.7876C27.4113 43.7055 27.6348 43.5675 27.8184 43.3843C28.0019 43.2012 28.1405 42.9779 28.2231 42.7321C28.3056 42.4864 28.33 42.2247 28.2943 41.9679C28.2586 41.7111 28.1638 41.4661 28.0172 41.2521C27.8707 41.0382 27.6765 40.8612 27.45 40.7351H27.46Z" fill="#8E53D8"/>
<path d="M26.33 7.02996C26.33 7.73604 26.5393 8.42626 26.9316 9.01335C27.3239 9.60043 27.8814 10.058 28.5338 10.3282C29.1861 10.5984 29.9039 10.6691 30.5964 10.5314C31.2889 10.3936 31.9251 10.0536 32.4243 9.55433C32.9236 9.05506 33.2636 8.41895 33.4014 7.72643C33.5391 7.03392 33.4684 6.31611 33.1982 5.66378C32.928 5.01145 32.4704 4.45389 31.8833 4.06161C31.2963 3.66934 30.606 3.45996 29.9 3.45996C28.9531 3.45996 28.0451 3.83609 27.3756 4.50559C26.7061 5.17509 26.33 6.08314 26.33 7.02996Z" fill="#B389EF"/>
<path d="M38.9 6.63994C38.9 7.17395 39.0583 7.69597 39.355 8.13998C39.6517 8.58399 40.0734 8.93006 40.5667 9.13442C41.0601 9.33877 41.603 9.39224 42.1267 9.28806C42.6505 9.18388 43.1315 8.92673 43.5091 8.54913C43.8867 8.17153 44.1439 7.69043 44.2481 7.16669C44.3523 6.64294 44.2988 6.10006 44.0944 5.6067C43.8901 5.11333 43.544 4.69165 43.1 4.39497C42.656 4.09829 42.134 3.93994 41.6 3.93994C41.2454 3.93994 40.8943 4.00978 40.5667 4.14547C40.2391 4.28115 39.9415 4.48003 39.6908 4.73075C39.4401 4.98147 39.2412 5.27912 39.1055 5.6067C38.9698 5.93427 38.9 6.28537 38.9 6.63994Z" fill="#B389EF"/>
<path d="M38 9.79511C37.997 10.1546 38.1012 10.5068 38.2991 10.8068C38.4971 11.1068 38.7799 11.3412 39.1116 11.4798C39.4432 11.6185 39.8086 11.6554 40.1613 11.5856C40.5139 11.5158 40.8378 11.3426 41.0916 11.0881C41.3454 10.8335 41.5177 10.5092 41.5865 10.1564C41.6553 9.80354 41.6174 9.43823 41.4778 9.10698C41.3382 8.77574 41.1031 8.49357 40.8025 8.29644C40.5019 8.09931 40.1494 7.99615 39.79 8.00011C39.3156 8.00405 38.8618 8.19458 38.5269 8.5305C38.1919 8.86642 38.0026 9.32071 38 9.79511Z" fill="#B389EF"/>
<path d="M31.3 4.785C31.3 5.73138 31.5806 6.65651 32.1064 7.4434C32.6322 8.23029 33.3795 8.8436 34.2538 9.20576C35.1282 9.56793 36.0903 9.66269 37.0185 9.47806C37.9467 9.29343 38.7993 8.8377 39.4685 8.16851C40.1377 7.49931 40.5934 6.64671 40.7781 5.71851C40.9627 4.79031 40.8679 3.8282 40.5058 2.95386C40.1436 2.07952 39.5303 1.3322 38.7434 0.806418C37.9565 0.280635 37.0314 0 36.085 0C34.8163 0.00132358 33.6 0.505881 32.7029 1.40296C31.8059 2.30003 31.3013 3.51635 31.3 4.785Z" fill="#B389EF"/>
<path d="M30.91 8.4001C30.91 9.20662 31.1491 9.99505 31.597 10.6658C32.0448 11.3365 32.6814 11.8595 33.4264 12.1686C34.1713 12.4777 34.9912 12.559 35.7823 12.4024C36.5735 12.2458 37.3005 11.8582 37.8715 11.2886C38.4425 10.719 38.8319 9.99296 38.9904 9.20218C39.149 8.4114 39.0696 7.59136 38.7623 6.84566C38.4551 6.09997 37.9337 5.46207 37.264 5.01256C36.5944 4.56304 35.8066 4.32207 35 4.3201C34.4632 4.31812 33.9313 4.42223 33.4348 4.62645C32.9384 4.83066 32.4872 5.13096 32.1071 5.51008C31.727 5.88921 31.4256 6.33969 31.2202 6.83565C31.0148 7.33161 30.9094 7.86327 30.91 8.4001Z" fill="#B389EF"/>
<path d="M42.805 4.22998C43.0789 4.73484 43.1843 5.31398 43.1058 5.88295C43.0274 6.45192 42.7693 6.98094 42.369 7.39289C41.9688 7.80483 41.4475 8.07814 40.881 8.17295C40.3145 8.26777 39.7326 8.17914 39.22 7.91998C39.4204 8.29461 39.7063 8.61666 40.0546 8.85997C40.4029 9.10328 40.8036 9.26096 41.2243 9.32021C41.645 9.37946 42.0738 9.3386 42.4757 9.20095C42.8776 9.0633 43.2414 8.83275 43.5374 8.52804C43.8335 8.22332 44.0534 7.85305 44.1794 7.44732C44.3054 7.04159 44.3339 6.61185 44.2625 6.19305C44.1912 5.77424 44.022 5.37819 43.7687 5.03708C43.5155 4.69598 43.1853 4.41945 42.805 4.22998Z" fill="#8E53D8"/>
<path d="M34.155 4.78491C34.2938 5.03946 34.366 5.32497 34.365 5.61491C34.3636 6.07817 34.1787 6.52201 33.8506 6.84912C33.5226 7.17622 33.0782 7.35991 32.615 7.35991C32.344 7.36092 32.0766 7.29751 31.835 7.17491C31.9655 7.41554 32.1508 7.62207 32.376 7.77783C32.6011 7.93358 32.8597 8.03417 33.1309 8.07149C33.4021 8.1088 33.6783 8.08178 33.9371 7.99261C34.196 7.90345 34.4302 7.75463 34.6209 7.5582C34.8116 7.36177 34.9533 7.12323 35.0348 6.86187C35.1162 6.6005 35.135 6.32364 35.0897 6.05367C35.0443 5.78369 34.9361 5.52817 34.7737 5.30777C34.6113 5.08736 34.3994 4.90825 34.155 4.78491Z" fill="#8E53D8"/>
<path d="M54.12 42.6201C54.12 43.9155 53.7358 45.1819 53.0161 46.2591C52.2964 47.3362 51.2734 48.1757 50.0765 48.6715C48.8797 49.1672 47.5627 49.2969 46.2921 49.0442C45.0215 48.7915 43.8544 48.1677 42.9384 47.2516C42.0224 46.3356 41.3986 45.1685 41.1458 43.8979C40.8931 42.6273 41.0228 41.3103 41.5186 40.1135C42.0143 38.9166 42.8538 37.8937 43.931 37.1739C45.0081 36.4542 46.2745 36.0701 47.57 36.0701C49.3067 36.0714 50.972 36.7619 52.2001 37.99C53.4281 39.2181 54.1186 40.8833 54.12 42.6201Z" fill="#B389EF"/>
<path d="M71.415 41.21C71.415 42.0011 71.1804 42.7744 70.7409 43.4322C70.3014 44.09 69.6767 44.6027 68.9458 44.9055C68.2149 45.2082 67.4106 45.2874 66.6347 45.1331C65.8588 44.9788 65.146 44.5978 64.5866 44.0384C64.0272 43.479 63.6462 42.7663 63.4919 41.9903C63.3376 41.2144 63.4168 40.4101 63.7195 39.6792C64.0223 38.9483 64.535 38.3236 65.1928 37.8841C65.8506 37.4446 66.6239 37.21 67.415 37.21C68.4759 37.21 69.4933 37.6314 70.2435 38.3815C70.9936 39.1317 71.415 40.1491 71.415 41.21Z" fill="#B389EF"/>
<path d="M55.9149 48.2249C55.9149 48.9016 55.7142 49.563 55.3382 50.1255C54.9622 50.688 54.4278 51.1264 53.8026 51.3851C53.1774 51.6438 52.4894 51.7112 51.8259 51.5788C51.1623 51.4465 50.553 51.1203 50.0749 50.6415C49.5968 50.1627 49.2715 49.5528 49.1401 48.8891C49.0087 48.2253 49.0771 47.5375 49.3367 46.9127C49.5963 46.2879 50.0355 45.7541 50.5985 45.3789C51.1616 45.0037 51.8233 44.8039 52.4999 44.8049C52.9488 44.8049 53.3933 44.8934 53.808 45.0654C54.2226 45.2373 54.5993 45.4893 54.9165 45.8069C55.2337 46.1246 55.4851 46.5016 55.6564 46.9165C55.8278 47.3314 55.9156 47.776 55.9149 48.2249Z" fill="#B389EF"/>
<path d="M55.145 46.0649C55.2015 46.3109 55.23 46.5625 55.23 46.8149C55.2352 47.5218 55.0209 48.2128 54.6167 48.7927C54.2125 49.3725 53.6383 49.8127 52.9734 50.0525C52.3085 50.2922 51.5855 50.3197 50.9043 50.1312C50.223 49.9427 49.6171 49.5474 49.17 48.9999C49.2827 49.5029 49.5079 49.9738 49.8285 50.3773C50.1492 50.7809 50.557 51.1066 51.0214 51.3301C51.4859 51.5536 51.9949 51.6691 52.5103 51.6679C53.0257 51.6667 53.5342 51.5488 53.9976 51.3231C54.4609 51.0974 54.8672 50.7698 55.186 50.3647C55.5047 49.9597 55.7276 49.4877 55.838 48.9843C55.9484 48.4808 55.9434 47.9589 55.8234 47.4576C55.7034 46.9564 55.4714 46.4888 55.145 46.0899V46.0649Z" fill="#8E53D8"/>
<path d="M66.665 39.1199C66.665 40.8989 66.1378 42.6379 65.1499 44.1174C64.1621 45.5969 62.758 46.7505 61.1149 47.4324C59.4718 48.1143 57.6635 48.294 55.9183 47.9488C54.1732 47.6035 52.5695 46.7488 51.3099 45.4926C50.0502 44.2365 49.1911 42.6352 48.841 40.891C48.4909 39.1468 48.6656 37.338 49.3429 35.693C50.0203 34.0481 51.1699 32.6408 52.6467 31.6488C54.1234 30.6569 55.861 30.1248 57.64 30.1199C58.824 30.1166 59.997 30.347 61.0918 30.7978C62.1866 31.2486 63.1817 31.911 64.0201 32.7471C64.8585 33.5831 65.5237 34.5764 65.9775 35.67C66.4314 36.7635 66.665 37.9359 66.665 39.1199Z" fill="#B389EF"/>
<path d="M67.47 44.9999C67.471 46.3351 67.076 47.6406 66.3349 48.7513C65.5938 49.862 64.5399 50.728 63.3066 51.2396C62.0733 51.7513 60.7159 51.8857 59.4062 51.6258C58.0965 51.3659 56.8933 50.7234 55.9488 49.7796C55.0043 48.8358 54.361 47.6331 54.1001 46.3236C53.8392 45.0141 53.9726 43.6566 54.4834 42.4229C54.9941 41.1892 55.8593 40.1347 56.9694 39.3928C58.0796 38.6509 59.3848 38.2549 60.72 38.2549C62.5094 38.2549 64.2255 38.9654 65.4912 40.2301C66.757 41.4949 67.4687 43.2105 67.47 44.9999Z" fill="#B389EF"/>
<path d="M69.5 37.8C69.969 38.5661 70.1665 39.4677 70.0607 40.3596C69.955 41.2515 69.5521 42.0819 68.917 42.717C68.2819 43.3522 67.4515 43.755 66.5595 43.8608C65.6676 43.9666 64.766 43.769 64 43.3001C64.3158 43.8159 64.7445 44.2534 65.2538 44.5797C65.7631 44.9059 66.3398 45.1125 66.9405 45.1837C67.5411 45.2549 68.1501 45.189 68.7216 44.9909C69.2931 44.7927 69.8122 44.4676 70.2399 44.0399C70.6676 43.6122 70.9927 43.0931 71.1908 42.5216C71.3889 41.9501 71.4548 41.3412 71.3836 40.7405C71.3124 40.1399 71.1059 39.5632 70.7796 39.0539C70.4534 38.5446 70.0159 38.1159 69.5 37.8Z" fill="#8E53D8"/>
<path d="M64 43.3201C64.2859 43.7837 64.4069 44.3303 64.3437 44.8713C64.2804 45.4123 64.0364 45.9162 63.6512 46.3013C63.2661 46.6865 62.7622 46.9305 62.2212 46.9937C61.6802 47.057 61.1336 46.9359 60.67 46.6501C60.8617 46.961 61.1213 47.2245 61.4294 47.4208C61.7374 47.6172 62.0859 47.7412 62.4488 47.7836C62.8116 47.8261 63.1793 47.7858 63.5243 47.6659C63.8694 47.546 64.1828 47.3495 64.4411 47.0912C64.6994 46.8329 64.8959 46.5195 65.0158 46.1744C65.1357 45.8294 65.176 45.4617 65.1335 45.0988C65.0911 44.736 64.9671 44.3875 64.7708 44.0795C64.5744 43.7714 64.3109 43.5118 64 43.3201Z" fill="#8E53D8"/>
<path d="M57 36.7849C57.5589 37.7621 57.7808 38.896 57.6316 40.0117C57.4824 41.1275 56.9703 42.1632 56.1743 42.9592C55.3783 43.7552 54.3426 44.2673 53.2268 44.4165C52.1111 44.5657 50.9772 44.3438 50 43.7849C50.3915 44.4695 50.9356 45.0546 51.59 45.4947C52.2444 45.9349 52.9915 46.2182 53.7732 46.3228C54.5548 46.4273 55.3501 46.3502 56.0972 46.0975C56.8442 45.8447 57.5229 45.4232 58.0806 44.8655C58.6382 44.3078 59.0598 43.6291 59.3126 42.8821C59.5653 42.135 59.6424 41.3398 59.5379 40.5581C59.4333 39.7764 59.15 39.0293 58.7098 38.3749C58.2697 37.7205 57.6846 37.1764 57 36.7849Z" fill="#8E53D8"/>
<path d="M47.255 23.38C47.251 23.8459 47.1092 24.3002 46.8475 24.6857C46.5858 25.0711 46.2159 25.3705 45.7843 25.546C45.3527 25.7216 44.8789 25.7655 44.4224 25.6722C43.9659 25.5789 43.5473 25.3526 43.2192 25.0217C42.8912 24.6909 42.6684 24.2703 42.5789 23.8131C42.4895 23.3559 42.5374 22.8824 42.7166 22.4523C42.8958 22.0222 43.1983 21.6548 43.5859 21.3964C43.9736 21.1379 44.429 21 44.8949 21C45.2066 21 45.5151 21.0617 45.8027 21.1815C46.0904 21.3014 46.3514 21.477 46.5708 21.6983C46.7902 21.9196 46.9637 22.1821 47.0811 22.4707C47.1985 22.7594 47.2576 23.0684 47.255 23.38Z" fill="#B389EF"/>
<path d="M57.29 23.0001C57.29 23.6251 57.1047 24.236 56.7575 24.7557C56.4103 25.2754 55.9167 25.6804 55.3393 25.9196C54.7619 26.1587 54.1265 26.2213 53.5135 26.0994C52.9006 25.9774 52.3375 25.6765 51.8956 25.2345C51.4536 24.7926 51.1527 24.2296 51.0308 23.6166C50.9088 23.0036 50.9714 22.3682 51.2106 21.7908C51.4497 21.2134 51.8548 20.7199 52.3744 20.3726C52.8941 20.0254 53.505 19.8401 54.13 19.8401C54.9681 19.8401 55.7719 20.173 56.3645 20.7656C56.9571 21.3582 57.29 22.162 57.29 23.0001Z" fill="#B389EF"/>
<path d="M54.13 22.155C54.131 23.0686 53.8611 23.9619 53.3545 24.7221C52.8479 25.4823 52.1273 26.0752 51.2838 26.426C50.4403 26.7767 49.5117 26.8695 48.6154 26.6926C47.7192 26.5157 46.8955 26.0771 46.2485 25.4322C45.6015 24.7872 45.1602 23.965 44.9804 23.0693C44.8006 22.1737 44.8904 21.2448 45.2384 20.4001C45.5863 19.5555 46.1769 18.8329 46.9355 18.3239C47.694 17.8148 48.5865 17.542 49.5 17.54C50.1071 17.5387 50.7086 17.6571 51.2699 17.8884C51.8313 18.1196 52.3415 18.4593 52.7715 18.8879C53.2015 19.3165 53.5428 19.8257 53.7759 20.3863C54.009 20.9469 54.1293 21.5479 54.13 22.155Z" fill="#B389EF"/>
<path d="M55.765 20.2849C56.1347 20.8888 56.2905 21.5996 56.2073 22.3028C56.1242 23.006 55.8068 23.6608 55.3064 24.1618C54.806 24.6629 54.1515 24.9809 53.4484 25.0649C52.7453 25.1489 52.0344 24.9939 51.43 24.6249C51.6778 25.0357 52.0159 25.3846 52.4186 25.6453C52.8213 25.9059 53.2781 26.0715 53.7543 26.1294C54.2305 26.1873 54.7137 26.136 55.1671 25.9794C55.6206 25.8228 56.0324 25.5651 56.3714 25.2257C56.7105 24.8863 56.9677 24.4741 57.1238 24.0205C57.2799 23.5669 57.3306 23.0837 57.2722 22.6075C57.2137 22.1314 57.0476 21.6748 56.7865 21.2724C56.5254 20.8699 56.176 20.5323 55.765 20.2849Z" fill="#8E53D8"/>
<path d="M48.66 21.6699C48.8298 21.9565 48.8993 22.2914 48.8576 22.6218C48.816 22.9523 48.6656 23.2594 48.4301 23.4949C48.1946 23.7304 47.8874 23.8809 47.5569 23.9225C47.2265 23.9642 46.8916 23.8946 46.605 23.7249C46.7216 23.9217 46.8815 24.0892 47.0727 24.2147C47.2639 24.3401 47.4813 24.4202 47.7081 24.4488C47.935 24.4774 48.1654 24.4537 48.3818 24.3796C48.5981 24.3055 48.7946 24.1829 48.9563 24.0212C49.118 23.8595 49.2406 23.663 49.3147 23.4467C49.3888 23.2303 49.4125 22.9999 49.3839 22.773C49.3553 22.5461 49.2752 22.3288 49.1498 22.1376C49.0243 21.9464 48.8568 21.7864 48.66 21.6699Z" fill="#8E53D8"/>
<path d="M21.83 14.3499C21.83 14.7297 21.9426 15.1009 22.1535 15.4166C22.3645 15.7324 22.6644 15.9785 23.0152 16.1238C23.366 16.2691 23.7521 16.3071 24.1245 16.233C24.497 16.159 24.8391 15.9761 25.1076 15.7076C25.3761 15.4391 25.559 15.0969 25.6331 14.7245C25.7071 14.3521 25.6691 13.966 25.5238 13.6152C25.3785 13.2643 25.1324 12.9645 24.8167 12.7535C24.5009 12.5425 24.1297 12.4299 23.75 12.4299C23.4978 12.4299 23.2481 12.4796 23.0152 12.5761C22.7823 12.6726 22.5706 12.814 22.3923 12.9923C22.214 13.1706 22.0726 13.3822 21.9761 13.6152C21.8796 13.8481 21.83 14.0978 21.83 14.3499Z" fill="#B389EF"/>
<path d="M17.425 13.045C17.424 13.6714 17.6089 14.284 17.9563 14.8053C18.3037 15.3265 18.798 15.733 19.3765 15.9731C19.955 16.2133 20.5918 16.2764 21.2062 16.1544C21.8206 16.0325 22.385 15.7309 22.828 15.288C23.2709 14.8451 23.5725 14.2807 23.6944 13.6662C23.8164 13.0518 23.7533 12.415 23.5131 11.8365C23.2729 11.258 22.8665 10.7637 22.3453 10.4163C21.824 10.0689 21.2114 9.88402 20.585 9.88501C19.7469 9.88501 18.9432 10.2179 18.3505 10.8106C17.7579 11.4032 17.425 12.2069 17.425 13.045Z" fill="#B389EF"/>
<path d="M16.445 14.9999C16.444 15.2661 16.522 15.5267 16.6692 15.7485C16.8164 15.9704 17.0261 16.1435 17.2718 16.2461C17.5175 16.3487 17.788 16.376 18.0493 16.3247C18.3105 16.2734 18.5506 16.1457 18.7392 15.9577C18.9278 15.7698 19.0564 15.5302 19.1087 15.2692C19.161 15.0081 19.1347 14.7374 19.033 14.4914C18.9314 14.2453 18.759 14.035 18.5377 13.8869C18.3164 13.7389 18.0562 13.6599 17.79 13.6599C17.6136 13.6593 17.4388 13.6934 17.2756 13.7605C17.1125 13.8275 16.9642 13.9261 16.8392 14.0506C16.7142 14.1751 16.6151 14.3231 16.5474 14.486C16.4798 14.6489 16.445 14.8235 16.445 14.9999Z" fill="#B389EF"/>
<path d="M24.66 12.6599C24.8198 12.9527 24.9006 13.282 24.8944 13.6155C24.8883 13.949 24.7953 14.2751 24.6247 14.5618C24.4542 14.8484 24.2119 15.0857 23.9217 15.2502C23.6315 15.4147 23.3035 15.5007 22.97 15.4999C22.652 15.5021 22.3388 15.4229 22.06 15.2699C22.2017 15.5337 22.4032 15.7607 22.6483 15.9328C22.8934 16.1049 23.1754 16.2172 23.4717 16.2608C23.7679 16.3045 24.0703 16.2782 24.3546 16.1841C24.6389 16.09 24.8973 15.9307 25.1091 15.719C25.3208 15.5072 25.4801 15.2488 25.5742 14.9645C25.6683 14.6802 25.6946 14.3778 25.6509 14.0816C25.6073 13.7853 25.4949 13.5033 25.3229 13.2582C25.1508 13.0131 24.9238 12.8116 24.66 12.6699V12.6599Z" fill="#8E53D8"/>
<path d="M18.5 13.8899C18.6381 14.1045 18.7111 14.3546 18.71 14.6099C18.7108 14.8505 18.6469 15.0869 18.5249 15.2942C18.4029 15.5016 18.2273 15.6723 18.0166 15.7884C17.8059 15.9045 17.5678 15.9617 17.3273 15.9541C17.0868 15.9464 16.8529 15.8742 16.65 15.7449C16.7586 15.9127 16.9034 16.0541 17.0738 16.1588C17.2442 16.2634 17.4359 16.3285 17.6347 16.3494C17.8335 16.3703 18.0346 16.3465 18.223 16.2796C18.4114 16.2128 18.5825 16.1046 18.7237 15.963C18.8649 15.8214 18.9726 15.6501 19.0389 15.4615C19.1053 15.2729 19.1286 15.0718 19.1071 14.873C19.0857 14.6742 19.02 14.4827 18.915 14.3126C18.8099 14.1425 18.6681 13.9981 18.5 13.8899Z" fill="#8E53D8"/>
<path d="M44.34 30.6549C44.339 31.0015 44.441 31.3405 44.6329 31.629C44.8248 31.9176 45.0981 32.1427 45.418 32.2757C45.738 32.4088 46.0903 32.4439 46.4302 32.3765C46.7701 32.3092 47.0824 32.1424 47.3275 31.8973C47.5725 31.6523 47.7393 31.34 47.8066 31.0001C47.874 30.6602 47.8389 30.3079 47.7059 29.9879C47.5728 29.6679 47.3477 29.3947 47.0592 29.2028C46.7706 29.0109 46.4316 28.9089 46.085 28.9099C45.6226 28.9112 45.1796 29.0955 44.8526 29.4225C44.5256 29.7494 44.3414 30.1925 44.34 30.6549Z" fill="#B389EF"/>
<path d="M39.71 29.88C39.71 30.4498 39.879 31.0068 40.1957 31.4806C40.5124 31.9543 40.9624 32.3234 41.489 32.5413C42.0155 32.7591 42.5949 32.8158 43.1537 32.7043C43.7125 32.5928 44.2256 32.318 44.6282 31.9147C45.0308 31.5114 45.3047 30.9978 45.4152 30.4388C45.5258 29.8798 45.468 29.3006 45.2493 28.7744C45.0305 28.2482 44.6606 27.7988 44.1864 27.4829C43.7121 27.1671 43.1548 26.999 42.585 27C41.822 27.0013 41.0908 27.3053 40.5517 27.8453C40.0127 28.3853 39.71 29.117 39.71 29.88Z" fill="#B389EF"/>
<path d="M46.895 29.1101C47.0673 29.4395 47.1299 29.8152 47.0737 30.1826C47.0175 30.55 46.8455 30.8899 46.5827 31.1527C46.3198 31.4155 45.98 31.5876 45.6126 31.6438C45.2451 31.7 44.8694 31.6374 44.54 31.4651C44.6669 31.7077 44.8491 31.9171 45.0719 32.0763C45.2947 32.2354 45.5519 32.3399 45.8225 32.3813C46.0932 32.4227 46.3698 32.3999 46.63 32.3146C46.8902 32.2292 47.1266 32.0839 47.3202 31.8903C47.5138 31.6967 47.6592 31.4602 47.7445 31.2C47.8298 30.9399 47.8527 30.6633 47.8113 30.3926C47.7699 30.1219 47.6654 29.8648 47.5062 29.642C47.347 29.4192 47.1377 29.237 46.895 29.1101Z" fill="#8E53D8"/>
<path d="M43.3399 29.0601C43.4229 29.2136 43.4659 29.3855 43.4649 29.5601C43.4649 29.8452 43.3517 30.1186 43.1501 30.3202C42.9485 30.5218 42.6751 30.6351 42.39 30.6351C42.2154 30.636 42.0435 30.593 41.89 30.5101C41.968 30.6585 42.0798 30.7865 42.2164 30.8838C42.353 30.9811 42.5106 31.0448 42.6764 31.07C42.8422 31.0952 43.0116 31.0811 43.1709 31.0287C43.3303 30.9764 43.4751 30.8873 43.5937 30.7688C43.7122 30.6502 43.8013 30.5054 43.8536 30.3461C43.906 30.1867 43.9201 30.0173 43.8949 29.8515C43.8697 29.6857 43.8059 29.5282 43.7087 29.3915C43.6114 29.2549 43.4834 29.1431 43.335 29.0651L43.3399 29.0601Z" fill="#8E53D8"/>
<path d="M45.11 12.06C45.11 12.3003 45.0387 12.5352 44.9052 12.735C44.7717 12.9348 44.582 13.0905 44.36 13.1825C44.1379 13.2745 43.8936 13.2985 43.658 13.2516C43.4223 13.2048 43.2058 13.089 43.0359 12.9191C42.8659 12.7492 42.7502 12.5327 42.7033 12.297C42.6565 12.0613 42.6805 11.817 42.7725 11.595C42.8644 11.373 43.0202 11.1832 43.22 11.0497C43.4198 10.9162 43.6547 10.845 43.895 10.845C44.0547 10.8443 44.213 10.8753 44.3607 10.9361C44.5084 10.9969 44.6426 11.0864 44.7556 11.1994C44.8686 11.3123 44.958 11.4465 45.0189 11.5942C45.0797 11.7419 45.1107 11.9002 45.11 12.06Z" fill="#B389EF"/>
<path d="M47.895 11.5C47.895 11.8956 47.7777 12.2822 47.5579 12.6111C47.3381 12.94 47.0258 13.1964 46.6603 13.3478C46.2949 13.4991 45.8927 13.5387 45.5048 13.4616C45.1168 13.3844 44.7605 13.1939 44.4808 12.9142C44.201 12.6345 44.0106 12.2781 43.9334 11.8902C43.8562 11.5022 43.8958 11.1001 44.0472 10.7346C44.1986 10.3692 44.4549 10.0568 44.7838 9.83706C45.1127 9.6173 45.4994 9.5 45.895 9.5C46.4254 9.5 46.9341 9.71071 47.3092 10.0858C47.6842 10.4609 47.895 10.9696 47.895 11.5Z" fill="#B389EF"/>
<path d="M44.5 11C44.603 11.1844 44.656 11.3926 44.6536 11.6038C44.6511 11.8151 44.5935 12.022 44.4863 12.204C44.3791 12.386 44.2261 12.5368 44.0426 12.6414C43.859 12.7459 43.6513 12.8006 43.44 12.8C43.2343 12.7992 43.0325 12.744 42.855 12.64C42.9451 12.8049 43.0722 12.9466 43.2265 13.0539C43.3808 13.1611 43.5579 13.231 43.7439 13.2579C43.9299 13.2848 44.1195 13.268 44.2979 13.2089C44.4763 13.1498 44.6384 13.0499 44.7715 12.9173C44.9045 12.7846 45.0049 12.6228 45.0645 12.4446C45.1242 12.2664 45.1416 12.0768 45.1152 11.8908C45.0889 11.7047 45.0196 11.5274 44.9128 11.3727C44.806 11.2181 44.6647 11.0905 44.5 11Z" fill="#8E53D8"/>
<path d="M53.165 59.28H19.365V63.255H53.165V59.28Z" fill="#E42352"/>
<path d="M53.165 59.28H36.265V63.255H53.165V59.28Z" fill="#C41849"/>
<path d="M47.535 79.9999H25L22.185 63.2549H50.35L47.535 79.9999Z" fill="#FD4062"/>
<path d="M36.265 79.9999H47.535L50.35 63.2549H36.265V79.9999Z" fill="#E42352"/>
</svg>
