<svg width="97" height="98" viewBox="0 0 97 98" fill="none" xmlns="http://www.w3.org/2000/svg">
<path d="M47.99 10.5H47.195V14.32H47.99V10.5Z" fill="#242D3C"/>
<path d="M40.1869 11.2406L39.4092 11.4058L40.2018 15.1375L40.9794 14.9724L40.1869 11.2406Z" fill="#242D3C"/>
<path d="M32.697 13.5787L31.9708 13.9021L33.5225 17.3873L34.2487 17.0639L32.697 13.5787Z" fill="#242D3C"/>
<path d="M25.8685 17.4258L25.2253 17.8931L27.4707 20.9835L28.1138 20.5162L25.8685 17.4258Z" fill="#242D3C"/>
<path d="M19.9892 22.6105L19.4572 23.2012L22.2918 25.7544L22.8239 25.1637L19.9892 22.6105Z" fill="#242D3C"/>
<path d="M15.3152 28.9031L14.9176 29.5916L18.2212 31.4996L18.6188 30.8112L15.3152 28.9031Z" fill="#242D3C"/>
<path d="M12.0519 36.0315L11.8062 36.7876L15.4345 37.9665L15.6802 37.2104L12.0519 36.0315Z" fill="#242D3C"/>
<path d="M10.3385 43.6889L10.2553 44.4795L14.0493 44.8789L14.1326 44.0883L10.3385 43.6889Z" fill="#242D3C"/>
<path d="M14.0476 51.1319L10.2534 51.53L10.3364 52.3207L14.1305 51.9226L14.0476 51.1319Z" fill="#242D3C"/>
<path d="M15.4354 58.0283L11.8076 59.2085L12.0535 59.9645L15.6814 58.7843L15.4354 58.0283Z" fill="#242D3C"/>
<path d="M18.2241 64.4995L14.9193 66.4053L15.3164 67.094L18.6213 65.1882L18.2241 64.4995Z" fill="#242D3C"/>
<path d="M22.2967 70.2461L19.4607 72.7979L19.9924 73.3888L22.8284 70.8371L22.2967 70.2461Z" fill="#242D3C"/>
<path d="M27.4714 75.0056L25.23 78.0928L25.8734 78.5598L28.1147 75.4727L27.4714 75.0056Z" fill="#242D3C"/>
<path d="M33.5261 78.6135L31.9732 82.0981L32.6993 82.4218L34.2523 78.9371L33.5261 78.6135Z" fill="#242D3C"/>
<path d="M40.1981 80.858L39.4023 84.5891L40.1799 84.7549L40.9756 81.0239L40.1981 80.858Z" fill="#242D3C"/>
<path d="M47.99 81.6851H47.195V85.5001H47.99V81.6851Z" fill="#242D3C"/>
<path d="M54.9854 80.8658L54.2078 81.0312L55.0017 84.7628L55.7793 84.5973L54.9854 80.8658Z" fill="#242D3C"/>
<path d="M61.6581 78.6055L60.9319 78.929L62.4842 82.4139L63.2104 82.0904L61.6581 78.6055Z" fill="#242D3C"/>
<path d="M67.7094 75.0201L67.0661 75.4873L69.308 78.5741L69.9512 78.1069L67.7094 75.0201Z" fill="#242D3C"/>
<path d="M72.8918 70.2401L72.36 70.8311L75.196 73.3828L75.7278 72.7918L72.8918 70.2401Z" fill="#242D3C"/>
<path d="M76.9603 64.5002L76.5629 65.1887L79.8671 67.0957L80.2645 66.4071L76.9603 64.5002Z" fill="#242D3C"/>
<path d="M79.7512 58.0375L79.5058 58.7937L83.1345 59.9713L83.3799 59.2152L79.7512 58.0375Z" fill="#242D3C"/>
<path d="M81.132 51.1285L81.0491 51.9192L84.8434 52.3166L84.9262 51.526L81.132 51.1285Z" fill="#242D3C"/>
<path d="M84.8446 43.6847L81.0505 44.0828L81.1334 44.8734L84.9276 44.4753L84.8446 43.6847Z" fill="#242D3C"/>
<path d="M79.75 37.9702L79.505 37.2152L83.13 36.0352L83.38 36.7902L79.75 37.9702Z" fill="#242D3C"/>
<path d="M79.8694 28.9119L76.5645 30.8176L76.9617 31.5063L80.2665 29.6006L79.8694 28.9119Z" fill="#242D3C"/>
<path d="M75.1882 22.6052L72.3562 25.1614L72.8889 25.7515L75.7209 23.1953L75.1882 22.6052Z" fill="#242D3C"/>
<path d="M69.316 17.4345L67.0757 20.5225L67.7192 20.9893L69.9595 17.9013L69.316 17.4345Z" fill="#242D3C"/>
<path d="M62.4849 13.5899L60.9356 17.0762L61.6621 17.399L63.2114 13.9128L62.4849 13.5899Z" fill="#242D3C"/>
<path d="M55.0023 11.2394L54.2111 14.9714L54.9888 15.1363L55.7801 11.4043L55.0023 11.2394Z" fill="#242D3C"/>
<path d="M25.53 37.85C25.529 39.4775 25.0455 41.0682 24.1406 42.421C23.2356 43.7737 21.95 44.8278 20.446 45.45C18.9421 46.0721 17.2875 46.2344 15.6914 45.9162C14.0952 45.5981 12.6292 44.8139 11.4788 43.6627C10.3283 42.5115 9.54493 41.0451 9.22778 39.4487C8.91063 37.8524 9.0739 36.1979 9.69696 34.6944C10.32 33.1908 11.3749 31.9058 12.7282 31.0016C14.0815 30.0975 15.6725 29.615 17.3 29.615C18.3812 29.615 19.4518 29.828 20.4507 30.2419C21.4495 30.6558 22.357 31.2625 23.1213 32.0273C23.8856 32.792 24.4917 33.6999 24.905 34.699C25.3183 35.6981 25.5307 36.7688 25.53 37.85Z" fill="#FFBB33"/>
<path d="M23.88 37.8501C23.879 39.1513 23.4923 40.423 22.7687 41.5044C22.045 42.5858 21.0171 43.4284 19.8146 43.9257C18.6122 44.423 17.2893 44.5525 16.0133 44.2981C14.7372 44.0436 13.5652 43.4166 12.6455 42.4961C11.7258 41.5757 11.0996 40.4033 10.8461 39.127C10.5926 37.8507 10.7232 36.528 11.2214 35.3259C11.7196 34.1239 12.5629 33.0965 13.6449 32.3737C14.7269 31.6509 15.9988 31.2651 17.3 31.2651C18.1647 31.2645 19.0211 31.4344 19.82 31.7651C20.619 32.0959 21.3448 32.581 21.956 33.1927C22.5672 33.8043 23.0518 34.5306 23.3819 35.3298C23.7121 36.129 23.8813 36.9854 23.88 37.8501Z" fill="#FFD85C"/>
<path d="M18 38.3901H16.61C16.0384 38.3901 15.4903 38.163 15.0862 37.7589C14.682 37.3548 14.455 36.8066 14.455 36.2351C14.455 35.6635 14.682 35.1154 15.0862 34.7113C15.4903 34.3071 16.0384 34.0801 16.61 34.0801H19.61V35.1701H16.61C16.4702 35.1686 16.3316 35.1948 16.202 35.2472C16.0725 35.2995 15.9545 35.377 15.855 35.4751C15.7043 35.6244 15.6014 35.8152 15.5594 36.0232C15.5173 36.2312 15.5381 36.447 15.6191 36.6432C15.7 36.8393 15.8374 37.007 16.0138 37.1248C16.1903 37.2427 16.3978 37.3054 16.61 37.3051H18V38.3901Z" fill="#FFBB33"/>
<path d="M18 41.6152H15V40.5302H18C18.1404 40.5301 18.2794 40.5021 18.409 40.4481C18.5385 40.394 18.6561 40.3149 18.755 40.2152C18.8547 40.1166 18.9335 39.9989 18.9868 39.8692C19.04 39.7395 19.0666 39.6004 19.065 39.4602C19.0665 39.3207 19.0398 39.1824 18.9866 39.0535C18.9333 38.9247 18.8545 38.8079 18.755 38.7102C18.6564 38.6098 18.5389 38.5299 18.4094 38.475C18.2798 38.4201 18.1407 38.3913 18 38.3902H16.61V37.3052H18C18.2831 37.3039 18.5637 37.3587 18.8255 37.4666C19.0873 37.5745 19.325 37.7333 19.525 37.9337C19.725 38.1342 19.8832 38.3723 19.9905 38.6343C20.0978 38.8964 20.152 39.1771 20.15 39.4602C20.1511 39.7475 20.0941 40.032 19.9824 40.2966C19.8707 40.5613 19.7066 40.8006 19.5 41.0002C19.0991 41.3926 18.561 41.6133 18 41.6152Z" fill="#FFBB33"/>
<path d="M17.845 33.7002H16.76V41.9902H17.845V33.7002Z" fill="#FFBB33"/>
<path fill-rule="evenodd" clip-rule="evenodd" d="M54.2 38.0752C54.6884 38.0765 55.1564 38.2715 55.5014 38.6173C55.8463 38.9632 56.04 39.4317 56.04 39.9202V61.2902C56.0405 61.5318 55.9931 61.7712 55.9004 61.9944C55.8077 62.2175 55.6716 62.42 55.5 62.5902C55.3286 62.7615 55.1251 62.8974 54.9012 62.99C54.6773 63.0827 54.4373 63.1303 54.195 63.1302H20.3C19.8115 63.1302 19.343 62.9365 18.9971 62.5916C18.6513 62.2466 18.4563 61.7786 18.455 61.2902V39.9202C18.4547 39.6774 18.5028 39.437 18.5963 39.2129C18.6899 38.9889 18.8271 38.7857 19 38.6152C19.3468 38.2702 19.8158 38.0761 20.305 38.0752H54.2Z" fill="#8E53D8"/>
<path d="M29.015 57.5752H23.14V58.3752H29.015V57.5752Z" fill="#29383E"/>
<path d="M36.46 57.5752H30.585V58.3752H36.46V57.5752Z" fill="#29383E"/>
<path d="M43.91 57.5752H38.035V58.3752H43.91V57.5752Z" fill="#29383E"/>
<path d="M51.36 57.5752H45.485V58.3752H51.36V57.5752Z" fill="#29383E"/>
<path d="M51.36 50.6001H23.14V53.8201H51.36V50.6001Z" fill="white"/>
<path d="M38.645 51.905H37.03V52.51H38.645V51.905Z" fill="#29383E"/>
<path d="M44.39 51.905H39.55V52.51H44.39V51.905Z" fill="#29383E"/>
<path d="M50.135 51.905H45.295V52.51H50.135V51.905Z" fill="#29383E"/>
<path d="M56.035 42.425H18.455V48.16H56.035V42.425Z" fill="#29383E"/>
<g style="mix-blend-mode:screen" opacity="0.27">
<g style="mix-blend-mode:screen" opacity="0.27">
<path d="M11.6004 26.9192L0.44223 38.0774L50.5761 88.2113L61.7342 77.0531L11.6004 26.9192Z" fill="#9C3EFF"/>
</g>
<g style="mix-blend-mode:screen" opacity="0.27">
<path d="M16.0265 28.4501L15.0411 29.4375L65.2274 79.5188L66.2128 78.5314L16.0265 28.4501Z" fill="#9C3EFF"/>
</g>
<g style="mix-blend-mode:screen" opacity="0.27">
<path d="M23.9005 21.6032L18.7209 26.7827L68.8584 76.9201L74.0379 71.7406L23.9005 21.6032Z" fill="#9C3EFF"/>
</g>
<g style="mix-blend-mode:screen" opacity="0.27">
<path d="M34.3332 17.0658L30.9674 20.4316L81.1013 70.5655L84.4671 67.1997L34.3332 17.0658Z" fill="#9C3EFF"/>
</g>
</g>
<path fill-rule="evenodd" clip-rule="evenodd" d="M53.96 30.89C53.9613 30.4025 54.1556 29.9352 54.5004 29.5904C54.8452 29.2456 55.3124 29.0514 55.8 29.05H77.175C77.66 29.0553 78.1234 29.2513 78.4649 29.5957C78.8065 29.94 78.9987 30.405 79 30.89V64.7901C78.9987 65.2776 78.8044 65.7449 78.4596 66.0897C78.1148 66.4345 77.6476 66.6287 77.16 66.63H55.805C55.3165 66.63 54.848 66.4364 54.5021 66.0914C54.1563 65.7465 53.9613 65.2785 53.96 64.7901V30.89Z" fill="#FFCA40"/>
<path d="M74.26 56.0752H73.46V61.9502H74.26V56.0752Z" fill="#29383E"/>
<path d="M74.26 48.625H73.46V54.5H74.26V48.625Z" fill="#29383E"/>
<path d="M74.26 41.175H73.46V47.05H74.26V41.175Z" fill="#29383E"/>
<path d="M74.26 33.73H73.46V39.605H74.26V33.73Z" fill="#29383E"/>
<path d="M69.7 33.73H66.48V61.95H69.7V33.73Z" fill="white"/>
<path d="M68.395 46.4451H67.79V48.0601H68.395V46.4451Z" fill="#29383E"/>
<path d="M68.395 40.7002H67.79V45.5402H68.395V40.7002Z" fill="#29383E"/>
<path d="M68.395 34.9551H67.79V39.7951H68.395V34.9551Z" fill="#29383E"/>
<path d="M64.045 29.05H58.31V66.63H64.045V29.05Z" fill="#29383E"/>
<g style="mix-blend-mode:screen" opacity="0.27">
<g style="mix-blend-mode:screen" opacity="0.27">
<path d="M40.0432 23.3467L28.885 34.5049L79.0189 84.6387L90.1771 73.4806L40.0432 23.3467Z" fill="#FFBF3E"/>
</g>
<g style="mix-blend-mode:screen" opacity="0.27">
<path d="M38.5539 18.8767L37.5665 19.8621L87.6478 70.0484L88.6353 69.063L38.5539 18.8767Z" fill="#FFBF3E"/>
</g>
<g style="mix-blend-mode:screen" opacity="0.27">
<path d="M45.3459 11.0607L40.1664 16.2402L90.3038 66.3776L95.4833 61.1981L45.3459 11.0607Z" fill="#FFBF3E"/>
</g>
<g style="mix-blend-mode:screen" opacity="0.27">
<path d="M49.8931 0.618301L46.5272 3.98413L96.6611 54.118L100.027 50.7522L49.8931 0.618301Z" fill="#FFBF3E"/>
</g>
</g>
<path fill-rule="evenodd" clip-rule="evenodd" d="M69.795 49.5C70.2835 49.5 70.752 49.6937 71.0979 50.0386C71.4437 50.3836 71.6387 50.8516 71.64 51.34V72.715C71.6387 73.2035 71.4437 73.6715 71.0979 74.0164C70.752 74.3613 70.2835 74.555 69.795 74.555H35.9C35.4116 74.555 34.943 74.3613 34.5972 74.0164C34.2513 73.6715 34.0563 73.2035 34.055 72.715V51.365C34.051 51.1207 34.0959 50.878 34.1869 50.6513C34.278 50.4245 34.4134 50.2182 34.5853 50.0445C34.7571 49.8707 34.9619 49.7331 35.1877 49.6396C35.4135 49.5461 35.6557 49.4987 35.9 49.5H69.795Z" fill="#FD4062"/>
<path d="M44.615 69.02H38.74V69.82H44.615V69.02Z" fill="#29383E"/>
<path d="M52.06 69.02H46.185V69.82H52.06V69.02Z" fill="#29383E"/>
<path d="M59.51 69.02H53.635V69.82H59.51V69.02Z" fill="#29383E"/>
<path d="M66.955 69.02H61.08V69.82H66.955V69.02Z" fill="#29383E"/>
<path d="M66.96 62.04H38.74V65.26H66.96V62.04Z" fill="white"/>
<path d="M54.245 63.3501H52.63V63.9551H54.245V63.3501Z" fill="#29383E"/>
<path d="M59.99 63.3501H55.15V63.9551H59.99V63.3501Z" fill="#29383E"/>
<path d="M65.735 63.3501H60.895V63.9551H65.735V63.3501Z" fill="#29383E"/>
<path d="M71.635 53.8701H34.055V59.6051H71.635V53.8701Z" fill="#29383E"/>
<g style="mix-blend-mode:screen" opacity="0.27">
<g style="mix-blend-mode:screen" opacity="0.27">
<path d="M27.2005 38.3575L16.0424 49.5156L66.1763 99.6495L77.3344 88.4913L27.2005 38.3575Z" fill="#FF3E71"/>
</g>
<g style="mix-blend-mode:screen" opacity="0.27">
<path d="M31.6236 39.8883L30.6382 40.8757L80.8246 90.9571L81.8099 89.9696L31.6236 39.8883Z" fill="#FF3E71"/>
</g>
<g style="mix-blend-mode:screen" opacity="0.27">
<path d="M39.4992 33.0499L34.3196 38.2295L84.457 88.3669L89.6366 83.1873L39.4992 33.0499Z" fill="#FF3E71"/>
</g>
<g style="mix-blend-mode:screen" opacity="0.27">
<path d="M49.9319 28.5126L46.5661 31.8784L96.7 82.0123L100.066 78.6465L49.9319 28.5126Z" fill="#FF3E71"/>
</g>
</g>
<path d="M41.55 38.0752C41.55 38.9652 41.8139 39.8352 42.3084 40.5753C42.8029 41.3153 43.5057 41.8921 44.3279 42.2327C45.1502 42.5732 46.055 42.6624 46.9279 42.4887C47.8008 42.3151 48.6027 41.8865 49.232 41.2572C49.8613 40.6278 50.2899 39.826 50.4635 38.9531C50.6372 38.0802 50.5481 37.1754 50.2075 36.3531C49.8669 35.5309 49.2901 34.828 48.5501 34.3336C47.8101 33.8391 46.94 33.5752 46.05 33.5752C44.8565 33.5752 43.712 34.0493 42.868 34.8932C42.0241 35.7371 41.55 36.8817 41.55 38.0752Z" fill="#FFBB33"/>
<path d="M41.155 38.0752C41.155 38.9652 41.4189 39.8352 41.9134 40.5753C42.4078 41.3153 43.1106 41.8921 43.9329 42.2327C44.7552 42.5732 45.66 42.6624 46.5329 42.4887C47.4058 42.3151 48.2076 41.8865 48.8369 41.2572C49.4663 40.6278 49.8949 39.826 50.0685 38.9531C50.2421 38.0802 50.153 37.1754 49.8124 36.3531C49.4718 35.5309 48.8951 34.828 48.155 34.3336C47.415 33.8391 46.545 33.5752 45.655 33.5752C44.4615 33.5752 43.3169 34.0493 42.473 34.8932C41.6291 35.7371 41.155 36.8817 41.155 38.0752Z" fill="#FFD85C"/>
<path d="M42.35 38.075C42.35 38.7269 42.5434 39.3642 42.9057 39.9062C43.268 40.4481 43.7829 40.8705 44.3853 41.1197C44.9876 41.3689 45.6504 41.4339 46.2897 41.3064C46.929 41.1788 47.5161 40.8645 47.9767 40.4032C48.4373 39.9419 48.7508 39.3543 48.8773 38.7148C49.0039 38.0753 48.9379 37.4126 48.6878 36.8106C48.4376 36.2086 48.0145 35.6944 47.472 35.3329C46.9295 34.9715 46.2919 34.779 45.64 34.78C44.767 34.7814 43.9302 35.1291 43.3134 35.7469C42.6965 36.3647 42.35 37.202 42.35 38.075Z" fill="#FFCA40"/>
<path d="M42.75 38.075C42.7498 37.2369 43.0694 36.4303 43.6436 35.8198C44.2179 35.2093 45.0035 34.841 45.84 34.79H45.64C44.7661 34.79 43.928 35.1372 43.3101 35.7551C42.6922 36.3731 42.345 37.2111 42.345 38.085C42.345 38.9589 42.6922 39.797 43.3101 40.415C43.928 41.0329 44.7661 41.38 45.64 41.38H45.84C45 41.3289 44.2115 40.9578 43.6367 40.343C43.062 39.7283 42.7446 38.9166 42.75 38.075Z" fill="#FFBB33"/>
<path d="M22.8 63.1702C22.8 64.0602 23.0639 64.9302 23.5584 65.6702C24.0529 66.4103 24.7557 66.987 25.5779 67.3276C26.4002 67.6682 27.305 67.7573 28.1779 67.5837C29.0508 67.4101 29.8527 66.9815 30.482 66.3521C31.1113 65.7228 31.5399 64.921 31.7136 64.0481C31.8872 63.1752 31.7981 62.2704 31.4575 61.4481C31.1169 60.6258 30.5401 59.923 29.8001 59.4286C29.0601 58.9341 28.19 58.6702 27.3 58.6702C26.1065 58.6702 24.962 59.1443 24.118 59.9882C23.2741 60.8321 22.8 61.9767 22.8 63.1702Z" fill="#FFBB33"/>
<path d="M22.405 63.1702C22.405 64.0602 22.6689 64.9302 23.1634 65.6702C23.6578 66.4103 24.3606 66.987 25.1829 67.3276C26.0052 67.6682 26.91 67.7573 27.7829 67.5837C28.6558 67.4101 29.4576 66.9815 30.0869 66.3521C30.7163 65.7228 31.1449 64.921 31.3185 64.0481C31.4921 63.1752 31.403 62.2704 31.0624 61.4481C30.7218 60.6258 30.1451 59.923 29.405 59.4286C28.665 58.9341 27.795 58.6702 26.905 58.6702C25.7115 58.6702 24.5669 59.1443 23.723 59.9882C22.8791 60.8321 22.405 61.9767 22.405 63.1702Z" fill="#FFD85C"/>
<path d="M23.605 63.1701C23.604 63.8222 23.7966 64.46 24.1582 65.0026C24.5199 65.5452 25.0345 65.9683 25.6368 66.2184C26.239 66.4684 26.902 66.534 27.5416 66.4071C28.1812 66.2801 28.7688 65.9662 29.2299 65.505C29.691 65.0439 30.005 64.4564 30.1319 63.8167C30.2589 63.1771 30.1932 62.5142 29.9432 61.9119C29.6932 61.3096 29.2701 60.795 28.7275 60.4334C28.1849 60.0717 27.5471 59.8791 26.895 59.8801C26.0225 59.8801 25.1856 60.2268 24.5686 60.8438C23.9516 61.4607 23.605 62.2976 23.605 63.1701Z" fill="#FFCA40"/>
<path d="M24 63.1701C24.0011 62.3321 24.322 61.526 24.8972 60.9164C25.4723 60.3069 26.2584 59.9398 27.095 59.8901H26.895C26.0212 59.8901 25.1831 60.2373 24.5651 60.8552C23.9472 61.4731 23.6 62.3112 23.6 63.1851C23.6 64.059 23.9472 64.8971 24.5651 65.5151C25.1831 66.133 26.0212 66.4801 26.895 66.4801H27.095C26.2537 66.429 25.4639 66.0573 24.8882 65.4417C24.3125 64.826 23.9946 64.013 24 63.1701Z" fill="#FFBB33"/>
<path d="M41.63 21.0001C41.629 22.2439 41.2593 23.4595 40.5675 24.4932C39.8758 25.527 38.8931 26.3324 37.7436 26.8077C36.5942 27.283 35.3297 27.4069 34.1098 27.1636C32.89 26.9203 31.7697 26.3209 30.8906 25.441C30.0114 24.5611 29.4128 23.4404 29.1705 22.2204C28.9282 21.0004 29.0531 19.7359 29.5293 18.5868C30.0055 17.4378 30.8117 16.4557 31.846 15.7648C32.8803 15.0739 34.0962 14.7051 35.34 14.7051C36.1665 14.7051 36.9848 14.8679 37.7483 15.1844C38.5117 15.5008 39.2053 15.9645 39.7895 16.5491C40.3736 17.1338 40.8369 17.8277 41.1527 18.5915C41.4685 19.3552 41.6307 20.1736 41.63 21.0001Z" fill="#FFBB33"/>
<path d="M40.37 21.0002C40.37 21.9951 40.075 22.9676 39.5223 23.7947C38.9696 24.6219 38.184 25.2666 37.2649 25.6473C36.3458 26.028 35.3344 26.1277 34.3587 25.9336C33.383 25.7395 32.4867 25.2604 31.7833 24.557C31.0798 23.8535 30.6007 22.9572 30.4066 21.9815C30.2126 21.0058 30.3122 19.9944 30.6929 19.0753C31.0736 18.1562 31.7183 17.3706 32.5455 16.8179C33.3727 16.2652 34.3452 15.9702 35.34 15.9702C36.674 15.9702 37.9534 16.5002 38.8968 17.4435C39.8401 18.3868 40.37 19.6662 40.37 21.0002Z" fill="#FFD85C"/>
<path d="M35.87 21.4H34.81C34.3888 21.3768 33.9924 21.1931 33.7024 20.8867C33.4124 20.5802 33.2508 20.1744 33.2508 19.7525C33.2508 19.3306 33.4124 18.9247 33.7024 18.6183C33.9924 18.3119 34.3888 18.1282 34.81 18.105H37.1V18.935H34.81C34.6042 18.9511 34.4121 19.0442 34.272 19.1957C34.1318 19.3473 34.054 19.5461 34.054 19.7525C34.054 19.9589 34.1318 20.1577 34.272 20.3092C34.4121 20.4608 34.6042 20.5539 34.81 20.57H35.87V21.4Z" fill="#FFBB33"/>
<path d="M35.87 23.8651H33.58V23.0351H35.87C36.0873 23.0341 36.2955 22.9479 36.45 22.7951C36.563 22.6801 36.6397 22.5344 36.6704 22.3762C36.7011 22.2179 36.6844 22.0541 36.6225 21.9053C36.5607 21.7564 36.4563 21.6291 36.3224 21.5392C36.1886 21.4494 36.0312 21.401 35.87 21.4001H34.81V20.5701H35.87C36.0875 20.5725 36.3025 20.6179 36.5024 20.7037C36.7024 20.7895 36.8834 20.914 37.035 21.0701C37.2633 21.3011 37.4184 21.5943 37.4809 21.9131C37.5433 22.2319 37.5102 22.562 37.3858 22.862C37.2614 23.1621 37.0512 23.4187 36.7815 23.5998C36.5119 23.7809 36.1948 23.8784 35.87 23.8801V23.8651Z" fill="#FFBB33"/>
<path d="M35.755 17.8152H34.925V24.1502H35.755V17.8152Z" fill="#FFBB33"/>
</svg>
